<?xml version="1.0" encoding="UTF-8"?>
<svg width="290px" height="100px" viewBox="0 0 290 100" version="1.1" xmlns="http://www.w3.org/2000/svg" xmlns:xlink="http://www.w3.org/1999/xlink">
    <!-- Generator: Sketch 51.2 (57519) - http://www.bohemiancoding.com/sketch -->
    <title>assets/excaliburDownload</title>
    <desc>Created with Sketch.</desc>
    <defs>
        <path d="M0,0 L245,0 C247.761424,-5.07265313e-16 250,2.23857625 250,5 L250,85 C250,87.7614237 247.761424,90 245,90 L0,90 L0,0 Z" id="path-1"></path>
        <polygon id="path-3" points="-34.7681101 71.5282101 4.83896854 96.3064202 44.4460472 71.5282101 44.4460472 21.9717899 4.83896854 -2.80448444 -34.7681101 21.9737257"></polygon>
        <filter x="-10.7%" y="-6.6%" width="121.5%" height="117.2%" filterUnits="objectBoundingBox" id="filter-4">
            <feOffset dx="0" dy="2" in="SourceAlpha" result="shadowOffsetOuter1"></feOffset>
            <feGaussianBlur stdDeviation="2.5" in="shadowOffsetOuter1" result="shadowBlurOuter1"></feGaussianBlur>
            <feColorMatrix values="0 0 0 0 0   0 0 0 0 0   0 0 0 0 0  0 0 0 0.2 0" type="matrix" in="shadowBlurOuter1"></feColorMatrix>
        </filter>
    </defs>
    <g id="assets/excaliburDownload" stroke="none" stroke-width="1" fill="none" fill-rule="evenodd">
        <g id="ipfsExplore">
            <g id="Shape-Copy" transform="translate(40.000000, 5.000000)">
                <mask id="mask-2" fill="white">
                    <use xlink:href="#path-1"></use>
                </mask>
                <use id="Mask" fill="#6C81D3" xlink:href="#path-1"></use>
                <g fill-rule="nonzero" mask="url(#mask-2)" fill="black" fill-opacity="1">
                    <use filter="url(#filter-4)" xlink:href="#path-3"></use>
                </g>
            </g>
            <g id="ipfs-logo-vector-ice-text" fill-rule="nonzero">
                <g id="Group">
                    <g transform="translate(0.175615, 0.094854)" id="Shape">
                        <polygon fill="#5B6DB5" points="0.0562752809 74.433356 39.6633539 99.2115661 79.2704326 74.433356 79.2704326 24.8769358 39.6633539 0.100661479 0.0562752809 24.8788716"></polygon>
                        <path d="M35.5749101,6.06872568 L6.8584382,24.0340895 C6.91583184,24.5866242 6.91583006,25.1443082 6.8584382,25.6968235 L35.5766966,43.6621874 C37.9981416,41.7261961 41.3012326,41.7261961 43.7226775,43.6621874 L72.440936,25.69663 C72.3835423,25.1440952 72.383244,24.5866823 72.4407573,24.0341669 L43.7242854,6.06880311 C41.3028404,8.00479436 37.9995708,8.00479436 35.5779472,6.06880311 L35.5749101,6.06872568 Z M75.1980674,30.6591634 L46.4494382,48.8246887 C46.786018,52.0650204 45.1343653,55.1646196 42.3763584,56.4689601 L42.4086265,92.1999134 C42.8789271,92.4223172 43.3245201,92.701014 43.7374377,93.0311449 L72.4556962,75.0659747 C72.1191164,71.825643 73.7707691,68.7258502 76.5287759,67.4215097 L76.5287759,31.4911693 C76.0584754,31.2687655 75.6126322,30.9900687 75.1997146,30.6599377 L75.1980674,30.6591634 Z M4.12864045,30.858841 C3.71574067,31.1889719 3.27014764,31.4679397 2.79982921,31.6903435 L2.79982921,67.6206839 C5.55785393,68.9249857 7.20948876,72.0246236 6.87290899,75.2649554 L35.5893809,93.2303192 C36.0022807,92.9001882 36.4481417,92.6212204 36.9184422,92.3988166 L36.9184422,56.4684762 C34.1604175,55.1641744 32.5087827,52.0645365 32.8453625,48.8242048 L4.12889056,30.8580666 L4.12864045,30.858841 Z" fill="#6C81D3"></path>
                    </g>
                    <g transform="translate(0.178652, 0.065817)" fill="#000000" id="Shape">
                        <polygon fill-opacity="0.25098" points="39.6606742 99.2406031 79.2677528 74.462393 79.2677528 24.9059728 39.6606742 49.6841829"></polygon>
                        <polygon fill-opacity="0.039216" points="39.6606742 99.2406031 39.6606742 49.6841829 0.0535955056 24.9059728 0.0535955056 74.462393"></polygon>
                        <polygon fill-opacity="0.13018" points="0.0532382022 24.9059728 39.6603169 49.6841829 79.2673955 24.9059728 39.6603169 0.127762646"></polygon>
                    </g>
                </g>
                <g id="Group" transform="translate(7.000000, 35.500000)" fill="#FFFFFF">
                    <polygon id="Shape" points="5.38495902 0.77027027 0.159275956 0.77027027 0.159275956 27.9608108 5.38495902 27.9608108"></polygon>
                    <path d="M14.4905328,27.9608108 L14.4905328,17.9858108 C15.7790574,18.1013514 17.067582,18.1013514 18.1413525,18.1013514 C25.5861612,18.1013514 27.7337022,14.1344595 27.7337022,9.24324324 C27.7337022,3.31216216 23.7965437,0.77027027 17.7118443,0.77027027 L9.26484973,0.77027027 L9.26484973,27.9608108 L14.4905328,27.9608108 Z M17.3181284,14.1344595 C16.351735,14.1344595 14.920041,14.1344595 14.4905328,14.0959459 L14.4905328,4.8527027 L17.7476366,4.8527027 C20.8973634,4.8527027 22.6869809,6.47027027 22.6869809,9.43581081 L22.6869809,9.51283784 C22.6869809,11.8236486 21.8995492,14.1344595 17.3181284,14.1344595 Z" id="Shape"></path>
                    <polygon id="Shape" points="45.6262978 0.77027027 29.7702869 0.77027027 29.7702869 27.9608108 34.9959699 27.9608108 34.9959699 15.9831081 44.9104508 15.9831081 44.9104508 11.9006757 34.9601776 11.9006757 34.9601776 4.89121622 45.2683743 4.89121622"></polygon>
                    <path d="M62.7278825,6.08513514 L64.0879918,2.31081081 C62.0478279,0.731756757 59.2918169,0.154054054 55.819959,0.154054054 C50.7732377,0.154054054 46.6213251,2.69594595 46.6213251,7.89527027 C46.6213251,12.5554054 49.8068443,14.4040541 52.9923634,15.5209459 L56.1778825,16.6763514 C58.3612158,17.4851351 60.1508333,18.2554054 60.1508333,20.7972973 C60.1508333,23.1081081 58.2896311,24.0324324 55.4620355,24.0324324 C52.5986475,24.0324324 49.5205055,23.1081081 47.7666803,21.9141892 L46.406571,25.9966216 C48.6972814,27.5756757 51.5964617,28.3459459 55.4978279,28.3459459 C61.0456421,28.3459459 65.340724,25.727027 65.340724,20.1425676 C65.340724,14.9432432 61.654112,13.2871622 57.9317077,11.9391892 L54.4598497,10.7067568 C52.956571,10.1675676 51.8112158,9.43581081 51.8112158,7.35608108 C51.8112158,5.23783784 53.4218716,4.39054054 55.819959,4.39054054 C58.7549317,4.39054054 61.0456421,4.96824324 62.7278825,6.08513514 Z" id="Shape"></path>
                </g>
            </g>
            <path d="M163.205078,36 L163.205078,21.78125 L166.886719,21.78125 C167.830734,21.78125 168.685218,21.9423812 169.450195,22.2646484 C170.215173,22.5869157 170.869463,23.0361299 171.413086,23.6123047 C171.956708,24.1884794 172.376626,24.8769491 172.672852,25.6777344 C172.969077,26.4785196 173.117188,27.3574171 173.117188,28.3144531 L173.117188,29.4863281 C173.117188,30.4433642 172.969077,31.320634 172.672852,32.1181641 C172.376626,32.9156941 171.961591,33.6025362 171.427734,34.1787109 C170.893878,34.7548857 170.252608,35.2024724 169.503906,35.5214844 C168.755205,35.8404964 167.92839,36 167.023438,36 L163.205078,36 Z M165.96875,24.0078125 L165.96875,33.7929688 L167.023438,33.7929688 C167.537763,33.7929688 167.99837,33.6953135 168.405273,33.5 C168.812177,33.3046865 169.157225,33.0214862 169.44043,32.6503906 C169.723634,32.279295 169.940103,31.8284532 170.089844,31.2978516 C170.239584,30.76725 170.314453,30.1634148 170.314453,29.4863281 L170.314453,28.2949219 C170.314453,27.6568979 170.241212,27.075849 170.094727,26.5517578 C169.948241,26.0276667 169.730145,25.5768248 169.44043,25.1992188 C169.150715,24.8216127 168.792645,24.5286469 168.366211,24.3203125 C167.939777,24.1119781 167.446617,24.0078125 166.886719,24.0078125 L165.96875,24.0078125 Z M185.1875,29.9355469 C185.1875,30.8470098 185.067058,31.6868451 184.826172,32.4550781 C184.585285,33.2233111 184.236981,33.8841118 183.78125,34.4375 C183.325519,34.9908882 182.770511,35.422199 182.116211,35.7314453 C181.461911,36.0406917 180.724613,36.1953125 179.904297,36.1953125 C179.08398,36.1953125 178.354821,36.0406917 177.716797,35.7314453 C177.078773,35.422199 176.541669,34.9892606 176.105469,34.4326172 C175.669269,33.8759738 175.337241,33.2151731 175.109375,32.4501953 C174.881509,31.6852175 174.767578,30.8470098 174.767578,29.9355469 L174.767578,27.8652344 C174.767578,26.9537715 174.881509,26.1139361 175.109375,25.3457031 C175.337241,24.5774701 175.669269,23.9150418 176.105469,23.3583984 C176.541669,22.801755 177.077145,22.3671891 177.711914,22.0546875 C178.346683,21.7421859 179.074215,21.5859375 179.894531,21.5859375 C180.721358,21.5859375 181.461911,21.7421859 182.116211,22.0546875 C182.770511,22.3671891 183.325519,22.801755 183.78125,23.3583984 C184.236981,23.9150418 184.585285,24.5774701 184.826172,25.3457031 C185.067058,26.1139361 185.1875,26.9537715 185.1875,27.8652344 L185.1875,29.9355469 Z M182.404297,27.8457031 C182.404297,27.2662731 182.357097,26.7324243 182.262695,26.2441406 C182.168294,25.7558569 182.020183,25.3359393 181.818359,24.984375 C181.616535,24.6328107 181.357749,24.3577484 181.041992,24.1591797 C180.726235,23.960611 180.343752,23.8613281 179.894531,23.8613281 C179.451821,23.8613281 179.080731,23.960611 178.78125,24.1591797 C178.481769,24.3577484 178.240886,24.6328107 178.058594,24.984375 C177.876301,25.3359393 177.746094,25.7558569 177.667969,26.2441406 C177.589843,26.7324243 177.550781,27.2662731 177.550781,27.8457031 L177.550781,29.9355469 C177.550781,30.5084664 177.589843,31.0390601 177.667969,31.5273438 C177.746094,32.0156274 177.876301,32.4388003 178.058594,32.796875 C178.240886,33.1549497 178.481769,33.4348948 178.78125,33.6367188 C179.080731,33.8385427 179.455076,33.9394531 179.904297,33.9394531 C180.347007,33.9394531 180.726235,33.8385427 181.041992,33.6367188 C181.357749,33.4348948 181.614908,33.1565773 181.813477,32.8017578 C182.012045,32.4469383 182.160156,32.0253931 182.257812,31.5371094 C182.355469,31.0488257 182.404297,30.5149769 182.404297,29.9355469 L182.404297,27.8457031 Z M194.220703,30.3457031 L195.255859,21.78125 L197.775391,21.78125 L195.802734,36 L193.322266,36 L191.974609,27.6015625 L190.675781,36 L188.195312,36 L186.242188,21.78125 L188.751953,21.78125 L189.767578,30.2871094 L190.978516,21.78125 L192.941406,21.78125 L194.220703,30.3457031 Z M208.644531,36 L205.910156,36 L201.955078,26.8300781 L201.955078,36 L199.191406,36 L199.191406,21.78125 L201.955078,21.78125 L205.880859,30.9121094 L205.890625,21.78125 L208.644531,21.78125 L208.644531,36 Z M214.210938,33.7832031 L220.871094,33.7832031 L220.871094,36 L211.457031,36 L211.457031,21.78125 L214.210938,21.78125 L214.210938,33.7832031 Z M233.195312,29.9355469 C233.195312,30.8470098 233.074871,31.6868451 232.833984,32.4550781 C232.593098,33.2233111 232.244794,33.8841118 231.789062,34.4375 C231.333331,34.9908882 230.778324,35.422199 230.124023,35.7314453 C229.469723,36.0406917 228.732426,36.1953125 227.912109,36.1953125 C227.091793,36.1953125 226.362633,36.0406917 225.724609,35.7314453 C225.086585,35.422199 224.549481,34.9892606 224.113281,34.4326172 C223.677081,33.8759738 223.345053,33.2151731 223.117188,32.4501953 C222.889322,31.6852175 222.775391,30.8470098 222.775391,29.9355469 L222.775391,27.8652344 C222.775391,26.9537715 222.889322,26.1139361 223.117188,25.3457031 C223.345053,24.5774701 223.677081,23.9150418 224.113281,23.3583984 C224.549481,22.801755 225.084958,22.3671891 225.719727,22.0546875 C226.354495,21.7421859 227.082027,21.5859375 227.902344,21.5859375 C228.729171,21.5859375 229.469723,21.7421859 230.124023,22.0546875 C230.778324,22.3671891 231.333331,22.801755 231.789062,23.3583984 C232.244794,23.9150418 232.593098,24.5774701 232.833984,25.3457031 C233.074871,26.1139361 233.195312,26.9537715 233.195312,27.8652344 L233.195312,29.9355469 Z M230.412109,27.8457031 C230.412109,27.2662731 230.364909,26.7324243 230.270508,26.2441406 C230.176106,25.7558569 230.027996,25.3359393 229.826172,24.984375 C229.624348,24.6328107 229.365561,24.3577484 229.049805,24.1591797 C228.734048,23.960611 228.351565,23.8613281 227.902344,23.8613281 C227.459633,23.8613281 227.088543,23.960611 226.789062,24.1591797 C226.489582,24.3577484 226.248699,24.6328107 226.066406,24.984375 C225.884114,25.3359393 225.753907,25.7558569 225.675781,26.2441406 C225.597656,26.7324243 225.558594,27.2662731 225.558594,27.8457031 L225.558594,29.9355469 C225.558594,30.5084664 225.597656,31.0390601 225.675781,31.5273438 C225.753907,32.0156274 225.884114,32.4388003 226.066406,32.796875 C226.248699,33.1549497 226.489582,33.4348948 226.789062,33.6367188 C227.088543,33.8385427 227.462888,33.9394531 227.912109,33.9394531 C228.35482,33.9394531 228.734048,33.8385427 229.049805,33.6367188 C229.365561,33.4348948 229.62272,33.1565773 229.821289,32.8017578 C230.019858,32.4469383 230.167968,32.0253931 230.265625,31.5371094 C230.363282,31.0488257 230.412109,30.5149769 230.412109,29.9355469 L230.412109,27.8457031 Z M242.267578,33.03125 L238,33.03125 L237.160156,36 L234.269531,36 L238.927734,21.78125 L241.417969,21.78125 L245.988281,36 L243.097656,36 L242.267578,33.03125 Z M238.673828,30.6972656 L241.623047,30.6972656 L240.167969,25.4628906 L238.673828,30.6972656 Z M247.21875,36 L247.21875,21.78125 L250.900391,21.78125 C251.844406,21.78125 252.698889,21.9423812 253.463867,22.2646484 C254.228845,22.5869157 254.883135,23.0361299 255.426758,23.6123047 C255.97038,24.1884794 256.390298,24.8769491 256.686523,25.6777344 C256.982749,26.4785196 257.130859,27.3574171 257.130859,28.3144531 L257.130859,29.4863281 C257.130859,30.4433642 256.982749,31.320634 256.686523,32.1181641 C256.390298,32.9156941 255.975263,33.6025362 255.441406,34.1787109 C254.907549,34.7548857 254.26628,35.2024724 253.517578,35.5214844 C252.768876,35.8404964 251.942062,36 251.037109,36 L247.21875,36 Z M249.982422,24.0078125 L249.982422,33.7929688 L251.037109,33.7929688 C251.551435,33.7929688 252.012042,33.6953135 252.418945,33.5 C252.825848,33.3046865 253.170897,33.0214862 253.454102,32.6503906 C253.737306,32.279295 253.953775,31.8284532 254.103516,31.2978516 C254.253256,30.76725 254.328125,30.1634148 254.328125,29.4863281 L254.328125,28.2949219 C254.328125,27.6568979 254.254884,27.075849 254.108398,26.5517578 C253.961913,26.0276667 253.743817,25.5768248 253.454102,25.1992188 C253.164387,24.8216127 252.806317,24.5286469 252.379883,24.3203125 C251.953448,24.1119781 251.460289,24.0078125 250.900391,24.0078125 L249.982422,24.0078125 Z" id="DOWNLOAD" fill="#FFFFFF"></path>
            <g id="Group-2" transform="translate(262.000000, 24.000000)" fill="#FFFFFF">
                <rect id="Rectangle" x="0" y="10" width="14" height="1"></rect>
                <polygon id="Path-2" points="0 0 7 7 14 0 12.5 0 7 5.5 1.5 0"></polygon>
            </g>
            <g id="logo/identity/excaliburOutlines" transform="translate(102.013712, 55.592712)">
                <g id="logo" transform="translate(0.000000, -3.600000)">
                    <path d="M10.2222656,18.0972656 L3.56484375,18.0972656 L3.56484375,22.6728516 L11.3466797,22.6728516 L11.3466797,25.2 L0.425390625,25.2 L0.425390625,8.990625 L11.3132812,8.990625 L11.3132812,11.5400391 L3.56484375,11.5400391 L3.56484375,15.6257812 L10.2222656,15.6257812 L10.2222656,18.0972656 Z M19.5515625,16.9171875 L22.2011719,13.1542969 L25.5298828,13.1542969 L21.4886719,19.0658203 L25.6746094,25.2 L22.3347656,25.2 L19.5626953,21.2589844 L16.8128906,25.2 L13.4619141,25.2 L17.6478516,19.0658203 L13.6177734,13.1542969 L16.9464844,13.1542969 L19.5515625,16.9171875 Z M33.0556641,22.9511719 C33.3599625,22.9511719 33.6494127,22.9066411 33.9240234,22.8175781 C34.1986342,22.7285152 34.4398427,22.6023446 34.6476562,22.4390625 C34.8554698,22.2757804 35.016894,22.0791027 35.1319336,21.8490234 C35.2469732,21.6189442 35.2970704,21.362892 35.2822266,21.0808594 L38.1990234,21.0808594 C38.2138673,21.7043 38.0858412,22.2832005 37.8149414,22.8175781 C37.5440416,23.3519558 37.174807,23.8121074 36.7072266,24.1980469 C36.2396461,24.5839863 35.6959992,24.8864247 35.0762695,25.1053711 C34.4565399,25.3243175 33.801566,25.4337891 33.1113281,25.4337891 C32.1761672,25.4337891 31.3560582,25.2760758 30.6509766,24.9606445 C29.9458949,24.6452133 29.3577172,24.2128934 28.8864258,23.6636719 C28.4151344,23.1144504 28.0588879,22.4706092 27.8176758,21.7321289 C27.5764636,20.9936487 27.4558594,20.2013714 27.4558594,19.3552734 L27.4558594,19.0212891 C27.4558594,18.1751911 27.5746082,17.3829138 27.8121094,16.6444336 C28.0496106,15.9059533 28.405857,15.2621121 28.8808594,14.7128906 C29.3558617,14.1636691 29.9440395,13.7294938 30.6454102,13.4103516 C31.3467809,13.0912093 32.1613235,12.9316406 33.0890625,12.9316406 C33.8312537,12.9316406 34.5177703,13.0429676 35.1486328,13.265625 C35.7794953,13.4882824 36.3231422,13.8018534 36.7795898,14.2063477 C37.2360374,14.6108419 37.5904284,15.1006807 37.8427734,15.6758789 C38.0951184,16.2510771 38.2138673,16.8949183 38.1990234,17.6074219 L35.2822266,17.6074219 C35.2970704,17.3105454 35.2525396,17.028517 35.1486328,16.7613281 C35.044726,16.4941393 34.8925791,16.2640635 34.6921875,16.0710937 C34.4917959,15.878124 34.2505873,15.7241217 33.9685547,15.609082 C33.686522,15.4940424 33.3785173,15.4365234 33.0445312,15.4365234 C32.5546851,15.4365234 32.1501969,15.5367177 31.8310547,15.7371094 C31.5119125,15.937501 31.2577158,16.2046858 31.068457,16.5386719 C30.8791983,16.8726579 30.7456059,17.2548807 30.6676758,17.6853516 C30.5897457,18.1158225 30.5507812,18.5611305 30.5507812,19.0212891 L30.5507812,19.3552734 C30.5507812,19.8228539 30.5878903,20.2737283 30.6621094,20.7079102 C30.7363285,21.142092 30.8680655,21.5243148 31.0573242,21.8545898 C31.246583,22.1848649 31.5026351,22.4501943 31.8254883,22.6505859 C32.1483415,22.8509776 32.558396,22.9511719 33.0556641,22.9511719 Z M48.9310547,25.2 C48.8568356,25.0515618 48.7937503,24.8808603 48.7417969,24.6878906 C48.6898435,24.4949209 48.6453127,24.2908214 48.6082031,24.0755859 C48.4374991,24.2611337 48.2408214,24.4355461 48.0181641,24.5988281 C47.7955067,24.7621102 47.5487318,24.9049799 47.277832,25.0274414 C47.0069322,25.149903 46.7082048,25.2463864 46.3816406,25.3168945 C46.0550765,25.3874027 45.702541,25.4226563 45.3240234,25.4226563 C44.7080047,25.4226563 44.1420924,25.3335946 43.6262695,25.1554687 C43.1104466,24.9773429 42.666994,24.7287125 42.2958984,24.4095703 C41.9248028,24.0904281 41.6353526,23.7100608 41.4275391,23.268457 C41.2197255,22.8268533 41.1158203,22.3462917 41.1158203,21.8267578 C41.1158203,20.5576108 41.5889601,19.5760777 42.5352539,18.8821289 C43.4815477,18.1881801 44.8935453,17.8412109 46.7712891,17.8412109 L48.496875,17.8412109 L48.496875,17.1287109 C48.496875,16.5498018 48.3076191,16.0915056 47.9291016,15.7538086 C47.550584,15.4161116 47.0050817,15.2472656 46.2925781,15.2472656 C45.6617156,15.2472656 45.2015639,15.3827135 44.9121094,15.6536133 C44.6226548,15.9245131 44.4779297,16.2863259 44.4779297,16.7390625 L41.3830078,16.7390625 C41.3830078,16.2269506 41.4961903,15.7408226 41.7225586,15.2806641 C41.9489269,14.8205055 42.279197,14.4160174 42.7133789,14.0671875 C43.1475608,13.7183576 43.6782195,13.4418956 44.3053711,13.237793 C44.9325227,13.0336904 45.6505819,12.9316406 46.4595703,12.9316406 C47.1869177,12.9316406 47.864157,13.0207022 48.4913086,13.1988281 C49.1184602,13.376954 49.6621071,13.6404279 50.1222656,13.9892578 C50.5824242,14.3380877 50.9423815,14.7778294 51.2021484,15.3084961 C51.4619154,15.8391628 51.5917969,16.4533168 51.5917969,17.1509766 L51.5917969,22.3166016 C51.5917969,22.9623079 51.6326168,23.4966776 51.7142578,23.9197266 C51.7958988,24.3427756 51.9146477,24.7064438 52.0705078,25.0107422 L52.0705078,25.2 L48.9310547,25.2 Z M45.9808594,23.0291016 C46.2925797,23.0291016 46.5820299,22.9919926 46.8492187,22.9177734 C47.1164076,22.8435543 47.3576161,22.7470709 47.5728516,22.6283203 C47.788087,22.5095697 47.973632,22.3741219 48.1294922,22.2219727 C48.2853523,22.0698235 48.4078121,21.9158211 48.496875,21.7599609 L48.496875,19.6892578 L46.9160156,19.6892578 C46.4335913,19.6892578 46.0216814,19.7356441 45.6802734,19.828418 C45.3388655,19.9211919 45.060548,20.0510734 44.8453125,20.2180664 C44.630077,20.3850594 44.4705083,20.585448 44.3666016,20.8192383 C44.2626948,21.0530285 44.2107422,21.3072252 44.2107422,21.5818359 C44.2107422,21.997463 44.3573228,22.3425768 44.6504883,22.6171875 C44.9436538,22.8917982 45.3871064,23.0291016 45.9808594,23.0291016 Z M55.7332031,8.1 L62.4685547,8.1 L62.4685547,22.6839844 L65.9197266,22.6839844 L65.9197266,25.2 L55.7332031,25.2 L55.7332031,22.6839844 L59.3402344,22.6839844 L59.3402344,10.6271484 L55.7332031,10.6271484 L55.7332031,8.1 Z M69.5935547,13.1542969 L76.1507813,13.1542969 L76.1507813,22.6839844 L79.4126953,22.6839844 L79.4126953,25.2 L69.5935547,25.2 L69.5935547,22.6839844 L73.0224609,22.6839844 L73.0224609,15.6814453 L69.5935547,15.6814453 L69.5935547,13.1542969 Z M72.7998047,10.0705078 C72.7998047,9.83300663 72.84248,9.61220805 72.927832,9.40810547 C73.013184,9.20400289 73.1337883,9.02959057 73.2896484,8.88486328 C73.4455086,8.740136 73.6329091,8.62695353 73.8518555,8.5453125 C74.0708019,8.46367147 74.3138659,8.42285156 74.5810547,8.42285156 C75.1302762,8.42285156 75.566307,8.57685393 75.8891602,8.88486328 C76.2120133,9.19287263 76.3734375,9.58808353 76.3734375,10.0705078 C76.3734375,10.5529321 76.2120133,10.948143 75.8891602,11.2561523 C75.566307,11.5641617 75.1302762,11.7181641 74.5810547,11.7181641 C74.3138659,11.7181641 74.0708019,11.6773442 73.8518555,11.5957031 C73.6329091,11.5140621 73.4455086,11.4008796 73.2896484,11.2561523 C73.1337883,11.1114251 73.013184,10.9370127 72.927832,10.7329102 C72.84248,10.5288076 72.7998047,10.308009 72.7998047,10.0705078 Z M93.3064453,19.2996094 C93.3064453,20.1976607 93.2081065,21.0214806 93.0114258,21.7710937 C92.8147451,22.5207069 92.5197285,23.1664035 92.1263672,23.7082031 C91.7330058,24.2500027 91.243167,24.6711899 90.6568359,24.9717773 C90.0705049,25.2723648 89.3876992,25.4226562 88.6083984,25.4226562 C87.9033168,25.4226562 87.2928737,25.2909193 86.7770508,25.0274414 C86.2612279,24.7639635 85.8177753,24.3947289 85.4466797,23.9197266 L85.3019531,25.2 L82.51875,25.2 L82.51875,8.1 L85.6136719,8.1 L85.6136719,14.2453125 C85.9699237,13.8296854 86.3911109,13.5068371 86.8772461,13.2767578 C87.3633813,13.0466785 87.9330045,12.9316406 88.5861328,12.9316406 C89.3728555,12.9316406 90.0612275,13.0837875 90.6512695,13.3880859 C91.2413115,13.6923843 91.7330058,14.115427 92.1263672,14.6572266 C92.5197285,15.1990261 92.8147451,15.8465783 93.0114258,16.5999023 C93.2081065,17.3532264 93.3064453,18.1751909 93.3064453,19.0658203 L93.3064453,19.2996094 Z M90.2115234,19.0658203 C90.2115234,18.5759741 90.1744144,18.1121116 90.1001953,17.6742188 C90.0259762,17.2363259 89.8979501,16.8522477 89.7161133,16.5219727 C89.5342764,16.1916976 89.2875016,15.9300791 88.9757813,15.7371094 C88.6640609,15.5441397 88.2744164,15.4476563 87.8068359,15.4476563 C87.2427706,15.4476563 86.7844744,15.5664051 86.4319336,15.8039063 C86.0793928,16.0414074 85.8066416,16.3679667 85.6136719,16.7835938 L85.6136719,21.5818359 C85.8066416,21.997463 86.0793928,22.3240222 86.4319336,22.5615234 C86.7844744,22.7990246 87.2501924,22.9177734 87.8291016,22.9177734 C88.296682,22.9177734 88.6826157,22.8268564 88.9869141,22.6450195 C89.2912125,22.4631827 89.5342764,22.2108415 89.7161133,21.8879883 C89.8979501,21.5651351 90.0259762,21.1829124 90.1001953,20.7413086 C90.1744144,20.2997048 90.2115234,19.8191432 90.2115234,19.2996094 L90.2115234,19.0658203 Z M103.81582,23.5078125 C103.407615,24.1089874 102.915921,24.5802717 102.340723,24.9216797 C101.765524,25.2630876 101.136527,25.4337891 100.453711,25.4337891 C99.8302703,25.4337891 99.2587917,25.3373057 98.7392578,25.1443359 C98.219724,24.9513662 97.7744159,24.6452169 97.4033203,24.2258789 C97.0322247,23.8065409 96.7446299,23.2721712 96.5405273,22.6227539 C96.3364248,21.9733366 96.234375,21.1921921 96.234375,20.2792969 L96.234375,13.1542969 L99.3292969,13.1542969 L99.3292969,20.3015625 C99.3292969,20.7914087 99.3645504,21.2033186 99.4350586,21.5373047 C99.5055668,21.8712907 99.6187492,22.140331 99.7746094,22.3444336 C99.9304695,22.5485362 100.134569,22.6951167 100.386914,22.7841797 C100.639259,22.8732426 100.947264,22.9177734 101.310937,22.9177734 C101.926956,22.9177734 102.427928,22.8008801 102.813867,22.5670898 C103.199807,22.3332996 103.492968,22.0123067 103.693359,21.6041016 L103.693359,13.1542969 L106.799414,13.1542969 L106.799414,25.2 L103.993945,25.2 L103.81582,23.5078125 Z M118.466602,12.9316406 C118.934182,12.9316406 119.366502,12.9631833 119.763574,13.0262695 C120.160647,13.0893558 120.481639,13.1580074 120.726563,13.2322266 L120.270117,16.3160156 C119.861912,16.2195308 119.444436,16.1471682 119.017676,16.0989258 C118.590916,16.0506834 118.184572,16.0265625 117.798633,16.0265625 C116.930269,16.0265625 116.234475,16.193553 115.71123,16.5275391 C115.187986,16.8615251 114.796486,17.3402313 114.536719,17.9636719 L114.536719,25.2 L111.441797,25.2 L111.441797,13.1542969 L114.325195,13.1542969 L114.469922,15.1248047 C114.959768,14.4419888 115.54609,13.9057637 116.228906,13.5161133 C116.911722,13.1264629 117.657613,12.9316406 118.466602,12.9316406 Z M133.729687,27.6158203 L123.576562,27.6158203 L123.576562,25.2 L133.729687,25.2 L133.729687,27.6158203 Z" id="Excalibur_" fill="#FFFFFF"></path>
                    <path d="M133.751953,11.0625 L130.679297,11.0625 L130.074609,13.2 L127.993359,13.2 L131.347266,2.9625 L133.140234,2.9625 L136.430859,13.2 L134.349609,13.2 L133.751953,11.0625 Z M131.164453,9.38203125 L133.287891,9.38203125 L132.240234,5.61328125 L131.164453,9.38203125 Z M137.837109,2.4 L142.091016,2.4 L142.091016,11.6109375 L144.270703,11.6109375 L144.270703,13.2 L137.837109,13.2 L137.837109,11.6109375 L140.115234,11.6109375 L140.115234,3.99609375 L137.837109,3.99609375 L137.837109,2.4 Z M152.905078,9.46640625 C152.905078,10.019534 152.840626,10.5328101 152.711719,11.00625 C152.582812,11.4796899 152.39297,11.8886702 152.142188,12.2332031 C151.891405,12.5777361 151.580861,12.8484365 151.210547,13.0453125 C150.840233,13.2421885 150.416018,13.340625 149.937891,13.340625 C149.530076,13.340625 149.171486,13.2703132 148.862109,13.1296875 C148.552733,12.9890618 148.283204,12.7921888 148.053516,12.5390625 L148.053516,16.125 L146.098828,16.125 L146.098828,5.5921875 L147.905859,5.5921875 L147.976172,6.3375 C148.210548,6.05624859 148.487108,5.83828202 148.805859,5.68359375 C149.124611,5.52890548 149.497263,5.4515625 149.923828,5.4515625 C150.406643,5.4515625 150.833201,5.5441397 151.203516,5.72929688 C151.57383,5.91445405 151.885546,6.17695143 152.138672,6.51679688 C152.391798,6.85664232 152.582812,7.26445075 152.711719,7.74023438 C152.840626,8.216018 152.905078,8.74218462 152.905078,9.31875 L152.905078,9.46640625 Z M150.950391,9.31875 C150.950391,8.99999841 150.921094,8.70117327 150.8625,8.42226562 C150.803906,8.14335798 150.712501,7.90195414 150.588281,7.69804687 C150.464062,7.49413961 150.304688,7.33359434 150.110156,7.21640625 C149.915624,7.09921816 149.68008,7.040625 149.403516,7.040625 C149.061326,7.040625 148.781251,7.10742121 148.563281,7.24101562 C148.345311,7.37461004 148.175391,7.56328003 148.053516,7.80703125 L148.053516,10.9851563 C148.175391,11.2242199 148.345311,11.4152337 148.563281,11.5582031 C148.781251,11.7011726 149.066014,11.7726562 149.417578,11.7726562 C149.694142,11.7726562 149.929687,11.7117194 150.124219,11.5898438 C150.318751,11.4679681 150.476953,11.3015636 150.598828,11.090625 C150.720704,10.8796864 150.809765,10.634767 150.866016,10.3558594 C150.922266,10.0769517 150.950391,9.78047032 150.950391,9.46640625 L150.950391,9.31875 Z M156.666797,6.63984375 C156.919923,6.2695294 157.228123,5.9789073 157.591406,5.76796875 C157.954689,5.5570302 158.361326,5.4515625 158.811328,5.4515625 C159.209768,5.4515625 159.575389,5.51132753 159.908203,5.63085938 C160.241017,5.75039122 160.526952,5.93671748 160.766016,6.18984375 C161.005079,6.44297002 161.191406,6.76757614 161.325,7.16367188 C161.458594,7.55976761 161.525391,8.03671596 161.525391,8.59453125 L161.525391,13.2 L159.570703,13.2 L159.570703,8.58046875 C159.570703,8.30859239 159.536719,8.07421973 159.46875,7.87734375 C159.400781,7.68046777 159.303516,7.52109436 159.176953,7.39921875 C159.05039,7.27734314 158.898048,7.18710967 158.719922,7.12851562 C158.541796,7.06992158 158.340236,7.040625 158.115234,7.040625 C157.787108,7.040625 157.502345,7.09921816 157.260938,7.21640625 C157.01953,7.33359434 156.821485,7.4976552 156.666797,7.70859375 L156.666797,13.2 L154.712109,13.2 L154.712109,2.4 L156.666797,2.4 L156.666797,6.63984375 Z M168.106641,13.2 C168.059765,13.1062495 168.019922,12.9984381 167.987109,12.8765625 C167.954297,12.7546869 167.926172,12.6257819 167.902734,12.4898438 C167.794921,12.6070318 167.670704,12.717187 167.530078,12.8203125 C167.389452,12.923438 167.233595,13.0136715 167.0625,13.0910156 C166.891405,13.1683598 166.702735,13.2292967 166.496484,13.2738281 C166.290233,13.3183596 166.067579,13.340625 165.828516,13.340625 C165.439451,13.340625 165.082033,13.2843756 164.75625,13.171875 C164.430467,13.0593744 164.150392,12.9023448 163.916016,12.7007813 C163.681639,12.4992177 163.498829,12.2589858 163.367578,11.9800781 C163.236327,11.7011705 163.170703,11.3976579 163.170703,11.0695313 C163.170703,10.2679647 163.469528,9.64804907 164.067187,9.20976562 C164.664847,8.77148218 165.556635,8.55234375 166.742578,8.55234375 L167.832422,8.55234375 L167.832422,8.10234375 C167.832422,7.73671692 167.712892,7.44726669 167.473828,7.23398438 C167.234764,7.02070206 166.890237,6.9140625 166.440234,6.9140625 C166.041795,6.9140625 165.751173,6.99960852 165.568359,7.17070313 C165.385546,7.34179773 165.294141,7.57031107 165.294141,7.85625 L163.339453,7.85625 C163.339453,7.53281088 163.410937,7.2257827 163.553906,6.93515625 C163.696876,6.6445298 163.905467,6.3890636 164.179688,6.16875 C164.453908,5.9484364 164.789061,5.77382877 165.185156,5.64492187 C165.581252,5.51601498 166.034763,5.4515625 166.545703,5.4515625 C167.00508,5.4515625 167.432811,5.50781194 167.828906,5.6203125 C168.225002,5.73281306 168.568358,5.89921765 168.858984,6.11953125 C169.149611,6.33984485 169.376952,6.61757645 169.541016,6.95273438 C169.705079,7.2878923 169.787109,7.67577905 169.787109,8.11640625 L169.787109,11.3789062 C169.787109,11.7867208 169.81289,12.1242174 169.864453,12.3914063 C169.916016,12.6585951 169.991015,12.8882803 170.089453,13.0804687 L170.089453,13.2 L168.106641,13.2 Z M166.243359,11.8289063 C166.440235,11.8289063 166.623046,11.805469 166.791797,11.7585938 C166.960548,11.7117185 167.11289,11.6507816 167.248828,11.5757813 C167.384766,11.5007809 167.501953,11.4152349 167.600391,11.3191406 C167.698829,11.2230464 167.776172,11.1257817 167.832422,11.0273438 L167.832422,9.71953125 L166.833984,9.71953125 C166.529295,9.71953125 166.269142,9.74882783 166.053516,9.80742188 C165.83789,9.86601592 165.66211,9.94804635 165.526172,10.0535156 C165.390234,10.1589849 165.289453,10.2855461 165.223828,10.4332031 C165.158203,10.5808601 165.125391,10.7414054 165.125391,10.9148438 C165.125391,11.1773451 165.217968,11.3953116 165.403125,11.56875 C165.588282,11.7421884 165.868358,11.8289063 166.243359,11.8289063 Z" id="Alpha" fill="#EF5777"></path>
                </g>
            </g>
        </g>
    </g>
</svg>