<?xml version="1.0" encoding="UTF-8"?>
<svg width="142px" height="23px" viewBox="0 0 142 23" version="1.1" xmlns="http://www.w3.org/2000/svg" xmlns:xlink="http://www.w3.org/1999/xlink">
    <!-- Generator: Sketch 51.2 (57519) - http://www.bohemiancoding.com/sketch -->
    <title>logo/identity/excaliburIPFS Copy</title>
    <desc>Created with Sketch.</desc>
    <defs></defs>
    <g id="logo/identity/excaliburIPFS-Copy" stroke="none" stroke-width="1" fill="none" fill-rule="evenodd">
        <g id="logo" transform="translate(0.000000, -2.000000)" fill="#121212">
            <path d="M8.51855469,15.0810547 L2.97070312,15.0810547 L2.97070312,18.894043 L9.45556641,18.894043 L9.45556641,21 L0.354492188,21 L0.354492188,7.4921875 L9.42773438,7.4921875 L9.42773438,9.61669922 L2.97070312,9.61669922 L2.97070312,13.0214844 L8.51855469,13.0214844 L8.51855469,15.0810547 Z M16.2929688,14.0976562 L18.5009766,10.9619141 L21.2749023,10.9619141 L17.9072266,15.8881836 L21.3955078,21 L18.6123047,21 L16.3022461,17.7158203 L14.0107422,21 L11.2182617,21 L14.706543,15.8881836 L11.3481445,10.9619141 L14.1220703,10.9619141 L16.2929688,14.0976562 Z M27.5463867,19.1259766 C27.7999687,19.1259766 28.0411772,19.0888676 28.2700195,19.0146484 C28.4988618,18.9404293 28.6998689,18.8352871 28.8730469,18.6992188 C29.0462248,18.5631504 29.180745,18.3992523 29.2766113,18.2075195 C29.3724777,18.0157868 29.4142253,17.80241 29.4018555,17.5673828 L31.8325195,17.5673828 C31.8448894,18.0869167 31.738201,18.5693337 31.5124512,19.0146484 C31.2867013,19.4599632 30.9790059,19.8434229 30.5893555,20.1650391 C30.1997051,20.4866553 29.746666,20.7386872 29.2302246,20.9211426 C28.7137832,21.1035979 28.1679716,21.1948242 27.5927734,21.1948242 C26.8134727,21.1948242 26.1300485,21.0633965 25.5424805,20.8005371 C24.9549124,20.5376777 24.4647643,20.1774111 24.0720215,19.7197266 C23.6792786,19.262042 23.3824066,18.7255076 23.1813965,18.1101074 C22.9803864,17.4947072 22.8798828,16.8344762 22.8798828,16.1293945 L22.8798828,15.8510742 C22.8798828,15.1459926 22.9788402,14.4857615 23.1767578,13.8703613 C23.3746755,13.2549611 23.6715475,12.7184268 24.0673828,12.2607422 C24.4632181,11.8030576 24.9533662,11.4412448 25.5378418,11.175293 C26.1223174,10.9093411 26.8011029,10.7763672 27.5742188,10.7763672 C28.1927114,10.7763672 28.7648086,10.8691397 29.2905273,11.0546875 C29.8162461,11.2402353 30.2692852,11.5015445 30.6496582,11.838623 C31.0300312,12.1757016 31.325357,12.5839006 31.5356445,13.0632324 C31.745932,13.5425642 31.8448894,14.0790986 31.8325195,14.6728516 L29.4018555,14.6728516 C29.4142253,14.4254545 29.3771163,14.1904308 29.2905273,13.9677734 C29.2039384,13.7451161 29.0771493,13.5533862 28.9101562,13.3925781 C28.7431632,13.23177 28.5421561,13.1034347 28.3071289,13.0075684 C28.0721017,12.911702 27.8154311,12.8637695 27.5371094,12.8637695 C27.1289042,12.8637695 26.7918308,12.9472648 26.5258789,13.1142578 C26.2599271,13.2812508 26.0480965,13.5039049 25.8903809,13.7822266 C25.7326652,14.0605483 25.6213382,14.3790672 25.5563965,14.737793 C25.4914548,15.0965187 25.4589844,15.4676088 25.4589844,15.8510742 L25.4589844,16.1293945 C25.4589844,16.5190449 25.4899085,16.8947736 25.5517578,17.2565918 C25.6136071,17.61841 25.7233879,17.936929 25.8811035,18.2121582 C26.0388191,18.4873874 26.2521959,18.7084953 26.5212402,18.8754883 C26.7902845,19.0424813 27.1319966,19.1259766 27.5463867,19.1259766 Z M40.7758789,21 C40.7140296,20.8763015 40.6614585,20.7340503 40.6181641,20.5732422 C40.5748696,20.4124341 40.5377606,20.2423512 40.5068359,20.0629883 C40.3645826,20.2176115 40.2006845,20.362955 40.0151367,20.4990234 C39.8295889,20.6350918 39.6239432,20.7541499 39.3981934,20.8562012 C39.1724435,20.9582525 38.923504,21.0386553 38.6513672,21.0974121 C38.3792304,21.1561689 38.0854508,21.1855469 37.7700195,21.1855469 C37.2566706,21.1855469 36.785077,21.1113289 36.3552246,20.9628906 C35.9253722,20.8144524 35.5558284,20.6072604 35.246582,20.3413086 C34.9373357,20.0753567 34.6961272,19.758384 34.5229492,19.3903809 C34.3497713,19.0223777 34.2631836,18.6219097 34.2631836,18.1889648 C34.2631836,17.1313424 34.6574668,16.3133981 35.4460449,15.7351074 C36.2346231,15.1568168 37.4112877,14.8676758 38.9760742,14.8676758 L40.4140625,14.8676758 L40.4140625,14.2739258 C40.4140625,13.7915015 40.2563492,13.409588 39.940918,13.1281738 C39.6254867,12.8467597 39.1709014,12.7060547 38.5771484,12.7060547 C38.0514297,12.7060547 37.66797,12.8189279 37.4267578,13.0446777 C37.1855457,13.2704276 37.0649414,13.5719382 37.0649414,13.9492188 L34.4858398,13.9492188 C34.4858398,13.5224588 34.5801586,13.1173522 34.7687988,12.7338867 C34.9574391,12.3504213 35.2326642,12.0133478 35.5944824,11.7226562 C35.9563006,11.4319647 36.3985163,11.2015796 36.9211426,11.0314941 C37.4437689,10.8614087 38.0421516,10.7763672 38.7163086,10.7763672 C39.3224314,10.7763672 39.8867975,10.8505852 40.4094238,10.9990234 C40.9320501,11.1474617 41.3850892,11.3670233 41.7685547,11.6577148 C42.1520201,11.9484064 42.4519846,12.3148578 42.668457,12.7570801 C42.8849295,13.1993023 42.9931641,13.7110974 42.9931641,14.2924805 L42.9931641,18.597168 C42.9931641,19.1352566 43.0271806,19.5805646 43.0952148,19.9331055 C43.163249,20.2856463 43.2622064,20.5887032 43.3920898,20.8422852 L43.3920898,21 L40.7758789,21 Z M38.3173828,19.190918 C38.5771497,19.190918 38.8183583,19.1599938 39.0410156,19.0981445 C39.263673,19.0362953 39.4646801,18.9558924 39.644043,18.8569336 C39.8234058,18.7579748 39.9780267,18.6451015 40.1079102,18.5183105 C40.2377936,18.3915195 40.3398434,18.2631842 40.4140625,18.1333008 L40.4140625,16.4077148 L39.0966797,16.4077148 C38.6946594,16.4077148 38.3514012,16.4463701 38.0668945,16.5236816 C37.7823879,16.6009932 37.5504566,16.7092278 37.3710938,16.8483887 C37.1917309,16.9875495 37.0587569,17.15454 36.972168,17.3493652 C36.885579,17.5441904 36.8422852,17.756021 36.8422852,17.9848633 C36.8422852,18.3312192 36.9644356,18.618814 37.2087402,18.8476562 C37.4530448,19.0764985 37.8225887,19.190918 38.3173828,19.190918 Z M46.4443359,6.75 L52.0571289,6.75 L52.0571289,18.9033203 L54.9331055,18.9033203 L54.9331055,21 L46.4443359,21 L46.4443359,18.9033203 L49.4501953,18.9033203 L49.4501953,8.85595703 L46.4443359,8.85595703 L46.4443359,6.75 Z M57.9946289,10.9619141 L63.4589844,10.9619141 L63.4589844,18.9033203 L66.1772461,18.9033203 L66.1772461,21 L57.9946289,21 L57.9946289,18.9033203 L60.8520508,18.9033203 L60.8520508,13.0678711 L57.9946289,13.0678711 L57.9946289,10.9619141 Z M60.6665039,8.39208984 C60.6665039,8.19417219 60.7020667,8.01017338 60.7731934,7.84008789 C60.84432,7.6700024 60.9448236,7.52465881 61.074707,7.40405273 C61.2045905,7.28344666 61.3607576,7.18912794 61.5432129,7.12109375 C61.7256682,7.05305956 61.9282215,7.01904297 62.1508789,7.01904297 C62.6085635,7.01904297 62.9719225,7.14737827 63.2409668,7.40405273 C63.5100111,7.66072719 63.6445312,7.9900696 63.6445312,8.39208984 C63.6445312,8.79411008 63.5100111,9.12345249 63.2409668,9.38012695 C62.9719225,9.63680141 62.6085635,9.76513672 62.1508789,9.76513672 C61.9282215,9.76513672 61.7256682,9.73112013 61.5432129,9.66308594 C61.3607576,9.59505174 61.2045905,9.50073302 61.074707,9.38012695 C60.9448236,9.25952088 60.84432,9.11417728 60.7731934,8.9440918 C60.7020667,8.77400631 60.6665039,8.5900075 60.6665039,8.39208984 Z M77.7553711,16.0830078 C77.7553711,16.831384 77.673422,17.5179005 77.5095215,18.1425781 C77.3456209,18.7672557 77.0997738,19.3053363 76.7719727,19.7568359 C76.4441715,20.2083356 76.0359725,20.5593249 75.5473633,20.8098145 C75.0587541,21.060304 74.4897493,21.1855469 73.840332,21.1855469 C73.252764,21.1855469 72.7440614,21.0757661 72.314209,20.8562012 C71.8843566,20.6366363 71.5148127,20.3289408 71.2055664,19.9331055 L71.0849609,21 L68.765625,21 L68.765625,6.75 L71.3447266,6.75 L71.3447266,11.8710938 C71.641603,11.5247379 71.9925924,11.2556976 72.3977051,11.0639648 C72.8028178,10.8722321 73.2775038,10.7763672 73.8217773,10.7763672 C74.4773796,10.7763672 75.0510229,10.9031563 75.5427246,11.1567383 C76.0344263,11.4103203 76.4441715,11.7628558 76.7719727,12.2143555 C77.0997738,12.6658551 77.3456209,13.2054819 77.5095215,13.833252 C77.673422,14.461022 77.7553711,15.1459924 77.7553711,15.8881836 L77.7553711,16.0830078 Z M75.1762695,15.8881836 C75.1762695,15.4799784 75.1453454,15.0934263 75.0834961,14.7285156 C75.0216468,14.3636049 74.9149584,14.0435398 74.7634277,13.7683105 C74.611897,13.4930813 74.4062513,13.2750659 74.1464844,13.1142578 C73.8867175,12.9534497 73.5620137,12.8730469 73.1723633,12.8730469 C72.7023088,12.8730469 72.3203953,12.9720042 72.0266113,13.1699219 C71.7328273,13.3678395 71.5055347,13.6399722 71.3447266,13.9863281 L71.3447266,17.9848633 C71.5055347,18.3312192 71.7328273,18.6033519 72.0266113,18.8012695 C72.3203953,18.9991872 72.7084937,19.0981445 73.190918,19.0981445 C73.5805684,19.0981445 73.9021797,19.0223803 74.1557617,18.8708496 C74.4093437,18.7193189 74.611897,18.5090345 74.7634277,18.2399902 C74.9149584,17.9709459 75.0216468,17.652427 75.0834961,17.2844238 C75.1453454,16.9164207 75.1762695,16.5159527 75.1762695,16.0830078 L75.1762695,15.8881836 Z M86.5131836,19.5898438 C86.1730126,20.0908228 85.7632674,20.4835598 85.2839355,20.7680664 C84.8046037,21.052573 84.280439,21.1948242 83.7114258,21.1948242 C83.1918919,21.1948242 82.7156597,21.1144214 82.2827148,20.9536133 C81.84977,20.7928052 81.4786799,20.5376808 81.1694336,20.1882324 C80.8601873,19.8387841 80.6205249,19.393476 80.4504395,18.8522949 C80.280354,18.3111138 80.1953125,17.6601601 80.1953125,16.8994141 L80.1953125,10.9619141 L82.7744141,10.9619141 L82.7744141,16.9179688 C82.7744141,17.3261739 82.803792,17.6694322 82.8625488,17.9477539 C82.9213056,18.2260756 83.0156244,18.4502758 83.1455078,18.6203613 C83.2753913,18.7904468 83.4454742,18.9125973 83.6557617,18.9868164 C83.8660492,19.0610355 84.1227198,19.0981445 84.4257812,19.0981445 C84.9391302,19.0981445 85.3566065,19.0007334 85.6782227,18.8059082 C85.9998388,18.611083 86.2441398,18.3435889 86.4111328,18.003418 L86.4111328,10.9619141 L88.9995117,10.9619141 L88.9995117,21 L86.6616211,21 L86.5131836,19.5898438 Z M98.722168,10.7763672 C99.1118184,10.7763672 99.4720849,10.8026527 99.8029785,10.8552246 C100.133872,10.9077965 100.401366,10.9650062 100.605469,11.0268555 L100.225098,13.5966797 C99.8849267,13.5162756 99.5370298,13.4559735 99.1813965,13.4157715 C98.8257632,13.3755695 98.4871435,13.3554688 98.1655273,13.3554688 C97.4418909,13.3554688 96.8620627,13.4946275 96.4260254,13.7729492 C95.9899881,14.0512709 95.6637381,14.4501927 95.4472656,14.9697266 L95.4472656,21 L92.8681641,21 L92.8681641,10.9619141 L95.2709961,10.9619141 L95.3916016,12.6040039 C95.7998067,12.0349906 96.2884086,11.5881364 96.8574219,11.2634277 C97.4264351,10.9387191 98.048011,10.7763672 98.722168,10.7763672 Z M111.441406,23.0131836 L102.980469,23.0131836 L102.980469,21 L111.441406,21 L111.441406,23.0131836 Z" id="Excalibur_"></path>
        </g>
        <g id="IPFS" transform="translate(106.634343, -0.020699)">
            <g id="Group-3">
                <g id="ipfs-logo-vector-ice" fill-rule="nonzero">
                    <g id="Group" transform="translate(0.022781, 0.011440)">
                        <polygon id="Shape" fill="#4A9EA1" points="0.00730001144 8.97688716 5.14511759 11.965214 10.2829352 8.97688716 10.2829352 3.00023346 5.14511759 0.0121400778 0.00730001144 3.00046693"></polygon>
                        <path d="M4.61476596,0.731906615 L0.889674411,2.89858366 C0.897119495,2.96522101 0.897119264,3.03247938 0.889674411,3.0991144 L4.61499771,5.26579144 C4.92910678,5.03230506 5.35758268,5.03230506 5.67169175,5.26579144 L9.39701505,3.09909105 C9.38956996,3.0324537 9.38953126,2.96522802 9.39699187,2.898593 L5.67190032,0.731915953 C5.35779126,0.965402335 4.92929217,0.965402335 4.61515993,0.731915953 L4.61476596,0.731906615 Z M9.75466926,3.69758755 L6.02540627,5.88840467 C6.06906729,6.27919844 5.85481543,6.65301946 5.49704767,6.81032685 L5.50123347,11.1195875 C5.56224071,11.1464101 5.62004289,11.1800218 5.67360644,11.2198366 L9.39892974,9.05318288 C9.35526872,8.66238911 9.56952058,8.28854475 9.92728834,8.13123735 L9.92728834,3.79792996 C9.86628111,3.77110739 9.80844648,3.73749572 9.75488293,3.69768093 L9.75466926,3.69758755 Z M0.535565919,3.72166926 C0.482004692,3.76148405 0.424202506,3.7951284 0.36319295,3.82195097 L0.36319295,8.15525837 C0.720963035,8.31256109 0.935212577,8.68638677 0.891551556,9.07718054 L4.61664311,11.2438576 C4.67020434,11.2040428 4.72804129,11.1703984 4.78904852,11.1435759 L4.78904852,6.81026848 C4.43127844,6.65296576 4.2170289,6.27914008 4.26068992,5.8883463 L0.535598363,3.72157588 L0.535565919,3.72166926 Z" id="Shape" fill="#63D3D7"></path>
                    </g>
                    <g id="Group" transform="translate(0.023175, 0.007938)" fill="#000000">
                        <polygon id="Shape" fill-opacity="0.25098" points="5.14476997 11.968716 10.2825875 8.98038911 10.2825875 3.00373541 5.14476997 5.99206226"></polygon>
                        <polygon id="Shape" fill-opacity="0.039216" points="5.14476997 11.968716 5.14476997 5.99206226 0.00695239185 3.00373541 0.00695239185 8.98038911"></polygon>
                        <polygon id="Shape" fill-opacity="0.13018" points="0.00690604257 3.00373541 5.14472362 5.99206226 10.2825412 3.00373541 5.14472362 0.0154085603"></polygon>
                    </g>
                </g>
                <g id="ipfs-text-vector-white" transform="translate(12.166686, 2.918288)" fill="#121212" fill-rule="nonzero">
                    <polygon id="Shape" points="0.720499542 0.138910506 0.0229428931 0.138910506 0.0229428931 6.10389105 0.720499542 6.10389105"></polygon>
                    <path d="M3.76796464,2.99883268 C3.50029755,2.99883268 2.73785191,2.99066148 2.73785191,2.99066148 L2.73785191,0.768093385 L3.96263161,0.768093385 C4.69263275,0.768093385 5.2198558,1.0540856 5.2198558,1.75680934 C5.2198558,2.35330739 5.11441119,2.99883268 3.76796464,2.99883268 Z M2.73785191,6.10389105 L2.73785191,3.55447471 C3.03796349,3.57898833 3.45974193,3.61167315 3.70307565,3.61167315 C5.45507839,3.61167315 5.9336347,2.85175097 5.9336347,1.74046693 C5.9336347,0.588326848 5.07385557,0.138910506 3.94640936,0.138910506 L2.03218414,0.138910506 L2.03218414,6.10389105 L2.73785191,6.10389105 Z" id="Shape"></path>
                    <polygon id="Shape" points="9.8258154 2.7618677 7.38436713 2.7618677 7.38436713 0.751750973 9.90692664 0.751750973 9.96370451 0.138910506 6.68681048 0.138910506 6.68681048 6.10389105 7.38436713 6.10389105 7.38436713 3.33385214 9.8258154 3.33385214 9.8258154 2.7618677"></polygon>
                    <path d="M10.8037852,5.13151751 C11.3310082,5.39299611 12.0123426,5.58910506 12.7666772,5.58910506 C13.610234,5.58910506 14.0563458,5.21322957 14.0563458,4.40428016 C14.0563458,3.92217899 13.8616789,3.59533074 13.1073444,3.407393 L11.9393425,3.11322957 C11.120119,2.90894942 10.6091182,2.46770428 10.6091182,1.67509728 C10.6091182,0.514785992 11.4688973,0.0163424125 12.7666772,0.0163424125 C13.4885672,0.0163424125 14.1374571,0.196108949 14.5430133,0.449416342 L14.3402352,1.00505837 C14.0239014,0.833463035 13.3993448,0.629182879 12.758566,0.629182879 C11.8176757,0.629182879 11.3228971,0.947859922 11.3228971,1.63424125 C11.3228971,2.1 11.6311198,2.35330739 12.1988985,2.4922179 L13.3101225,2.7618677 C14.194235,2.97431907 14.7620136,3.407393 14.7620136,4.37976654 C14.7620136,5.62178988 13.934679,6.19377432 12.7261215,6.19377432 C11.6960088,6.19377432 10.9578965,5.92412451 10.6010071,5.70350195 L10.8037852,5.13151751 Z" id="Shape"></path>
                </g>
            </g>
        </g>
    </g>
</svg>