<?xml version="1.0" encoding="UTF-8"?>
<svg width="300px" height="49px" viewBox="0 0 300 49" version="1.1" xmlns="http://www.w3.org/2000/svg" xmlns:xlink="http://www.w3.org/1999/xlink">
    <!-- Generator: Sketch 51.2 (57519) - http://www.bohemiancoding.com/sketch -->
    <title>assets/excaliburAlpha</title>
    <desc>Created with Sketch.</desc>
    <defs></defs>
    <g id="assets/excaliburAlpha" stroke="none" stroke-width="1" fill="none" fill-rule="evenodd">
        <g id="logo" transform="translate(0.000000, -0.225352)">
            <path d="M17.9969465,27.8613831 L6.27613336,27.8613831 L6.27613336,35.9169922 L19.9765487,35.9169922 L19.9765487,40.3661972 L0.748927157,40.3661972 L0.748927157,11.8285651 L19.9177487,11.8285651 L19.9177487,16.3169702 L6.27613336,16.3169702 L6.27613336,23.5101783 L17.9969465,23.5101783 L17.9969465,27.8613831 Z M34.421765,25.7837808 L39.0865702,19.1589734 L44.9469768,19.1589734 L37.8321688,29.5665851 L45.2017771,40.3661972 L39.3217705,40.3661972 L34.441365,33.4277894 L29.6001596,40.3661972 L23.7005529,40.3661972 L31.0701612,29.5665851 L23.9749532,19.1589734 L29.8353598,19.1589734 L34.421765,25.7837808 Z M58.1965917,36.4069927 C58.7323283,36.4069927 59.2419237,36.3285934 59.7253934,36.1717925 C60.208863,36.0149915 60.6335259,35.7928602 60.9993948,35.5053917 C61.3652637,35.2179233 61.6494612,34.8716597 61.8519958,34.4665906 C62.0545303,34.0615214 62.1427296,33.6107254 62.1165961,33.114189 L67.2518018,33.114189 C67.2779353,34.2117958 67.0525373,35.2309867 66.5756011,36.1717925 C66.0986648,37.1125982 65.4486039,37.9227244 64.6253989,38.6021952 C63.8021938,39.281666 62.845069,39.814128 61.7539957,40.199597 C60.6629223,40.585066 59.5097992,40.7777976 58.2945918,40.7777976 C56.6481817,40.7777976 55.2043278,40.5001334 53.9629869,39.9447967 C52.721646,39.38946 51.6861218,38.6283334 50.8563834,37.6613941 C50.026645,36.6944549 49.3994506,35.5609316 48.9747813,34.2607903 C48.550112,32.960649 48.3377806,31.5657947 48.3377806,30.0761856 L48.3377806,29.488185 C48.3377806,27.9985758 48.5468454,26.6037216 48.9649813,25.3035803 C49.3831172,24.003439 50.0103116,22.8699157 50.8465834,21.9029765 C51.6828552,20.9360372 52.7183793,20.171644 53.9531869,19.6097739 C55.1879945,19.0479038 56.6220484,18.7669729 58.2553917,18.7669729 C59.5620664,18.7669729 60.7707223,18.9629712 61.8813958,19.3549736 C62.9920693,19.746976 63.9491941,20.2990378 64.752799,21.0111755 C65.5564039,21.7233131 66.1803317,22.5857055 66.6246011,23.5983784 C67.0688705,24.6110512 67.2779353,25.7445745 67.2518018,26.9989822 L62.1165961,26.9989822 C62.1427296,26.4763123 62.0643303,25.9797834 61.8813958,25.5093805 C61.6984613,25.0389776 61.4305971,24.6339146 61.0777949,24.2941791 C60.7249927,23.9544437 60.3003298,23.6833128 59.8037935,23.4807782 C59.3072571,23.2782437 58.7649952,23.1769779 58.1769916,23.1769779 C57.3145864,23.1769779 56.6024593,23.3533763 56.0405892,23.7061785 C55.4787191,24.0589806 55.0311898,24.5293765 54.6979877,25.1173801 C54.3647857,25.7053837 54.1295878,26.378311 53.9923869,27.1361823 C53.8551861,27.8940536 53.7865867,28.6780467 53.7865867,29.488185 L53.7865867,30.0761856 C53.7865867,30.8993907 53.8519195,31.6931836 53.9825869,32.4575883 C54.1132544,33.221993 54.3451857,33.8949203 54.6783877,34.4763906 C55.0115897,35.0578608 55.4623857,35.52499 56.0307892,35.8777921 C56.5991927,36.2305943 57.3211196,36.4069927 58.1965917,36.4069927 Z M86.146223,40.3661972 C86.0155556,40.1048622 85.9044899,39.8043316 85.8130227,39.4645962 C85.7215554,39.1248608 85.6431561,38.7655306 85.5778224,38.386595 C85.2772872,38.7132636 84.9310236,39.0203276 84.5390212,39.307796 C84.1470188,39.5952644 83.712556,39.8467955 83.2356198,40.0623968 C82.7586835,40.2779982 82.2327549,40.4478633 81.657818,40.5719974 C81.0828811,40.6961315 80.46222,40.7581976 79.7958159,40.7581976 C78.7112759,40.7581976 77.7149514,40.601399 76.8068126,40.2877971 C75.8986737,39.9741952 75.1179473,39.5364657 74.4646099,38.9745956 C73.8112726,38.4127255 73.3016771,37.7430648 72.9358082,36.9655934 C72.5699393,36.1881219 72.3870076,35.3420628 72.3870076,34.4273905 C72.3870076,32.1929768 73.2200002,30.4649255 74.8860104,29.2431847 C76.5520206,28.0214439 79.0379319,27.4105826 82.3438188,27.4105826 L85.3818222,27.4105826 L85.3818222,26.1561812 C85.3818222,25.136975 85.0486251,24.3301155 84.3822211,23.7355785 C83.715817,23.1410415 82.7554255,22.8437775 81.5010178,22.8437775 C80.3903444,22.8437775 79.5802182,23.0822421 79.0706151,23.5591783 C78.561012,24.0361146 78.3062142,24.6731089 78.3062142,25.4701805 L72.8574081,25.4701805 C72.8574081,24.5685749 73.056673,23.7127159 73.4552088,22.9025776 C73.8537446,22.0924393 74.4352061,21.3803123 75.1996108,20.7661752 C75.9640154,20.1520381 76.8982738,19.6653091 78.0024139,19.3059735 C79.106554,18.946638 80.3707428,18.7669729 81.7950182,18.7669729 C83.0755593,18.7669729 84.2678821,18.9237715 85.3720222,19.2373735 C86.4761623,19.5509754 87.4332871,20.0148379 88.2434254,20.628975 C89.0535637,21.2431121 89.6872914,22.0173052 90.1446275,22.9515776 C90.6019637,23.88585 90.8306283,24.9671071 90.8306283,26.1953813 L90.8306283,35.2897915 C90.8306283,36.4265984 90.9024943,37.3673901 91.0462285,38.1121947 C91.1899628,38.8569992 91.3990276,39.4972602 91.6734292,40.0329968 L91.6734292,40.3661972 L86.146223,40.3661972 Z M80.9522172,36.5441929 C81.5010206,36.5441929 82.010616,36.4788601 82.4810189,36.3481927 C82.9514218,36.2175252 83.3760847,36.04766 83.7550204,35.8385921 C84.133956,35.6295242 84.4606198,35.3910596 84.7350215,35.1231913 C85.0094231,34.855323 85.2250212,34.5841921 85.3818222,34.3097904 L85.3818222,30.6641863 L82.5986191,30.6641863 C81.7492805,30.6641863 81.024087,30.7458522 80.4230166,30.9091866 C79.8219463,31.0725209 79.3319506,31.3011855 78.953015,31.5951873 C78.5740793,31.8891891 78.2931485,32.241986 78.110214,32.6535885 C77.9272796,33.065191 77.8358137,33.5127204 77.8358137,33.99619 C77.8358137,34.7279278 78.0938781,35.3355225 78.6100146,35.8189921 C79.1261511,36.3024617 79.9068775,36.5441929 80.9522172,36.5441929 Z M98.1218365,10.2605634 L109.97985,10.2605634 L109.97985,35.9365922 L116.055857,35.9365922 L116.055857,40.3661972 L98.1218365,40.3661972 L98.1218365,35.9365922 L104.472244,35.9365922 L104.472244,14.7097684 L98.1218365,14.7097684 L98.1218365,10.2605634 Z M122.523864,19.1589734 L134.068277,19.1589734 L134.068277,35.9365922 L139.811083,35.9365922 L139.811083,40.3661972 L122.523864,40.3661972 L122.523864,35.9365922 L128.560671,35.9365922 L128.560671,23.6081784 L122.523864,23.6081784 L122.523864,19.1589734 Z M128.16867,13.7297673 C128.16867,13.3116314 128.243803,12.9229015 128.39407,12.563566 C128.544338,12.2042304 128.75667,11.8971665 129.031071,11.6423649 C129.305473,11.3875634 129.635403,11.1882985 130.020872,11.0445643 C130.406341,10.90083 130.834271,10.828964 131.304674,10.828964 C132.271613,10.828964 133.039273,11.1000949 133.607676,11.6423649 C134.17608,12.1846349 134.460277,12.8804287 134.460277,13.7297673 C134.460277,14.5791058 134.17608,15.2748996 133.607676,15.8171696 C133.039273,16.3594396 132.271613,16.6305705 131.304674,16.6305705 C130.834271,16.6305705 130.406341,16.5587045 130.020872,16.4149703 C129.635403,16.2712361 129.305473,16.0719712 129.031071,15.8171696 C128.75667,15.5623681 128.544338,15.2553041 128.39407,14.8959686 C128.243803,14.5366331 128.16867,14.1479032 128.16867,13.7297673 Z M164.271911,29.9781855 C164.271911,31.5592619 164.098779,33.009649 163.75251,34.3293904 C163.406241,35.6491318 162.886846,36.7859217 162.194308,37.7397942 C161.501771,38.6936667 160.639379,39.4351935 159.607106,39.9643967 C158.574833,40.4936 157.37271,40.7581976 156.000701,40.7581976 C154.759361,40.7581976 153.684637,40.5262663 152.776498,40.0623968 C151.868359,39.5985273 151.087633,38.9484664 150.434295,38.1121947 L150.179495,40.3661972 L145.279489,40.3661972 L145.279489,10.2605634 L150.728296,10.2605634 L150.728296,21.0797755 C151.355499,20.3480377 152.097026,19.7796428 152.952898,19.3745736 C153.80877,18.9695045 154.811628,18.7669729 155.961501,18.7669729 C157.346577,18.7669729 158.558499,19.0348372 159.597306,19.5705738 C160.636112,20.1063104 161.501771,20.8511038 162.194308,21.8049763 C162.886846,22.7588488 163.406241,23.8989054 163.75251,25.2251802 C164.098779,26.551455 164.271911,27.9985755 164.271911,29.5665851 L164.271911,29.9781855 Z M158.823105,29.5665851 C158.823105,28.7041798 158.757772,27.8875204 158.627104,27.1165823 C158.496437,26.3456443 158.271039,25.6694503 157.950904,25.08798 C157.630768,24.5065098 157.196306,24.0459139 156.647502,23.7061785 C156.098699,23.3664431 155.412705,23.1965779 154.5895,23.1965779 C153.596427,23.1965779 152.789568,23.4056427 152.168897,23.8237786 C151.548227,24.2419145 151.068031,24.8168427 150.728296,25.5485805 L150.728296,33.99619 C151.068031,34.7279278 151.548227,35.3028561 152.168897,35.720992 C152.789568,36.1391279 153.609494,36.3481927 154.6287,36.3481927 C155.451905,36.3481927 156.131366,36.1881274 156.667102,35.8679921 C157.202839,35.5478568 157.630768,35.1035941 157.950904,34.5351906 C158.271039,33.9667872 158.496437,33.2938598 158.627104,32.5163884 C158.757772,31.7389169 158.823105,30.8928578 158.823105,29.9781855 L158.823105,29.5665851 Z M182.774332,37.3869938 C182.05566,38.4454003 181.190001,39.2751263 180.177329,39.8761966 C179.164656,40.477267 178.057266,40.7777976 176.855125,40.7777976 C175.757518,40.7777976 174.751394,40.6079325 173.836722,40.2681971 C172.922049,39.9284617 172.138056,39.3894664 171.484719,38.6511953 C170.831382,37.9129241 170.325053,36.9721324 169.965717,35.8287921 C169.606382,34.6854518 169.426717,33.3101973 169.426717,31.7029875 L169.426717,19.1589734 L174.875523,19.1589734 L174.875523,31.7421875 C174.875523,32.6045928 174.937589,33.3297863 175.061723,33.9177899 C175.185857,34.5057935 175.385122,34.979456 175.659524,35.3387915 C175.933925,35.6981271 176.293255,35.9561914 176.737525,36.1129924 C177.181794,36.2697934 177.724056,36.3481927 178.364327,36.3481927 C179.448867,36.3481927 180.330859,36.1423945 181.01033,35.730792 C181.6898,35.3191895 182.205929,34.7540611 182.558731,34.0353901 L182.558731,19.1589734 L188.027137,19.1589734 L188.027137,40.3661972 L183.087932,40.3661972 L182.774332,37.3869938 Z M208.56796,18.7669729 C209.391166,18.7669729 210.152292,18.8225058 210.851363,18.9335731 C211.550434,19.0446405 212.115562,19.1655061 212.546765,19.2961735 L211.743164,24.7253796 C211.024493,24.5555119 210.2895,24.428113 209.538162,24.3431792 C208.786824,24.2582453 208.07143,24.215779 207.391959,24.215779 C205.86315,24.215779 204.638161,24.5097764 203.716955,25.09778 C202.795749,25.6857836 202.106489,26.5285762 201.649153,27.6261829 L201.649153,40.3661972 L196.200347,40.3661972 L196.200347,19.1589734 L201.276752,19.1589734 L201.531553,22.6281773 C202.393958,21.4260366 203.426215,20.4819783 204.628356,19.7959741 C205.830497,19.1099699 207.143685,18.7669729 208.56796,18.7669729 Z M235.439591,44.619402 L217.564371,44.619402 L217.564371,40.3661972 L235.439591,40.3661972 L235.439591,44.619402 Z" id="Excalibur_" fill="#121212"></path>
            <path d="M235.478791,15.4762324 L230.069185,15.4762324 L229.004594,19.2394366 L225.340421,19.2394366 L231.245186,1.21566901 L234.401821,1.21566901 L240.195175,19.2394366 L236.531002,19.2394366 L235.478791,15.4762324 Z M230.923333,12.5176607 L234.661779,12.5176607 L232.817314,5.88253741 L230.923333,12.5176607 Z M242.670967,0.225352113 L250.160239,0.225352113 L250.160239,16.4417914 L253.997717,16.4417914 L253.997717,19.2394366 L242.670967,19.2394366 L242.670967,16.4417914 L246.681751,16.4417914 L246.681751,3.03537632 L242.670967,3.03537632 L242.670967,0.225352113 Z M269.199081,12.6662082 C269.199081,13.6400247 269.085609,14.5436798 268.85866,15.3772007 C268.631711,16.2107216 268.297482,16.9307573 267.855964,17.5373294 C267.414445,18.1439016 266.867713,18.6204868 266.215752,18.9670995 C265.56379,19.3137121 264.816933,19.4870158 263.97516,19.4870158 C263.257176,19.4870158 262.625855,19.3632275 262.081178,19.115647 C261.536501,18.8680665 261.061979,18.5214591 260.657598,18.0758143 L260.657598,24.3890845 L257.216247,24.3890845 L257.216247,5.84540053 L260.39764,5.84540053 L260.521429,7.15757042 C260.934063,6.6624095 261.420964,6.27866553 261.982147,6.00632702 C262.543329,5.73398852 263.199408,5.5978213 263.950402,5.5978213 C264.800428,5.5978213 265.551411,5.76080933 266.203373,6.08679027 C266.855334,6.41277122 267.40413,6.87491448 267.849774,7.47323393 C268.295419,8.07155339 268.631711,8.78952596 268.85866,9.6271732 C269.085609,10.4648204 269.199081,11.3911701 269.199081,12.40625 L269.199081,12.6662082 Z M265.75773,12.40625 C265.75773,11.8450676 265.706151,11.318967 265.602993,10.8279324 C265.499834,10.3368979 265.33891,9.9118911 265.120213,9.55289943 C264.901517,9.19390776 264.62093,8.91125763 264.278444,8.70494058 C263.935958,8.49862353 263.521267,8.39546655 263.034358,8.39546655 C262.431913,8.39546655 261.938822,8.51306551 261.555073,8.74826695 C261.171323,8.98346839 260.872168,9.31563386 260.657598,9.74477333 L260.657598,15.3400638 C260.872168,15.7609506 261.171323,16.0972424 261.555073,16.3489492 C261.938822,16.600656 262.440165,16.7265075 263.059116,16.7265075 C263.546025,16.7265075 263.960716,16.6192242 264.303202,16.4046545 C264.645688,16.1900848 264.924212,15.8971189 265.138782,15.5257482 C265.353352,15.1543775 265.51015,14.7231814 265.609182,14.2321468 C265.708215,13.7411122 265.75773,13.2191379 265.75773,12.6662082 L265.75773,12.40625 Z M275.821825,7.68986576 C276.26747,7.03790387 276.810076,6.52624525 277.449659,6.15487456 C278.089242,5.78350386 278.805151,5.5978213 279.597409,5.5978213 C280.298887,5.5978213 280.942586,5.70304142 281.528527,5.91348482 C282.114467,6.12392821 282.617873,6.4519674 283.03876,6.89761224 C283.459647,7.34325707 283.787686,7.91474673 284.022887,8.61209837 C284.258089,9.30945001 284.375688,10.1491478 284.375688,11.131217 L284.375688,19.2394366 L280.934336,19.2394366 L280.934336,11.1064591 C280.934336,10.6278035 280.874505,10.2151756 280.754842,9.86856294 C280.635178,9.52195029 280.463937,9.24136331 280.241115,9.02679357 C280.018292,8.81222384 279.750084,8.65336209 279.436482,8.55020357 C279.12288,8.44704504 278.76802,8.39546655 278.371892,8.39546655 C277.794204,8.39546655 277.292861,8.49862353 276.867848,8.70494058 C276.442835,8.91125763 276.094164,9.20009717 275.821825,9.57146787 L275.821825,19.2394366 L272.380474,19.2394366 L272.380474,0.225352113 L275.821825,0.225352113 L275.821825,7.68986576 Z M295.962395,19.2394366 C295.879869,19.074383 295.809722,18.8845741 295.751953,18.6700044 C295.694184,18.4554347 295.644669,18.2284893 295.603406,17.9891615 C295.413594,18.1954786 295.194901,18.3894137 294.947321,18.5709727 C294.69974,18.7525317 294.425343,18.9113935 294.12412,19.0475627 C293.822897,19.183732 293.490731,19.2910152 293.127613,19.3694157 C292.764495,19.4478162 292.372499,19.4870158 291.951612,19.4870158 C291.266639,19.4870158 290.637382,19.3879851 290.06382,19.1899208 C289.490259,18.9918564 288.997169,18.7153957 288.584535,18.3605304 C288.1719,18.005665 287.850051,17.5827214 287.618976,17.0916868 C287.3879,16.6006523 287.272365,16.0662991 287.272365,15.4886114 C287.272365,14.0774027 287.798465,12.9860019 288.850682,12.2143761 C289.902899,11.4427503 291.472948,11.0569432 293.560877,11.0569432 L295.479616,11.0569432 L295.479616,10.2646897 C295.479616,9.6209805 295.269176,9.11138502 294.848289,8.73588798 C294.427402,8.36039095 293.820839,8.17264525 293.028582,8.17264525 C292.327104,8.17264525 291.815445,8.32325444 291.49359,8.62447733 C291.171736,8.92570023 291.010811,9.32801245 291.010811,9.83142606 L287.56946,9.83142606 C287.56946,9.26199099 287.695311,8.72144842 287.947018,8.20978213 C288.198725,7.69811584 288.565964,7.24835141 289.048746,6.86047535 C289.531528,6.47259929 290.121585,6.1651915 290.818937,5.93824274 C291.516289,5.71129398 292.314724,5.5978213 293.214266,5.5978213 C294.023029,5.5978213 294.776075,5.696852 295.473426,5.89491637 C296.170778,6.09298074 296.775278,6.38594656 297.286944,6.77382262 C297.798611,7.16169868 298.19886,7.65066276 298.487704,8.24072953 C298.776547,8.8307963 298.920967,9.51369551 298.920967,10.2894476 L298.920967,16.0332857 C298.920967,16.751269 298.966356,17.3454532 299.057136,17.8158561 C299.147915,18.286259 299.279956,18.6906343 299.453263,19.0289943 L299.453263,19.2394366 L295.962395,19.2394366 Z M292.681971,16.8255392 C293.028583,16.8255392 293.350433,16.7842764 293.64753,16.7017496 C293.944626,16.6192227 294.212834,16.5119395 294.452162,16.3798966 C294.69149,16.2478537 294.897804,16.0972445 295.07111,15.9280645 C295.244417,15.7588845 295.380584,15.5876439 295.479616,15.4143376 L295.479616,13.1118508 L293.721803,13.1118508 C293.185379,13.1118508 292.727362,13.1634293 292.347739,13.2665878 C291.968115,13.3697463 291.658644,13.5141661 291.419317,13.6998515 C291.179989,13.8855368 291.002559,14.1083559 290.887021,14.3683154 C290.771484,14.6282748 290.713716,14.910925 290.713716,15.2162742 C290.713716,15.6784244 290.876704,16.0621684 291.202685,16.3675176 C291.528666,16.6728668 292.021756,16.8255392 292.681971,16.8255392 Z" id="Alpha" fill="#EF5777"></path>
        </g>
    </g>
</svg>