<?xml version="1.0" encoding="UTF-8"?>
<svg width="300px" height="49px" viewBox="0 0 300 49" version="1.1" xmlns="http://www.w3.org/2000/svg" xmlns:xlink="http://www.w3.org/1999/xlink">
    <!-- Generator: Sketch 51.2 (57519) - http://www.bohemiancoding.com/sketch -->
    <title>logo/identity/excalibur1 copy 2</title>
    <desc>Created with Sketch.</desc>
    <defs></defs>
    <g id="logo/identity/excalibur1-copy-2" stroke="none" stroke-width="1" fill="none" fill-rule="evenodd">
        <g id="logo" transform="translate(0.000000, -4.225352)">
            <path d="M17.9969465,31.8613831 L6.27613336,31.8613831 L6.27613336,39.9169922 L19.9765487,39.9169922 L19.9765487,44.3661972 L0.748927157,44.3661972 L0.748927157,15.8285651 L19.9177487,15.8285651 L19.9177487,20.3169702 L6.27613336,20.3169702 L6.27613336,27.5101783 L17.9969465,27.5101783 L17.9969465,31.8613831 Z M34.421765,29.7837808 L39.0865702,23.1589734 L44.9469768,23.1589734 L37.8321688,33.5665851 L45.2017771,44.3661972 L39.3217705,44.3661972 L34.441365,37.4277894 L29.6001596,44.3661972 L23.7005529,44.3661972 L31.0701612,33.5665851 L23.9749532,23.1589734 L29.8353598,23.1589734 L34.421765,29.7837808 Z M58.1965917,40.4069927 C58.7323283,40.4069927 59.2419237,40.3285934 59.7253934,40.1717925 C60.208863,40.0149915 60.6335259,39.7928602 60.9993948,39.5053917 C61.3652637,39.2179233 61.6494612,38.8716597 61.8519958,38.4665906 C62.0545303,38.0615214 62.1427296,37.6107254 62.1165961,37.114189 L67.2518018,37.114189 C67.2779353,38.2117958 67.0525373,39.2309867 66.5756011,40.1717925 C66.0986648,41.1125982 65.4486039,41.9227244 64.6253989,42.6021952 C63.8021938,43.281666 62.845069,43.814128 61.7539957,44.199597 C60.6629223,44.585066 59.5097992,44.7777976 58.2945918,44.7777976 C56.6481817,44.7777976 55.2043278,44.5001334 53.9629869,43.9447967 C52.721646,43.38946 51.6861218,42.6283334 50.8563834,41.6613941 C50.026645,40.6944549 49.3994506,39.5609316 48.9747813,38.2607903 C48.550112,36.960649 48.3377806,35.5657947 48.3377806,34.0761856 L48.3377806,33.488185 C48.3377806,31.9985758 48.5468454,30.6037216 48.9649813,29.3035803 C49.3831172,28.003439 50.0103116,26.8699157 50.8465834,25.9029765 C51.6828552,24.9360372 52.7183793,24.171644 53.9531869,23.6097739 C55.1879945,23.0479038 56.6220484,22.7669729 58.2553917,22.7669729 C59.5620664,22.7669729 60.7707223,22.9629712 61.8813958,23.3549736 C62.9920693,23.746976 63.9491941,24.2990378 64.752799,25.0111755 C65.5564039,25.7233131 66.1803317,26.5857055 66.6246011,27.5983784 C67.0688705,28.6110512 67.2779353,29.7445745 67.2518018,30.9989822 L62.1165961,30.9989822 C62.1427296,30.4763123 62.0643303,29.9797834 61.8813958,29.5093805 C61.6984613,29.0389776 61.4305971,28.6339146 61.0777949,28.2941791 C60.7249927,27.9544437 60.3003298,27.6833128 59.8037935,27.4807782 C59.3072571,27.2782437 58.7649952,27.1769779 58.1769916,27.1769779 C57.3145864,27.1769779 56.6024593,27.3533763 56.0405892,27.7061785 C55.4787191,28.0589806 55.0311898,28.5293765 54.6979877,29.1173801 C54.3647857,29.7053837 54.1295878,30.378311 53.9923869,31.1361823 C53.8551861,31.8940536 53.7865867,32.6780467 53.7865867,33.488185 L53.7865867,34.0761856 C53.7865867,34.8993907 53.8519195,35.6931836 53.9825869,36.4575883 C54.1132544,37.221993 54.3451857,37.8949203 54.6783877,38.4763906 C55.0115897,39.0578608 55.4623857,39.52499 56.0307892,39.8777921 C56.5991927,40.2305943 57.3211196,40.4069927 58.1965917,40.4069927 Z M86.146223,44.3661972 C86.0155556,44.1048622 85.9044899,43.8043316 85.8130227,43.4645962 C85.7215554,43.1248608 85.6431561,42.7655306 85.5778224,42.386595 C85.2772872,42.7132636 84.9310236,43.0203276 84.5390212,43.307796 C84.1470188,43.5952644 83.712556,43.8467955 83.2356198,44.0623968 C82.7586835,44.2779982 82.2327549,44.4478633 81.657818,44.5719974 C81.0828811,44.6961315 80.46222,44.7581976 79.7958159,44.7581976 C78.7112759,44.7581976 77.7149514,44.601399 76.8068126,44.2877971 C75.8986737,43.9741952 75.1179473,43.5364657 74.4646099,42.9745956 C73.8112726,42.4127255 73.3016771,41.7430648 72.9358082,40.9655934 C72.5699393,40.1881219 72.3870076,39.3420628 72.3870076,38.4273905 C72.3870076,36.1929768 73.2200002,34.4649255 74.8860104,33.2431847 C76.5520206,32.0214439 79.0379319,31.4105826 82.3438188,31.4105826 L85.3818222,31.4105826 L85.3818222,30.1561812 C85.3818222,29.136975 85.0486251,28.3301155 84.3822211,27.7355785 C83.715817,27.1410415 82.7554255,26.8437775 81.5010178,26.8437775 C80.3903444,26.8437775 79.5802182,27.0822421 79.0706151,27.5591783 C78.561012,28.0361146 78.3062142,28.6731089 78.3062142,29.4701805 L72.8574081,29.4701805 C72.8574081,28.5685749 73.056673,27.7127159 73.4552088,26.9025776 C73.8537446,26.0924393 74.4352061,25.3803123 75.1996108,24.7661752 C75.9640154,24.1520381 76.8982738,23.6653091 78.0024139,23.3059735 C79.106554,22.946638 80.3707428,22.7669729 81.7950182,22.7669729 C83.0755593,22.7669729 84.2678821,22.9237715 85.3720222,23.2373735 C86.4761623,23.5509754 87.4332871,24.0148379 88.2434254,24.628975 C89.0535637,25.2431121 89.6872914,26.0173052 90.1446275,26.9515776 C90.6019637,27.88585 90.8306283,28.9671071 90.8306283,30.1953813 L90.8306283,39.2897915 C90.8306283,40.4265984 90.9024943,41.3673901 91.0462285,42.1121947 C91.1899628,42.8569992 91.3990276,43.4972602 91.6734292,44.0329968 L91.6734292,44.3661972 L86.146223,44.3661972 Z M80.9522172,40.5441929 C81.5010206,40.5441929 82.010616,40.4788601 82.4810189,40.3481927 C82.9514218,40.2175252 83.3760847,40.04766 83.7550204,39.8385921 C84.133956,39.6295242 84.4606198,39.3910596 84.7350215,39.1231913 C85.0094231,38.855323 85.2250212,38.5841921 85.3818222,38.3097904 L85.3818222,34.6641863 L82.5986191,34.6641863 C81.7492805,34.6641863 81.024087,34.7458522 80.4230166,34.9091866 C79.8219463,35.0725209 79.3319506,35.3011855 78.953015,35.5951873 C78.5740793,35.8891891 78.2931485,36.241986 78.110214,36.6535885 C77.9272796,37.065191 77.8358137,37.5127204 77.8358137,37.99619 C77.8358137,38.7279278 78.0938781,39.3355225 78.6100146,39.8189921 C79.1261511,40.3024617 79.9068775,40.5441929 80.9522172,40.5441929 Z M98.1218365,14.2605634 L109.97985,14.2605634 L109.97985,39.9365922 L116.055857,39.9365922 L116.055857,44.3661972 L98.1218365,44.3661972 L98.1218365,39.9365922 L104.472244,39.9365922 L104.472244,18.7097684 L98.1218365,18.7097684 L98.1218365,14.2605634 Z M122.523864,23.1589734 L134.068277,23.1589734 L134.068277,39.9365922 L139.811083,39.9365922 L139.811083,44.3661972 L122.523864,44.3661972 L122.523864,39.9365922 L128.560671,39.9365922 L128.560671,27.6081784 L122.523864,27.6081784 L122.523864,23.1589734 Z M128.16867,17.7297673 C128.16867,17.3116314 128.243803,16.9229015 128.39407,16.563566 C128.544338,16.2042304 128.75667,15.8971665 129.031071,15.6423649 C129.305473,15.3875634 129.635403,15.1882985 130.020872,15.0445643 C130.406341,14.90083 130.834271,14.828964 131.304674,14.828964 C132.271613,14.828964 133.039273,15.1000949 133.607676,15.6423649 C134.17608,16.1846349 134.460277,16.8804287 134.460277,17.7297673 C134.460277,18.5791058 134.17608,19.2748996 133.607676,19.8171696 C133.039273,20.3594396 132.271613,20.6305705 131.304674,20.6305705 C130.834271,20.6305705 130.406341,20.5587045 130.020872,20.4149703 C129.635403,20.2712361 129.305473,20.0719712 129.031071,19.8171696 C128.75667,19.5623681 128.544338,19.2553041 128.39407,18.8959686 C128.243803,18.5366331 128.16867,18.1479032 128.16867,17.7297673 Z M164.271911,33.9781855 C164.271911,35.5592619 164.098779,37.009649 163.75251,38.3293904 C163.406241,39.6491318 162.886846,40.7859217 162.194308,41.7397942 C161.501771,42.6936667 160.639379,43.4351935 159.607106,43.9643967 C158.574833,44.4936 157.37271,44.7581976 156.000701,44.7581976 C154.759361,44.7581976 153.684637,44.5262663 152.776498,44.0623968 C151.868359,43.5985273 151.087633,42.9484664 150.434295,42.1121947 L150.179495,44.3661972 L145.279489,44.3661972 L145.279489,14.2605634 L150.728296,14.2605634 L150.728296,25.0797755 C151.355499,24.3480377 152.097026,23.7796428 152.952898,23.3745736 C153.80877,22.9695045 154.811628,22.7669729 155.961501,22.7669729 C157.346577,22.7669729 158.558499,23.0348372 159.597306,23.5705738 C160.636112,24.1063104 161.501771,24.8511038 162.194308,25.8049763 C162.886846,26.7588488 163.406241,27.8989054 163.75251,29.2251802 C164.098779,30.551455 164.271911,31.9985755 164.271911,33.5665851 L164.271911,33.9781855 Z M158.823105,33.5665851 C158.823105,32.7041798 158.757772,31.8875204 158.627104,31.1165823 C158.496437,30.3456443 158.271039,29.6694503 157.950904,29.08798 C157.630768,28.5065098 157.196306,28.0459139 156.647502,27.7061785 C156.098699,27.3664431 155.412705,27.1965779 154.5895,27.1965779 C153.596427,27.1965779 152.789568,27.4056427 152.168897,27.8237786 C151.548227,28.2419145 151.068031,28.8168427 150.728296,29.5485805 L150.728296,37.99619 C151.068031,38.7279278 151.548227,39.3028561 152.168897,39.720992 C152.789568,40.1391279 153.609494,40.3481927 154.6287,40.3481927 C155.451905,40.3481927 156.131366,40.1881274 156.667102,39.8679921 C157.202839,39.5478568 157.630768,39.1035941 157.950904,38.5351906 C158.271039,37.9667872 158.496437,37.2938598 158.627104,36.5163884 C158.757772,35.7389169 158.823105,34.8928578 158.823105,33.9781855 L158.823105,33.5665851 Z M182.774332,41.3869938 C182.05566,42.4454003 181.190001,43.2751263 180.177329,43.8761966 C179.164656,44.477267 178.057266,44.7777976 176.855125,44.7777976 C175.757518,44.7777976 174.751394,44.6079325 173.836722,44.2681971 C172.922049,43.9284617 172.138056,43.3894664 171.484719,42.6511953 C170.831382,41.9129241 170.325053,40.9721324 169.965717,39.8287921 C169.606382,38.6854518 169.426717,37.3101973 169.426717,35.7029875 L169.426717,23.1589734 L174.875523,23.1589734 L174.875523,35.7421875 C174.875523,36.6045928 174.937589,37.3297863 175.061723,37.9177899 C175.185857,38.5057935 175.385122,38.979456 175.659524,39.3387915 C175.933925,39.6981271 176.293255,39.9561914 176.737525,40.1129924 C177.181794,40.2697934 177.724056,40.3481927 178.364327,40.3481927 C179.448867,40.3481927 180.330859,40.1423945 181.01033,39.730792 C181.6898,39.3191895 182.205929,38.7540611 182.558731,38.0353901 L182.558731,23.1589734 L188.027137,23.1589734 L188.027137,44.3661972 L183.087932,44.3661972 L182.774332,41.3869938 Z M208.56796,22.7669729 C209.391166,22.7669729 210.152292,22.8225058 210.851363,22.9335731 C211.550434,23.0446405 212.115562,23.1655061 212.546765,23.2961735 L211.743164,28.7253796 C211.024493,28.5555119 210.2895,28.428113 209.538162,28.3431792 C208.786824,28.2582453 208.07143,28.215779 207.391959,28.215779 C205.86315,28.215779 204.638161,28.5097764 203.716955,29.09778 C202.795749,29.6857836 202.106489,30.5285762 201.649153,31.6261829 L201.649153,44.3661972 L196.200347,44.3661972 L196.200347,23.1589734 L201.276752,23.1589734 L201.531553,26.6281773 C202.393958,25.4260366 203.426215,24.4819783 204.628356,23.7959741 C205.830497,23.1099699 207.143685,22.7669729 208.56796,22.7669729 Z M235.439591,48.619402 L217.564371,48.619402 L217.564371,44.3661972 L235.439591,44.3661972 L235.439591,48.619402 Z" id="Excalibur_" fill="#121212"></path>
            <path d="M235.478791,19.4762324 L230.069185,19.4762324 L229.004594,23.2394366 L225.340421,23.2394366 L231.245186,5.21566901 L234.401821,5.21566901 L240.195175,23.2394366 L236.531002,23.2394366 L235.478791,19.4762324 Z M230.923333,16.5176607 L234.661779,16.5176607 L232.817314,9.88253741 L230.923333,16.5176607 Z M242.670967,4.22535211 L250.160239,4.22535211 L250.160239,20.4417914 L253.997717,20.4417914 L253.997717,23.2394366 L242.670967,23.2394366 L242.670967,20.4417914 L246.681751,20.4417914 L246.681751,7.03537632 L242.670967,7.03537632 L242.670967,4.22535211 Z M269.199081,16.6662082 C269.199081,17.6400247 269.085609,18.5436798 268.85866,19.3772007 C268.631711,20.2107216 268.297482,20.9307573 267.855964,21.5373294 C267.414445,22.1439016 266.867713,22.6204868 266.215752,22.9670995 C265.56379,23.3137121 264.816933,23.4870158 263.97516,23.4870158 C263.257176,23.4870158 262.625855,23.3632275 262.081178,23.115647 C261.536501,22.8680665 261.061979,22.5214591 260.657598,22.0758143 L260.657598,28.3890845 L257.216247,28.3890845 L257.216247,9.84540053 L260.39764,9.84540053 L260.521429,11.1575704 C260.934063,10.6624095 261.420964,10.2786655 261.982147,10.006327 C262.543329,9.73398852 263.199408,9.5978213 263.950402,9.5978213 C264.800428,9.5978213 265.551411,9.76080933 266.203373,10.0867903 C266.855334,10.4127712 267.40413,10.8749145 267.849774,11.4732339 C268.295419,12.0715534 268.631711,12.789526 268.85866,13.6271732 C269.085609,14.4648204 269.199081,15.3911701 269.199081,16.40625 L269.199081,16.6662082 Z M265.75773,16.40625 C265.75773,15.8450676 265.706151,15.318967 265.602993,14.8279324 C265.499834,14.3368979 265.33891,13.9118911 265.120213,13.5528994 C264.901517,13.1939078 264.62093,12.9112576 264.278444,12.7049406 C263.935958,12.4986235 263.521267,12.3954665 263.034358,12.3954665 C262.431913,12.3954665 261.938822,12.5130655 261.555073,12.7482669 C261.171323,12.9834684 260.872168,13.3156339 260.657598,13.7447733 L260.657598,19.3400638 C260.872168,19.7609506 261.171323,20.0972424 261.555073,20.3489492 C261.938822,20.600656 262.440165,20.7265075 263.059116,20.7265075 C263.546025,20.7265075 263.960716,20.6192242 264.303202,20.4046545 C264.645688,20.1900848 264.924212,19.8971189 265.138782,19.5257482 C265.353352,19.1543775 265.51015,18.7231814 265.609182,18.2321468 C265.708215,17.7411122 265.75773,17.2191379 265.75773,16.6662082 L265.75773,16.40625 Z M275.821825,11.6898658 C276.26747,11.0379039 276.810076,10.5262453 277.449659,10.1548746 C278.089242,9.78350386 278.805151,9.5978213 279.597409,9.5978213 C280.298887,9.5978213 280.942586,9.70304142 281.528527,9.91348482 C282.114467,10.1239282 282.617873,10.4519674 283.03876,10.8976122 C283.459647,11.3432571 283.787686,11.9147467 284.022887,12.6120984 C284.258089,13.30945 284.375688,14.1491478 284.375688,15.131217 L284.375688,23.2394366 L280.934336,23.2394366 L280.934336,15.1064591 C280.934336,14.6278035 280.874505,14.2151756 280.754842,13.8685629 C280.635178,13.5219503 280.463937,13.2413633 280.241115,13.0267936 C280.018292,12.8122238 279.750084,12.6533621 279.436482,12.5502036 C279.12288,12.447045 278.76802,12.3954665 278.371892,12.3954665 C277.794204,12.3954665 277.292861,12.4986235 276.867848,12.7049406 C276.442835,12.9112576 276.094164,13.2000972 275.821825,13.5714679 L275.821825,23.2394366 L272.380474,23.2394366 L272.380474,4.22535211 L275.821825,4.22535211 L275.821825,11.6898658 Z M295.962395,23.2394366 C295.879869,23.074383 295.809722,22.8845741 295.751953,22.6700044 C295.694184,22.4554347 295.644669,22.2284893 295.603406,21.9891615 C295.413594,22.1954786 295.194901,22.3894137 294.947321,22.5709727 C294.69974,22.7525317 294.425343,22.9113935 294.12412,23.0475627 C293.822897,23.183732 293.490731,23.2910152 293.127613,23.3694157 C292.764495,23.4478162 292.372499,23.4870158 291.951612,23.4870158 C291.266639,23.4870158 290.637382,23.3879851 290.06382,23.1899208 C289.490259,22.9918564 288.997169,22.7153957 288.584535,22.3605304 C288.1719,22.005665 287.850051,21.5827214 287.618976,21.0916868 C287.3879,20.6006523 287.272365,20.0662991 287.272365,19.4886114 C287.272365,18.0774027 287.798465,16.9860019 288.850682,16.2143761 C289.902899,15.4427503 291.472948,15.0569432 293.560877,15.0569432 L295.479616,15.0569432 L295.479616,14.2646897 C295.479616,13.6209805 295.269176,13.111385 294.848289,12.735888 C294.427402,12.3603909 293.820839,12.1726452 293.028582,12.1726452 C292.327104,12.1726452 291.815445,12.3232544 291.49359,12.6244773 C291.171736,12.9257002 291.010811,13.3280124 291.010811,13.8314261 L287.56946,13.8314261 C287.56946,13.261991 287.695311,12.7214484 287.947018,12.2097821 C288.198725,11.6981158 288.565964,11.2483514 289.048746,10.8604754 C289.531528,10.4725993 290.121585,10.1651915 290.818937,9.93824274 C291.516289,9.71129398 292.314724,9.5978213 293.214266,9.5978213 C294.023029,9.5978213 294.776075,9.696852 295.473426,9.89491637 C296.170778,10.0929807 296.775278,10.3859466 297.286944,10.7738226 C297.798611,11.1616987 298.19886,11.6506628 298.487704,12.2407295 C298.776547,12.8307963 298.920967,13.5136955 298.920967,14.2894476 L298.920967,20.0332857 C298.920967,20.751269 298.966356,21.3454532 299.057136,21.8158561 C299.147915,22.286259 299.279956,22.6906343 299.453263,23.0289943 L299.453263,23.2394366 L295.962395,23.2394366 Z M292.681971,20.8255392 C293.028583,20.8255392 293.350433,20.7842764 293.64753,20.7017496 C293.944626,20.6192227 294.212834,20.5119395 294.452162,20.3798966 C294.69149,20.2478537 294.897804,20.0972445 295.07111,19.9280645 C295.244417,19.7588845 295.380584,19.5876439 295.479616,19.4143376 L295.479616,17.1118508 L293.721803,17.1118508 C293.185379,17.1118508 292.727362,17.1634293 292.347739,17.2665878 C291.968115,17.3697463 291.658644,17.5141661 291.419317,17.6998515 C291.179989,17.8855368 291.002559,18.1083559 290.887021,18.3683154 C290.771484,18.6282748 290.713716,18.910925 290.713716,19.2162742 C290.713716,19.6784244 290.876704,20.0621684 291.202685,20.3675176 C291.528666,20.6728668 292.021756,20.8255392 292.681971,20.8255392 Z" id="Alpha" fill="#EF5777"></path>
        </g>
    </g>
</svg>