<?xml version="1.0" encoding="UTF-8"?>
<svg width="300px" height="49px" viewBox="0 0 300 49" version="1.1" xmlns="http://www.w3.org/2000/svg" xmlns:xlink="http://www.w3.org/1999/xlink">
    <!-- Generator: Sketch 51.2 (57519) - http://www.bohemiancoding.com/sketch -->
    <title>assets/excaliburIPFS</title>
    <desc>Created with Sketch.</desc>
    <defs></defs>
    <g id="assets/excaliburIPFS" stroke="none" stroke-width="1" fill="none" fill-rule="evenodd">
        <g id="logo" transform="translate(0.000000, -4.225352)" fill="#121212">
            <path d="M17.9969465,31.8613831 L6.27613336,31.8613831 L6.27613336,39.9169922 L19.9765487,39.9169922 L19.9765487,44.3661972 L0.748927157,44.3661972 L0.748927157,15.8285651 L19.9177487,15.8285651 L19.9177487,20.3169702 L6.27613336,20.3169702 L6.27613336,27.5101783 L17.9969465,27.5101783 L17.9969465,31.8613831 Z M34.421765,29.7837808 L39.0865702,23.1589734 L44.9469768,23.1589734 L37.8321688,33.5665851 L45.2017771,44.3661972 L39.3217705,44.3661972 L34.441365,37.4277894 L29.6001596,44.3661972 L23.7005529,44.3661972 L31.0701612,33.5665851 L23.9749532,23.1589734 L29.8353598,23.1589734 L34.421765,29.7837808 Z M58.1965917,40.4069927 C58.7323283,40.4069927 59.2419237,40.3285934 59.7253934,40.1717925 C60.208863,40.0149915 60.6335259,39.7928602 60.9993948,39.5053917 C61.3652637,39.2179233 61.6494612,38.8716597 61.8519958,38.4665906 C62.0545303,38.0615214 62.1427296,37.6107254 62.1165961,37.114189 L67.2518018,37.114189 C67.2779353,38.2117958 67.0525373,39.2309867 66.5756011,40.1717925 C66.0986648,41.1125982 65.4486039,41.9227244 64.6253989,42.6021952 C63.8021938,43.281666 62.845069,43.814128 61.7539957,44.199597 C60.6629223,44.585066 59.5097992,44.7777976 58.2945918,44.7777976 C56.6481817,44.7777976 55.2043278,44.5001334 53.9629869,43.9447967 C52.721646,43.38946 51.6861218,42.6283334 50.8563834,41.6613941 C50.026645,40.6944549 49.3994506,39.5609316 48.9747813,38.2607903 C48.550112,36.960649 48.3377806,35.5657947 48.3377806,34.0761856 L48.3377806,33.488185 C48.3377806,31.9985758 48.5468454,30.6037216 48.9649813,29.3035803 C49.3831172,28.003439 50.0103116,26.8699157 50.8465834,25.9029765 C51.6828552,24.9360372 52.7183793,24.171644 53.9531869,23.6097739 C55.1879945,23.0479038 56.6220484,22.7669729 58.2553917,22.7669729 C59.5620664,22.7669729 60.7707223,22.9629712 61.8813958,23.3549736 C62.9920693,23.746976 63.9491941,24.2990378 64.752799,25.0111755 C65.5564039,25.7233131 66.1803317,26.5857055 66.6246011,27.5983784 C67.0688705,28.6110512 67.2779353,29.7445745 67.2518018,30.9989822 L62.1165961,30.9989822 C62.1427296,30.4763123 62.0643303,29.9797834 61.8813958,29.5093805 C61.6984613,29.0389776 61.4305971,28.6339146 61.0777949,28.2941791 C60.7249927,27.9544437 60.3003298,27.6833128 59.8037935,27.4807782 C59.3072571,27.2782437 58.7649952,27.1769779 58.1769916,27.1769779 C57.3145864,27.1769779 56.6024593,27.3533763 56.0405892,27.7061785 C55.4787191,28.0589806 55.0311898,28.5293765 54.6979877,29.1173801 C54.3647857,29.7053837 54.1295878,30.378311 53.9923869,31.1361823 C53.8551861,31.8940536 53.7865867,32.6780467 53.7865867,33.488185 L53.7865867,34.0761856 C53.7865867,34.8993907 53.8519195,35.6931836 53.9825869,36.4575883 C54.1132544,37.221993 54.3451857,37.8949203 54.6783877,38.4763906 C55.0115897,39.0578608 55.4623857,39.52499 56.0307892,39.8777921 C56.5991927,40.2305943 57.3211196,40.4069927 58.1965917,40.4069927 Z M86.146223,44.3661972 C86.0155556,44.1048622 85.9044899,43.8043316 85.8130227,43.4645962 C85.7215554,43.1248608 85.6431561,42.7655306 85.5778224,42.386595 C85.2772872,42.7132636 84.9310236,43.0203276 84.5390212,43.307796 C84.1470188,43.5952644 83.712556,43.8467955 83.2356198,44.0623968 C82.7586835,44.2779982 82.2327549,44.4478633 81.657818,44.5719974 C81.0828811,44.6961315 80.46222,44.7581976 79.7958159,44.7581976 C78.7112759,44.7581976 77.7149514,44.601399 76.8068126,44.2877971 C75.8986737,43.9741952 75.1179473,43.5364657 74.4646099,42.9745956 C73.8112726,42.4127255 73.3016771,41.7430648 72.9358082,40.9655934 C72.5699393,40.1881219 72.3870076,39.3420628 72.3870076,38.4273905 C72.3870076,36.1929768 73.2200002,34.4649255 74.8860104,33.2431847 C76.5520206,32.0214439 79.0379319,31.4105826 82.3438188,31.4105826 L85.3818222,31.4105826 L85.3818222,30.1561812 C85.3818222,29.136975 85.0486251,28.3301155 84.3822211,27.7355785 C83.715817,27.1410415 82.7554255,26.8437775 81.5010178,26.8437775 C80.3903444,26.8437775 79.5802182,27.0822421 79.0706151,27.5591783 C78.561012,28.0361146 78.3062142,28.6731089 78.3062142,29.4701805 L72.8574081,29.4701805 C72.8574081,28.5685749 73.056673,27.7127159 73.4552088,26.9025776 C73.8537446,26.0924393 74.4352061,25.3803123 75.1996108,24.7661752 C75.9640154,24.1520381 76.8982738,23.6653091 78.0024139,23.3059735 C79.106554,22.946638 80.3707428,22.7669729 81.7950182,22.7669729 C83.0755593,22.7669729 84.2678821,22.9237715 85.3720222,23.2373735 C86.4761623,23.5509754 87.4332871,24.0148379 88.2434254,24.628975 C89.0535637,25.2431121 89.6872914,26.0173052 90.1446275,26.9515776 C90.6019637,27.88585 90.8306283,28.9671071 90.8306283,30.1953813 L90.8306283,39.2897915 C90.8306283,40.4265984 90.9024943,41.3673901 91.0462285,42.1121947 C91.1899628,42.8569992 91.3990276,43.4972602 91.6734292,44.0329968 L91.6734292,44.3661972 L86.146223,44.3661972 Z M80.9522172,40.5441929 C81.5010206,40.5441929 82.010616,40.4788601 82.4810189,40.3481927 C82.9514218,40.2175252 83.3760847,40.04766 83.7550204,39.8385921 C84.133956,39.6295242 84.4606198,39.3910596 84.7350215,39.1231913 C85.0094231,38.855323 85.2250212,38.5841921 85.3818222,38.3097904 L85.3818222,34.6641863 L82.5986191,34.6641863 C81.7492805,34.6641863 81.024087,34.7458522 80.4230166,34.9091866 C79.8219463,35.0725209 79.3319506,35.3011855 78.953015,35.5951873 C78.5740793,35.8891891 78.2931485,36.241986 78.110214,36.6535885 C77.9272796,37.065191 77.8358137,37.5127204 77.8358137,37.99619 C77.8358137,38.7279278 78.0938781,39.3355225 78.6100146,39.8189921 C79.1261511,40.3024617 79.9068775,40.5441929 80.9522172,40.5441929 Z M98.1218365,14.2605634 L109.97985,14.2605634 L109.97985,39.9365922 L116.055857,39.9365922 L116.055857,44.3661972 L98.1218365,44.3661972 L98.1218365,39.9365922 L104.472244,39.9365922 L104.472244,18.7097684 L98.1218365,18.7097684 L98.1218365,14.2605634 Z M122.523864,23.1589734 L134.068277,23.1589734 L134.068277,39.9365922 L139.811083,39.9365922 L139.811083,44.3661972 L122.523864,44.3661972 L122.523864,39.9365922 L128.560671,39.9365922 L128.560671,27.6081784 L122.523864,27.6081784 L122.523864,23.1589734 Z M128.16867,17.7297673 C128.16867,17.3116314 128.243803,16.9229015 128.39407,16.563566 C128.544338,16.2042304 128.75667,15.8971665 129.031071,15.6423649 C129.305473,15.3875634 129.635403,15.1882985 130.020872,15.0445643 C130.406341,14.90083 130.834271,14.828964 131.304674,14.828964 C132.271613,14.828964 133.039273,15.1000949 133.607676,15.6423649 C134.17608,16.1846349 134.460277,16.8804287 134.460277,17.7297673 C134.460277,18.5791058 134.17608,19.2748996 133.607676,19.8171696 C133.039273,20.3594396 132.271613,20.6305705 131.304674,20.6305705 C130.834271,20.6305705 130.406341,20.5587045 130.020872,20.4149703 C129.635403,20.2712361 129.305473,20.0719712 129.031071,19.8171696 C128.75667,19.5623681 128.544338,19.2553041 128.39407,18.8959686 C128.243803,18.5366331 128.16867,18.1479032 128.16867,17.7297673 Z M164.271911,33.9781855 C164.271911,35.5592619 164.098779,37.009649 163.75251,38.3293904 C163.406241,39.6491318 162.886846,40.7859217 162.194308,41.7397942 C161.501771,42.6936667 160.639379,43.4351935 159.607106,43.9643967 C158.574833,44.4936 157.37271,44.7581976 156.000701,44.7581976 C154.759361,44.7581976 153.684637,44.5262663 152.776498,44.0623968 C151.868359,43.5985273 151.087633,42.9484664 150.434295,42.1121947 L150.179495,44.3661972 L145.279489,44.3661972 L145.279489,14.2605634 L150.728296,14.2605634 L150.728296,25.0797755 C151.355499,24.3480377 152.097026,23.7796428 152.952898,23.3745736 C153.80877,22.9695045 154.811628,22.7669729 155.961501,22.7669729 C157.346577,22.7669729 158.558499,23.0348372 159.597306,23.5705738 C160.636112,24.1063104 161.501771,24.8511038 162.194308,25.8049763 C162.886846,26.7588488 163.406241,27.8989054 163.75251,29.2251802 C164.098779,30.551455 164.271911,31.9985755 164.271911,33.5665851 L164.271911,33.9781855 Z M158.823105,33.5665851 C158.823105,32.7041798 158.757772,31.8875204 158.627104,31.1165823 C158.496437,30.3456443 158.271039,29.6694503 157.950904,29.08798 C157.630768,28.5065098 157.196306,28.0459139 156.647502,27.7061785 C156.098699,27.3664431 155.412705,27.1965779 154.5895,27.1965779 C153.596427,27.1965779 152.789568,27.4056427 152.168897,27.8237786 C151.548227,28.2419145 151.068031,28.8168427 150.728296,29.5485805 L150.728296,37.99619 C151.068031,38.7279278 151.548227,39.3028561 152.168897,39.720992 C152.789568,40.1391279 153.609494,40.3481927 154.6287,40.3481927 C155.451905,40.3481927 156.131366,40.1881274 156.667102,39.8679921 C157.202839,39.5478568 157.630768,39.1035941 157.950904,38.5351906 C158.271039,37.9667872 158.496437,37.2938598 158.627104,36.5163884 C158.757772,35.7389169 158.823105,34.8928578 158.823105,33.9781855 L158.823105,33.5665851 Z M182.774332,41.3869938 C182.05566,42.4454003 181.190001,43.2751263 180.177329,43.8761966 C179.164656,44.477267 178.057266,44.7777976 176.855125,44.7777976 C175.757518,44.7777976 174.751394,44.6079325 173.836722,44.2681971 C172.922049,43.9284617 172.138056,43.3894664 171.484719,42.6511953 C170.831382,41.9129241 170.325053,40.9721324 169.965717,39.8287921 C169.606382,38.6854518 169.426717,37.3101973 169.426717,35.7029875 L169.426717,23.1589734 L174.875523,23.1589734 L174.875523,35.7421875 C174.875523,36.6045928 174.937589,37.3297863 175.061723,37.9177899 C175.185857,38.5057935 175.385122,38.979456 175.659524,39.3387915 C175.933925,39.6981271 176.293255,39.9561914 176.737525,40.1129924 C177.181794,40.2697934 177.724056,40.3481927 178.364327,40.3481927 C179.448867,40.3481927 180.330859,40.1423945 181.01033,39.730792 C181.6898,39.3191895 182.205929,38.7540611 182.558731,38.0353901 L182.558731,23.1589734 L188.027137,23.1589734 L188.027137,44.3661972 L183.087932,44.3661972 L182.774332,41.3869938 Z M208.56796,22.7669729 C209.391166,22.7669729 210.152292,22.8225058 210.851363,22.9335731 C211.550434,23.0446405 212.115562,23.1655061 212.546765,23.2961735 L211.743164,28.7253796 C211.024493,28.5555119 210.2895,28.428113 209.538162,28.3431792 C208.786824,28.2582453 208.07143,28.215779 207.391959,28.215779 C205.86315,28.215779 204.638161,28.5097764 203.716955,29.09778 C202.795749,29.6857836 202.106489,30.5285762 201.649153,31.6261829 L201.649153,44.3661972 L196.200347,44.3661972 L196.200347,23.1589734 L201.276752,23.1589734 L201.531553,26.6281773 C202.393958,25.4260366 203.426215,24.4819783 204.628356,23.7959741 C205.830497,23.1099699 207.143685,22.7669729 208.56796,22.7669729 Z M235.439591,48.619402 L217.564371,48.619402 L217.564371,44.3661972 L235.439591,44.3661972 L235.439591,48.619402 Z" id="Excalibur_"></path>
        </g>
        <g id="IPFS" transform="translate(225.283824, -0.043731)">
            <g id="Group-3">
                <g id="ipfs-logo-vector-ice" fill-rule="nonzero">
                    <g id="Group" transform="translate(0.048821, 0.023602)">
                        <polygon id="Shape" fill="#4A9EA1" points="0.015644695 18.5207564 11.02653 24.6861535 22.0374154 18.5207564 22.0374154 6.18996231 11.02653 0.0250469255 0.015644695 6.19044398"></polygon>
                        <path d="M9.88993054,1.51004061 L1.90666616,5.98024247 C1.92262177,6.11772601 1.92262127,6.25649079 1.90666616,6.39396951 L9.89042719,10.8641714 C10.5635961,10.3824516 11.4818652,10.3824516 12.155034,10.8641714 L20.1387951,6.39392135 C20.1228395,6.25643781 20.1227565,6.11774046 20.1387454,5.98026174 L12.155481,1.51005987 C11.4823122,1.99177968 10.5639934,1.99177968 9.89077485,1.51005987 L9.88993054,1.51004061 Z M20.9052858,7.62871551 L12.9130816,12.1487222 C13.0066518,12.9549924 12.5474874,13.726245 11.7807533,14.0507954 L11.789724,22.9414906 C11.9204689,22.9968299 12.0443451,23.0661761 12.1591374,23.1483204 L20.1428985,18.6781667 C20.0493283,17.8718965 20.5084926,17.1005957 21.2752267,16.7760454 L21.2752267,7.83573798 C21.1444818,7.78039873 21.020536,7.71105246 20.9057437,7.62890818 L20.9052858,7.62871551 Z M1.14777429,7.67839994 C1.03298693,7.76054422 0.909110744,7.82995792 0.778360826,7.88529718 L0.778360826,16.8256046 C1.54509988,17.1501453 2.00425926,17.9214076 1.91068909,18.7276777 L9.89395346,23.1978796 C10.0087408,23.1157353 10.1326915,23.0463216 10.2634365,22.9909824 L10.2634365,14.050675 C9.4966974,13.7261342 9.03753802,12.954872 9.1311082,12.1486018 L1.14784382,7.67820727 L1.14777429,7.67839994 Z" id="Shape" fill="#63D3D7"></path>
                    </g>
                    <g id="Group" transform="translate(0.049666, 0.016377)" fill="#000000">
                        <polygon id="Shape" fill-opacity="0.25098" points="11.0257851 24.6933785 22.0366704 18.5279815 22.0366704 6.19718738 11.0257851 12.3625844"></polygon>
                        <polygon id="Shape" fill-opacity="0.039216" points="11.0257851 24.6933785 11.0257851 12.3625844 0.0148997095 6.19718738 0.0148997095 18.5279815"></polygon>
                        <polygon id="Shape" fill-opacity="0.13018" points="0.0148003781 6.19718738 11.0256857 12.3625844 22.0365711 6.19718738 11.0256857 0.0317903285"></polygon>
                    </g>
                </g>
                <g id="ipfs-text-vector-white" transform="translate(26.074492, 6.020896)" fill="#121212" fill-rule="nonzero">
                    <polygon id="Shape" points="1.54410657 0.286594629 0.0491690415 0.286594629 0.0491690415 12.5933051 1.54410657 12.5933051"></polygon>
                    <path d="M8.07514591,6.18707228 C7.5015071,6.18707228 5.86750562,6.17021377 5.86750562,6.17021377 L5.86750562,1.58469971 L8.49233778,1.58469971 C10.0568073,1.58469971 11.1867019,2.17474748 11.1867019,3.62457913 C11.1867019,4.85525018 10.960723,6.18707228 8.07514591,6.18707228 Z M5.86750562,12.5933051 L5.86750562,7.33345079 C6.51067641,7.38402631 7.41459212,7.45146034 7.93608196,7.45146034 C11.6908088,7.45146034 12.7164054,5.88361914 12.7164054,3.59086211 C12.7164054,1.21381254 10.873808,0.286594629 8.45757179,0.286594629 L4.3551851,0.286594629 L4.3551851,12.5933051 L5.86750562,12.5933051 Z" id="Shape"></path>
                    <polygon id="Shape" points="21.0577595 5.69817556 15.8254782 5.69817556 15.8254782 1.5509827 21.2315894 1.5509827 21.3532704 0.286594629 14.3305406 0.286594629 14.3305406 12.5933051 15.8254782 12.5933051 15.8254782 6.87827109 21.0577595 6.87827109 21.0577595 5.69817556"></polygon>
                    <path d="M23.153652,10.5871427 C24.2835466,11.126615 25.7437181,11.5312192 27.3603366,11.5312192 C29.1681681,11.5312192 30.1242328,10.7557278 30.1242328,9.08673558 C30.1242328,8.09208363 29.7070409,7.41774333 28.0904224,7.02999765 L25.5872712,6.42309138 C23.8315888,6.00162869 22.7364601,5.09126928 22.7364601,3.45599405 C22.7364601,1.06208598 24.5790575,0.0337170151 27.3603366,0.0337170151 C28.9074231,0.0337170151 30.2980627,0.404604182 31.1672124,0.927217916 L30.7326376,2.07359643 C30.0547008,1.71956777 28.7162102,1.29810508 27.3429536,1.29810508 C25.3265263,1.29810508 24.2661636,1.95558688 24.2661636,3.37170151 C24.2661636,4.33263644 24.9267174,4.85525018 26.143527,5.14184481 L28.5249973,5.69817556 C30.4197437,6.13649675 31.6365533,7.02999765 31.6365533,9.03616005 C31.6365533,11.5986532 29.8634878,12.7787487 27.2734217,12.7787487 C25.0657814,12.7787487 23.4839289,12.222418 22.7190771,11.7672383 L23.153652,10.5871427 Z" id="Shape"></path>
                </g>
            </g>
        </g>
    </g>
</svg>