<?xml version="1.0" encoding="UTF-8"?>
<svg width="290px" height="100px" viewBox="0 0 290 100" version="1.1" xmlns="http://www.w3.org/2000/svg" xmlns:xlink="http://www.w3.org/1999/xlink">
    <!-- Generator: Sketch 51.2 (57519) - http://www.bohemiancoding.com/sketch -->
    <title>assets/excaliburExplore</title>
    <desc>Created with Sketch.</desc>
    <defs>
        <path d="M0,0 L245,0 C247.761424,-5.07265313e-16 250,2.23857625 250,5 L250,85 C250,87.7614237 247.761424,90 245,90 L0,90 L0,0 Z" id="path-1"></path>
        <polygon id="path-3" points="-34.7681101 71.5282101 4.83896854 96.3064202 44.4460472 71.5282101 44.4460472 21.9717899 4.83896854 -2.80448444 -34.7681101 21.9737257"></polygon>
        <filter x="-10.7%" y="-6.6%" width="121.5%" height="117.2%" filterUnits="objectBoundingBox" id="filter-4">
            <feOffset dx="0" dy="2" in="SourceAlpha" result="shadowOffsetOuter1"></feOffset>
            <feGaussianBlur stdDeviation="2.5" in="shadowOffsetOuter1" result="shadowBlurOuter1"></feGaussianBlur>
            <feColorMatrix values="0 0 0 0 0   0 0 0 0 0   0 0 0 0 0  0 0 0 0.2 0" type="matrix" in="shadowBlurOuter1"></feColorMatrix>
        </filter>
    </defs>
    <g id="assets/excaliburExplore" stroke="none" stroke-width="1" fill="none" fill-rule="evenodd">
        <g id="ipfsExplore">
            <g id="Shape-Copy" transform="translate(40.000000, 5.000000)">
                <mask id="mask-2" fill="white">
                    <use xlink:href="#path-1"></use>
                </mask>
                <use id="Mask" fill="#5FCACE" xlink:href="#path-1"></use>
                <g fill-rule="nonzero" mask="url(#mask-2)" fill="black" fill-opacity="1">
                    <use filter="url(#filter-4)" xlink:href="#path-3"></use>
                </g>
            </g>
            <g id="ipfs-logo-vector-ice-text" fill-rule="nonzero">
                <g id="Group">
                    <g transform="translate(0.175615, 0.094854)" id="Shape">
                        <polygon fill="#4A9EA1" points="0.0562752809 74.433356 39.6633539 99.2115661 79.2704326 74.433356 79.2704326 24.8769358 39.6633539 0.100661479 0.0562752809 24.8788716"></polygon>
                        <path d="M35.5749101,6.06872568 L6.8584382,24.0340895 C6.91583184,24.5866242 6.91583006,25.1443082 6.8584382,25.6968235 L35.5766966,43.6621874 C37.9981416,41.7261961 41.3012326,41.7261961 43.7226775,43.6621874 L72.440936,25.69663 C72.3835423,25.1440952 72.383244,24.5866823 72.4407573,24.0341669 L43.7242854,6.06880311 C41.3028404,8.00479436 37.9995708,8.00479436 35.5779472,6.06880311 L35.5749101,6.06872568 Z M75.1980674,30.6591634 L46.4494382,48.8246887 C46.786018,52.0650204 45.1343653,55.1646196 42.3763584,56.4689601 L42.4086265,92.1999134 C42.8789271,92.4223172 43.3245201,92.701014 43.7374377,93.0311449 L72.4556962,75.0659747 C72.1191164,71.825643 73.7707691,68.7258502 76.5287759,67.4215097 L76.5287759,31.4911693 C76.0584754,31.2687655 75.6126322,30.9900687 75.1997146,30.6599377 L75.1980674,30.6591634 Z M4.12864045,30.858841 C3.71574067,31.1889719 3.27014764,31.4679397 2.79982921,31.6903435 L2.79982921,67.6206839 C5.55785393,68.9249857 7.20948876,72.0246236 6.87290899,75.2649554 L35.5893809,93.2303192 C36.0022807,92.9001882 36.4481417,92.6212204 36.9184422,92.3988166 L36.9184422,56.4684762 C34.1604175,55.1641744 32.5087827,52.0645365 32.8453625,48.8242048 L4.12889056,30.8580666 L4.12864045,30.858841 Z" fill="#63D3D7"></path>
                    </g>
                    <g transform="translate(0.178652, 0.065817)" fill="#000000" id="Shape">
                        <polygon fill-opacity="0.25098" points="39.6606742 99.2406031 79.2677528 74.462393 79.2677528 24.9059728 39.6606742 49.6841829"></polygon>
                        <polygon fill-opacity="0.039216" points="39.6606742 99.2406031 39.6606742 49.6841829 0.0535955056 24.9059728 0.0535955056 74.462393"></polygon>
                        <polygon fill-opacity="0.13018" points="0.0532382022 24.9059728 39.6603169 49.6841829 79.2673955 24.9059728 39.6603169 0.127762646"></polygon>
                    </g>
                </g>
                <g id="Group" transform="translate(7.000000, 35.500000)" fill="#FFFFFF">
                    <polygon id="Shape" points="5.38495902 0.77027027 0.159275956 0.77027027 0.159275956 27.9608108 5.38495902 27.9608108"></polygon>
                    <path d="M14.4905328,27.9608108 L14.4905328,17.9858108 C15.7790574,18.1013514 17.067582,18.1013514 18.1413525,18.1013514 C25.5861612,18.1013514 27.7337022,14.1344595 27.7337022,9.24324324 C27.7337022,3.31216216 23.7965437,0.77027027 17.7118443,0.77027027 L9.26484973,0.77027027 L9.26484973,27.9608108 L14.4905328,27.9608108 Z M17.3181284,14.1344595 C16.351735,14.1344595 14.920041,14.1344595 14.4905328,14.0959459 L14.4905328,4.8527027 L17.7476366,4.8527027 C20.8973634,4.8527027 22.6869809,6.47027027 22.6869809,9.43581081 L22.6869809,9.51283784 C22.6869809,11.8236486 21.8995492,14.1344595 17.3181284,14.1344595 Z" id="Shape"></path>
                    <polygon id="Shape" points="45.6262978 0.77027027 29.7702869 0.77027027 29.7702869 27.9608108 34.9959699 27.9608108 34.9959699 15.9831081 44.9104508 15.9831081 44.9104508 11.9006757 34.9601776 11.9006757 34.9601776 4.89121622 45.2683743 4.89121622"></polygon>
                    <path d="M62.7278825,6.08513514 L64.0879918,2.31081081 C62.0478279,0.731756757 59.2918169,0.154054054 55.819959,0.154054054 C50.7732377,0.154054054 46.6213251,2.69594595 46.6213251,7.89527027 C46.6213251,12.5554054 49.8068443,14.4040541 52.9923634,15.5209459 L56.1778825,16.6763514 C58.3612158,17.4851351 60.1508333,18.2554054 60.1508333,20.7972973 C60.1508333,23.1081081 58.2896311,24.0324324 55.4620355,24.0324324 C52.5986475,24.0324324 49.5205055,23.1081081 47.7666803,21.9141892 L46.406571,25.9966216 C48.6972814,27.5756757 51.5964617,28.3459459 55.4978279,28.3459459 C61.0456421,28.3459459 65.340724,25.727027 65.340724,20.1425676 C65.340724,14.9432432 61.654112,13.2871622 57.9317077,11.9391892 L54.4598497,10.7067568 C52.956571,10.1675676 51.8112158,9.43581081 51.8112158,7.35608108 C51.8112158,5.23783784 53.4218716,4.39054054 55.819959,4.39054054 C58.7549317,4.39054054 61.0456421,4.96824324 62.7278825,6.08513514 Z" id="Shape"></path>
                </g>
            </g>
            <path d="M184.015625,29.7695312 L178.175781,29.7695312 L178.175781,33.7832031 L185.001953,33.7832031 L185.001953,36 L175.421875,36 L175.421875,21.78125 L184.972656,21.78125 L184.972656,24.0175781 L178.175781,24.0175781 L178.175781,27.6015625 L184.015625,27.6015625 L184.015625,29.7695312 Z M192.082031,26.8789062 L194.611328,21.78125 L197.833984,21.78125 L193.830078,28.8320312 L197.931641,36 L194.728516,36 L192.121094,30.8242188 L189.523438,36 L186.28125,36 L190.382812,28.8320312 L186.388672,21.78125 L189.591797,21.78125 L192.082031,26.8789062 Z M202.189453,30.7851562 L202.189453,36 L199.445312,36 L199.445312,21.78125 L204.308594,21.78125 C205.083337,21.78125 205.7832,21.8935536 206.408203,22.1181641 C207.033206,22.3427746 207.565427,22.6552714 208.004883,23.0556641 C208.444338,23.4560567 208.782876,23.9361951 209.020508,24.4960938 C209.258139,25.0559924 209.376953,25.677731 209.376953,26.3613281 C209.376953,26.9993521 209.258139,27.588539 209.020508,28.1289062 C208.782876,28.6692735 208.444338,29.1363913 208.004883,29.5302734 C207.565427,29.9241556 207.033206,30.2317697 206.408203,30.453125 C205.7832,30.6744803 205.083337,30.7851562 204.308594,30.7851562 L202.189453,30.7851562 Z M202.189453,28.5585938 L204.308594,28.5585938 C204.699221,28.5585938 205.037759,28.5000006 205.324219,28.3828125 C205.610679,28.2656244 205.849934,28.1061208 206.041992,27.9042969 C206.23405,27.7024729 206.377278,27.4697279 206.47168,27.2060547 C206.566081,26.9423815 206.613281,26.6673191 206.613281,26.3808594 C206.613281,26.0488265 206.566081,25.7395848 206.47168,25.453125 C206.377278,25.1666652 206.23405,24.9160167 206.041992,24.7011719 C205.849934,24.4863271 205.610679,24.3170579 205.324219,24.1933594 C205.037759,24.0696608 204.699221,24.0078125 204.308594,24.0078125 L202.189453,24.0078125 L202.189453,28.5585938 Z M214.210938,33.7832031 L220.871094,33.7832031 L220.871094,36 L211.457031,36 L211.457031,21.78125 L214.210938,21.78125 L214.210938,33.7832031 Z M233.195312,29.9355469 C233.195312,30.8470098 233.074871,31.6868451 232.833984,32.4550781 C232.593098,33.2233111 232.244794,33.8841118 231.789062,34.4375 C231.333331,34.9908882 230.778324,35.422199 230.124023,35.7314453 C229.469723,36.0406917 228.732426,36.1953125 227.912109,36.1953125 C227.091793,36.1953125 226.362633,36.0406917 225.724609,35.7314453 C225.086585,35.422199 224.549481,34.9892606 224.113281,34.4326172 C223.677081,33.8759738 223.345053,33.2151731 223.117188,32.4501953 C222.889322,31.6852175 222.775391,30.8470098 222.775391,29.9355469 L222.775391,27.8652344 C222.775391,26.9537715 222.889322,26.1139361 223.117188,25.3457031 C223.345053,24.5774701 223.677081,23.9150418 224.113281,23.3583984 C224.549481,22.801755 225.084958,22.3671891 225.719727,22.0546875 C226.354495,21.7421859 227.082027,21.5859375 227.902344,21.5859375 C228.729171,21.5859375 229.469723,21.7421859 230.124023,22.0546875 C230.778324,22.3671891 231.333331,22.801755 231.789062,23.3583984 C232.244794,23.9150418 232.593098,24.5774701 232.833984,25.3457031 C233.074871,26.1139361 233.195312,26.9537715 233.195312,27.8652344 L233.195312,29.9355469 Z M230.412109,27.8457031 C230.412109,27.2662731 230.364909,26.7324243 230.270508,26.2441406 C230.176106,25.7558569 230.027996,25.3359393 229.826172,24.984375 C229.624348,24.6328107 229.365561,24.3577484 229.049805,24.1591797 C228.734048,23.960611 228.351565,23.8613281 227.902344,23.8613281 C227.459633,23.8613281 227.088543,23.960611 226.789062,24.1591797 C226.489582,24.3577484 226.248699,24.6328107 226.066406,24.984375 C225.884114,25.3359393 225.753907,25.7558569 225.675781,26.2441406 C225.597656,26.7324243 225.558594,27.2662731 225.558594,27.8457031 L225.558594,29.9355469 C225.558594,30.5084664 225.597656,31.0390601 225.675781,31.5273438 C225.753907,32.0156274 225.884114,32.4388003 226.066406,32.796875 C226.248699,33.1549497 226.489582,33.4348948 226.789062,33.6367188 C227.088543,33.8385427 227.462888,33.9394531 227.912109,33.9394531 C228.35482,33.9394531 228.734048,33.8385427 229.049805,33.6367188 C229.365561,33.4348948 229.62272,33.1565773 229.821289,32.8017578 C230.019858,32.4469383 230.167968,32.0253931 230.265625,31.5371094 C230.363282,31.0488257 230.412109,30.5149769 230.412109,29.9355469 L230.412109,27.8457031 Z M240.099609,30.6875 L238.019531,30.6875 L238.019531,36 L235.275391,36 L235.275391,21.78125 L240.041016,21.78125 C240.82878,21.78125 241.541663,21.8740225 242.179688,22.0595703 C242.817712,22.2451181 243.362953,22.5169253 243.81543,22.875 C244.267906,23.2330747 244.61621,23.6790338 244.860352,24.2128906 C245.104493,24.7467475 245.226562,25.3652309 245.226562,26.0683594 C245.226562,26.5761744 245.166342,27.0335266 245.045898,27.4404297 C244.925455,27.8473328 244.752931,28.2119125 244.52832,28.5341797 C244.30371,28.8564469 244.03353,29.1380196 243.717773,29.3789062 C243.402017,29.6197929 243.04883,29.8281241 242.658203,30.0039062 L245.714844,35.8730469 L245.714844,36 L242.775391,36 L240.099609,30.6875 Z M238.019531,28.4609375 L240.050781,28.4609375 C240.825525,28.4609375 241.422849,28.2639994 241.842773,27.8701172 C242.262697,27.476235 242.472656,26.9375034 242.472656,26.2539062 C242.472656,25.5442673 242.26758,24.992515 241.857422,24.5986328 C241.447264,24.2047506 240.841801,24.0078125 240.041016,24.0078125 L238.019531,24.0078125 L238.019531,28.4609375 Z M256.027344,29.7695312 L250.1875,29.7695312 L250.1875,33.7832031 L257.013672,33.7832031 L257.013672,36 L247.433594,36 L247.433594,21.78125 L256.984375,21.78125 L256.984375,24.0175781 L250.1875,24.0175781 L250.1875,27.6015625 L256.027344,27.6015625 L256.027344,29.7695312 Z" id="EXPLORE" fill="#FFFFFF"></path>
            <polygon id="Path-3" fill="#FFFFFF" points="265.5 22.5 272.5 29.5 265.5 36.5 265.5 35 271 29.5 265.5 24"></polygon>
            <g id="logo/identity/excaliburOutlines" transform="translate(102.036589, 55.609932)">
                <g id="logo" transform="translate(0.000000, -3.591549)">
                    <path d="M10.1982697,18.0547838 L3.55647557,18.0547838 L3.55647557,22.6196289 L11.3200443,22.6196289 L11.3200443,25.1408451 L0.424392055,25.1408451 L0.424392055,8.96952025 L11.2867243,8.96952025 L11.2867243,11.5129498 L3.55647557,11.5129498 L3.55647557,15.589101 L10.1982697,15.589101 L10.1982697,18.0547838 Z M19.5056668,16.8774758 L22.1490564,13.1234182 L25.4699535,13.1234182 L21.438229,19.0210649 L25.6143403,25.1408451 L22.2823366,25.1408451 L19.5167735,21.2090807 L16.7734237,25.1408451 L13.4303133,25.1408451 L17.6064247,19.0210649 L13.5858068,13.1234182 L16.9067039,13.1234182 L19.5056668,16.8774758 Z M32.9780686,22.8972959 C33.2816527,22.8972959 33.5704235,22.8528696 33.8443896,22.7640157 C34.1183557,22.6751619 34.358998,22.5492874 34.5663237,22.3863886 C34.7736494,22.2234899 34.9346947,22.0272738 35.0494643,21.7977347 C35.1642339,21.5681955 35.2142134,21.3127444 35.1994044,21.0313738 L38.1093544,21.0313738 C38.1241633,21.6533509 37.9964378,22.2308925 37.7261739,22.7640157 C37.4559101,23.297139 37.0875422,23.7562105 36.6210594,24.1412439 C36.1545765,24.5262774 35.6122058,24.8280058 34.9939309,25.0464383 C34.375656,25.2648707 33.7222196,25.3740853 33.033602,25.3740853 C32.1006363,25.3740853 31.2824524,25.2167423 30.5790259,24.9020515 C29.8755994,24.5873607 29.2888024,24.1560556 28.8186173,23.6081233 C28.3484322,23.0601911 27.993022,22.4178613 27.7523761,21.6811145 C27.5117302,20.9443678 27.391409,20.1539504 27.391409,19.3098385 L27.391409,18.9766381 C27.391409,18.1325263 27.5098791,17.3421089 27.7468227,16.6053622 C27.9837664,15.8686154 28.3391766,15.2262856 28.8130639,14.6783533 C29.2869513,14.1304211 29.8737483,13.6972649 30.5734726,13.3788719 C31.2731969,13.0604788 32.0858274,12.9012847 33.0113886,12.9012847 C33.7518376,12.9012847 34.4367427,13.0123503 35.0661243,13.234485 C35.6955059,13.4566197 36.2378767,13.7694547 36.6932528,14.1729994 C37.1486289,14.5765441 37.502188,15.0652331 37.7539406,15.6390811 C38.0056933,16.212929 38.1241633,16.8552589 38.1093544,17.5660899 L35.1994044,17.5660899 C35.2142134,17.2699103 35.1697871,16.9885439 35.0661243,16.7219823 C34.9624614,16.4554207 34.8106717,16.2258849 34.6107504,16.0333682 C34.4108292,15.8408514 34.1701869,15.6872106 33.8888163,15.572441 C33.6074457,15.4576714 33.300164,15.4002875 32.9669619,15.4002875 C32.4782656,15.4002875 32.074727,15.5002466 31.7563339,15.7001678 C31.4379408,15.900089 31.1843409,16.1666467 30.9955264,16.4998487 C30.8067119,16.8330507 30.6734331,17.2143762 30.5956859,17.6438367 C30.5179388,18.0732971 30.4790658,18.5175598 30.4790658,18.9766381 L30.4790658,19.3098385 C30.4790658,19.7763214 30.5160877,20.2261374 30.5901326,20.6593 C30.6641775,21.0924627 30.7956052,21.4737882 30.9844197,21.803288 C31.1732342,22.1327878 31.4286853,22.3974943 31.7507806,22.5974155 C32.0728759,22.7973368 32.4819678,22.8972959 32.9780686,22.8972959 Z M48.8161931,25.1408451 C48.7421482,24.9927553 48.6792109,24.8224546 48.6273795,24.6299378 C48.5755481,24.4374211 48.5311218,24.2338007 48.4940994,24.0190705 C48.3237961,24.2041827 48.1275801,24.3781856 47.9054454,24.5410844 C47.6833107,24.7039832 47.4371151,24.8465175 47.1668512,24.9686915 C46.8965873,25.0908656 46.5985611,25.1871225 46.2727635,25.2574652 C45.946966,25.3278079 45.595258,25.3629787 45.217629,25.3629787 C44.6030564,25.3629787 44.0384725,25.2741261 43.5238604,25.0964184 C43.0092484,24.9187106 42.5668368,24.6706639 42.1966123,24.3522709 C41.8263878,24.0338778 41.537617,23.6544034 41.3302913,23.2138362 C41.1229656,22.7732691 41.0193043,22.2938356 41.0193043,21.7755213 C41.0193043,20.5093535 41.4913334,19.5301245 42.4354059,18.8378047 C43.3794783,18.1454849 44.7881614,17.7993302 46.6614973,17.7993302 L48.3830326,17.7993302 L48.3830326,17.0885027 C48.3830326,16.5109525 48.1942209,16.0537321 47.8165919,15.7168278 C47.438963,15.3799235 46.8947411,15.2114739 46.1839101,15.2114739 C45.5545285,15.2114739 45.095457,15.3466038 44.8066819,15.6168677 C44.5179068,15.8871316 44.3735214,16.248095 44.3735214,16.6997689 L41.2858646,16.6997689 C41.2858646,16.1888591 41.3987814,15.7038723 41.6246183,15.244794 C41.8504553,14.7857156 42.1799501,14.382177 42.6131128,14.0341659 C43.0462754,13.6861549 43.5756885,13.4103418 44.2013679,13.2067183 C44.8270473,13.0030949 45.5434209,12.9012847 46.3505103,12.9012847 C47.0761503,12.9012847 47.7517998,12.9901372 48.3774792,13.167845 C49.0031586,13.3455527 49.5455294,13.6084082 50.0046077,13.9564192 C50.4636861,14.3044302 50.8227985,14.7431396 51.0819556,15.2725607 C51.3411127,15.8019817 51.4706894,16.414694 51.4706894,17.1107161 L51.4706894,22.2642152 C51.4706894,22.9084058 51.5114135,23.4415211 51.5928628,23.863577 C51.6743122,24.2856329 51.7927823,24.6484474 51.9482766,24.9520315 L51.9482766,25.1408451 L48.8161931,25.1408451 Z M45.8729231,22.9750426 C46.1839117,22.9750426 46.4726824,22.9380207 46.7392441,22.8639758 C47.0058057,22.7899309 47.246448,22.693674 47.4611782,22.5752022 C47.6759084,22.4567304 47.8610179,22.3216004 48.0165122,22.1698084 C48.1720064,22.0180164 48.2941787,21.8643755 48.3830326,21.7088812 L48.3830326,19.6430389 L46.8058841,19.6430389 C46.3245923,19.6430389 45.9136493,19.6893163 45.5730427,19.7818724 C45.2324362,19.8744285 44.954772,20.0040051 44.7400418,20.1706062 C44.5253116,20.3372072 44.3661175,20.5371254 44.2624546,20.7703668 C44.1587918,21.0036083 44.1069611,21.2572082 44.1069611,21.5311744 C44.1069611,21.9458258 44.2531976,22.2901294 44.5456749,22.5640955 C44.8381523,22.8380616 45.2805639,22.9750426 45.8729231,22.9750426 Z M55.602374,8.08098592 L62.3219149,8.08098592 L62.3219149,22.6307356 L65.7649854,22.6307356 L65.7649854,25.1408451 L55.602374,25.1408451 L55.602374,22.6307356 L59.2009381,22.6307356 L59.2009381,10.6022021 L55.602374,10.6022021 L55.602374,8.08098592 Z M69.4301895,13.1234182 L75.9720235,13.1234182 L75.9720235,22.6307356 L79.2262805,22.6307356 L79.2262805,25.1408451 L69.4301895,25.1408451 L69.4301895,22.6307356 L72.8510467,22.6307356 L72.8510467,15.6446344 L69.4301895,15.6446344 L69.4301895,13.1234182 Z M72.6289131,10.0468681 C72.6289131,9.80992445 72.6714883,9.58964418 72.7566399,9.38602071 C72.8417916,9.18239725 72.9621127,9.00839435 73.117607,8.86400679 C73.2731013,8.71961924 73.4600619,8.60670247 73.6784943,8.52525308 C73.8969268,8.44380369 74.1394202,8.40307961 74.4059818,8.40307961 C74.953914,8.40307961 75.3889213,8.55672047 75.7110166,8.86400679 C76.0331119,9.17129312 76.1941571,9.56557629 76.1941571,10.0468681 C76.1941571,10.52816 76.0331119,10.9224431 75.7110166,11.2297295 C75.3889213,11.5370158 74.953914,11.6906566 74.4059818,11.6906566 C74.1394202,11.6906566 73.8969268,11.6499326 73.6784943,11.5684832 C73.4600619,11.4870338 73.2731013,11.374117 73.117607,11.2297295 C72.9621127,11.0853419 72.8417916,10.911339 72.7566399,10.7077155 C72.6714883,10.5040921 72.6289131,10.2838118 72.6289131,10.0468681 Z M93.0874161,19.2543051 C93.0874161,20.1502484 92.9893081,20.9721344 92.7930891,21.7199879 C92.5968701,22.4678414 92.3025461,23.1120223 91.9101081,23.6525501 C91.5176702,24.1930778 91.0289812,24.6132763 90.4440265,24.9131581 C89.8590718,25.21304 89.1778689,25.3629787 88.4003975,25.3629787 C87.696971,25.3629787 87.0879608,25.2315509 86.5733488,24.9686915 C86.0587367,24.7058322 85.6163251,24.3374643 85.2461006,23.863577 L85.1017138,25.1408451 L82.325044,25.1408451 L82.325044,8.08098592 L85.4127008,8.08098592 L85.4127008,14.2118728 C85.7681163,13.7972214 86.1883148,13.4751309 86.6733089,13.2455917 C87.158303,13.0160525 87.726589,12.9012847 88.3781841,12.9012847 C89.1630601,12.9012847 89.8498162,13.0530744 90.4384731,13.3566585 C91.0271301,13.6602426 91.5176702,14.0822922 91.9101081,14.6228199 C92.3025461,15.1633477 92.5968701,15.8093797 92.7930891,16.5609354 C92.9893081,17.3124911 93.0874161,18.1325261 93.0874161,19.0210649 L93.0874161,19.2543051 Z M89.9997593,19.0210649 C89.9997593,18.5323685 89.9627374,18.0695949 89.8886925,17.63273 C89.8146476,17.1958651 89.6869221,16.8126885 89.5055121,16.4831887 C89.3241021,16.1536889 89.0779065,15.8926845 88.7669179,15.7001678 C88.4559293,15.5076511 88.0671995,15.4113941 87.6007166,15.4113941 C87.0379754,15.4113941 86.580755,15.5298642 86.2290417,15.7668079 C85.8773285,16.0037516 85.6052175,16.3295442 85.4127008,16.7441956 L85.4127008,21.5311744 C85.6052175,21.9458258 85.8773285,22.2716184 86.2290417,22.5085621 C86.580755,22.7455058 87.0453798,22.8639758 87.62293,22.8639758 C88.0894128,22.8639758 88.4744405,22.7732722 88.7780246,22.5918622 C89.0816087,22.4104522 89.3241021,22.1587033 89.5055121,21.836608 C89.6869221,21.5145127 89.8146476,21.1331872 89.8886925,20.6926201 C89.9627374,20.2520529 89.9997593,19.7726194 89.9997593,19.2543051 L89.9997593,19.0210649 Z M103.572121,23.4526298 C103.164874,24.0523935 102.674334,24.5225716 102.100486,24.8631781 C101.526638,25.2037846 100.899117,25.3740853 100.217904,25.3740853 C99.595927,25.3740853 99.0257898,25.2778284 98.5074755,25.0853117 C97.9891612,24.8927949 97.5448985,24.5873643 97.174674,24.1690106 C96.8044495,23.750657 96.5175299,23.2175417 96.3139064,22.5696489 C96.1102829,21.921756 96.0084727,21.1424451 96.0084727,20.2316929 L96.0084727,13.1234182 L99.0961295,13.1234182 L99.0961295,20.2539062 C99.0961295,20.7426026 99.1313003,21.1535456 99.201643,21.4867476 C99.2719856,21.8199497 99.3849024,22.0883584 99.5403967,22.2919819 C99.695891,22.4956053 99.8995114,22.6418418 100.151264,22.7306957 C100.403017,22.8195496 100.710298,22.8639758 101.073118,22.8639758 C101.687691,22.8639758 102.187487,22.7473569 102.57252,22.5141155 C102.957554,22.280874 103.250027,21.9606346 103.449948,21.5533877 L103.449948,13.1234182 L106.548711,13.1234182 L106.548711,25.1408451 L103.749828,25.1408451 L103.572121,23.4526298 Z M118.188511,12.9012847 C118.654994,12.9012847 119.086299,12.9327533 119.482439,12.9956914 C119.878579,13.0586296 120.198819,13.1271201 120.443167,13.201165 L119.987793,16.2777151 C119.580546,16.1814568 119.16405,16.1092641 118.738292,16.0611349 C118.312533,16.0130057 117.907144,15.9889415 117.52211,15.9889415 C116.655785,15.9889415 115.961624,16.15554 115.439608,16.488742 C114.917591,16.8219441 114.52701,17.2995265 114.267853,17.9215036 L114.267853,25.1408451 L111.180196,25.1408451 L111.180196,13.1234182 L114.056826,13.1234182 L114.201213,15.0893005 C114.689909,14.4080874 115.274855,13.873121 115.956068,13.4843853 C116.637282,13.0956496 117.381422,12.9012847 118.188511,12.9012847 Z M133.415768,27.5509944 L123.286477,27.5509944 L123.286477,25.1408451 L133.415768,25.1408451 L133.415768,27.5509944 Z" id="Excalibur_" fill="#FFFFFF"></path>
                    <path d="M133.437981,11.0365317 L130.372538,11.0365317 L129.76927,13.1690141 L127.692905,13.1690141 L131.038939,2.95554577 L132.827699,2.95554577 L136.110599,13.1690141 L134.034235,13.1690141 L133.437981,11.0365317 Z M130.856555,9.3600077 L132.975008,9.3600077 L131.929811,5.60010453 L130.856555,9.3600077 Z M137.513548,2.3943662 L141.757469,2.3943662 L141.757469,11.5836818 L143.93204,11.5836818 L143.93204,13.1690141 L137.513548,13.1690141 L137.513548,11.5836818 L139.786325,11.5836818 L139.786325,3.98671325 L137.513548,3.98671325 L137.513548,2.3943662 Z M152.546146,9.44418464 C152.546146,9.99601398 152.481845,10.5080852 152.353241,10.9804137 C152.224636,11.4527422 152.03524,11.8607625 151.785046,12.2044867 C151.534852,12.5482109 151.225038,12.8182759 150.855593,13.0146897 C150.486147,13.2111035 150.062929,13.309309 149.585924,13.309309 C149.179067,13.309309 148.821318,13.2391622 148.512668,13.0988666 C148.204017,12.958571 147.935122,12.7621602 147.705972,12.5096281 L147.705972,16.0871479 L145.755873,16.0871479 L145.755873,5.5790603 L147.558663,5.5790603 L147.62881,6.32262324 C147.862636,6.04203205 148.138546,5.82457714 148.45655,5.67025198 C148.774553,5.51592683 149.146331,5.4387654 149.571894,5.4387654 C150.053576,5.4387654 150.479133,5.53112529 150.848578,5.71584782 C151.218023,5.90057036 151.529007,6.16245154 151.781539,6.50149923 C152.034071,6.84054692 152.224636,7.24739804 152.353241,7.72206481 C152.481845,8.19673158 152.546146,8.72166306 152.546146,9.296875 L152.546146,9.44418464 Z M150.596047,9.296875 C150.596047,8.97887165 150.566819,8.68074798 150.508363,8.40249505 C150.449906,8.12424212 150.358715,7.88340496 150.234788,7.67997634 C150.11086,7.47654773 149.951861,7.31637933 149.757785,7.19946633 C149.563709,7.08255333 149.328718,7.02409771 149.052803,7.02409771 C148.711417,7.02409771 148.431999,7.09073712 148.214541,7.22401794 C147.997083,7.35729875 147.827562,7.54552585 147.705972,7.78870489 L147.705972,10.9593695 C147.827562,11.197872 147.997083,11.3884373 148.214541,11.5310712 C148.431999,11.673705 148.716094,11.7450209 149.066833,11.7450209 C149.342747,11.7450209 149.577739,11.6842271 149.771814,11.5626375 C149.96589,11.441048 150.12372,11.2750341 150.24531,11.0645907 C150.366899,10.8541473 150.455752,10.6098028 150.51187,10.3315498 C150.567988,10.0532969 150.596047,9.75751147 150.596047,9.44418464 L150.596047,9.296875 Z M156.299034,6.62425726 C156.551567,6.25481219 156.859043,5.96487231 157.221473,5.75442892 C157.583904,5.54398552 157.989586,5.4387654 158.438532,5.4387654 C158.836036,5.4387654 159.200799,5.49839014 159.532832,5.6176414 C159.864865,5.73689265 160.150128,5.92278153 160.388631,6.1753136 C160.627133,6.42784567 160.813022,6.75168982 160.946303,7.14685574 C161.079584,7.54202167 161.146223,8.01785043 161.146223,8.57435629 L161.146223,13.1690141 L159.196124,13.1690141 L159.196124,8.5603268 C159.196124,8.28908865 159.16222,8.05526617 159.09441,7.85885233 C159.026601,7.6624385 158.929564,7.50343921 158.803298,7.38184969 C158.677032,7.26026018 158.525048,7.17023852 158.34734,7.11178202 C158.169632,7.05332552 157.968545,7.02409771 157.744072,7.02409771 C157.416715,7.02409771 157.132621,7.08255333 156.89178,7.19946633 C156.65094,7.31637933 156.45336,7.48005507 156.299034,7.69049846 L156.299034,13.1690141 L154.348935,13.1690141 L154.348935,2.3943662 L156.299034,2.3943662 L156.299034,6.62425726 Z M167.712024,13.1690141 C167.665259,13.0754837 167.625509,12.9679253 167.592773,12.8463358 C167.560038,12.7247463 167.531979,12.5961439 167.508597,12.4605249 C167.401037,12.5774379 167.277111,12.6873344 167.136815,12.7902179 C166.996519,12.8931013 166.841027,12.983123 166.670335,13.0602855 C166.499642,13.1374481 166.311414,13.198242 166.105648,13.2426689 C165.899881,13.2870958 165.677749,13.309309 165.439247,13.309309 C165.051096,13.309309 164.694516,13.2531916 164.369498,13.1409551 C164.04448,13.0287186 163.765062,12.8720576 163.531236,12.6709672 C163.29741,12.4698769 163.115029,12.2302088 162.984086,11.9519559 C162.853144,11.6737029 162.787673,11.3709028 162.787673,11.0435464 C162.787673,10.2438615 163.085797,9.62540106 163.682053,9.18814646 C164.27831,8.75089185 165.168004,8.53226783 166.351164,8.53226783 L167.438449,8.53226783 L167.438449,8.08332416 C167.438449,7.71855561 167.3192,7.42978484 167.080697,7.21700319 C166.842195,7.00422154 166.498476,6.89783231 166.04953,6.89783231 C165.652025,6.89783231 165.362086,6.98317751 165.179701,7.15387049 C164.997317,7.32456346 164.906126,7.55254039 164.906126,7.8378081 L162.956027,7.8378081 C162.956027,7.51512823 163.027343,7.20882077 163.169977,6.91887654 C163.312611,6.62893231 163.520713,6.3740658 163.794289,6.15426937 C164.067866,5.93447293 164.402232,5.76027518 164.797398,5.63167088 C165.192564,5.50306659 165.64501,5.4387654 166.154751,5.4387654 C166.61305,5.4387654 167.039776,5.4948828 167.434942,5.60711928 C167.830108,5.71935575 168.172658,5.88536972 168.462602,6.10516615 C168.752546,6.32496259 168.979354,6.60204223 169.143032,6.9364134 C169.30671,7.27078457 169.388548,7.65776079 169.388548,8.09735365 L169.388548,11.3521952 C169.388548,11.7590524 169.414269,12.0957568 169.46571,12.3623184 C169.517152,12.6288801 169.591975,12.8580261 169.690182,13.0497634 L169.690182,13.1690141 L167.712024,13.1690141 Z M165.853117,11.8011389 C166.049531,11.8011389 166.231912,11.7777566 166.400267,11.7309914 C166.568622,11.6842262 166.720606,11.6234324 166.856225,11.5486081 C166.991844,11.4737837 167.108756,11.3884385 167.206962,11.2925699 C167.305169,11.1967012 167.382331,11.0996649 167.438449,11.001458 L167.438449,9.69671545 L166.442355,9.69671545 C166.138382,9.69671545 165.878839,9.72594326 165.663719,9.78439976 C165.448599,9.84285626 165.273232,9.92469413 165.137613,10.0299158 C165.001994,10.1351375 164.90145,10.2614017 164.835979,10.408712 C164.770507,10.5560224 164.737772,10.7161908 164.737772,10.8892221 C164.737772,11.1511072 164.830132,11.3685621 165.014855,11.5415933 C165.199577,11.7146245 165.478995,11.8011389 165.853117,11.8011389 Z" id="Alpha" fill="#EF5777"></path>
                </g>
            </g>
        </g>
    </g>
</svg>