<?xml version="1.0" encoding="UTF-8"?>
<svg width="290px" height="100px" viewBox="0 0 290 100" version="1.1" xmlns="http://www.w3.org/2000/svg" xmlns:xlink="http://www.w3.org/1999/xlink">
    <!-- Generator: Sketch 51.2 (57519) - http://www.bohemiancoding.com/sketch -->
    <title>assets/excaliburInvite</title>
    <desc>Created with Sketch.</desc>
    <defs>
        <path d="M0,0 L255,0 C257.761424,-5.07265313e-16 260,2.23857625 260,5 L260,85 C260,87.7614237 257.761424,90 255,90 L0,90 L0,0 Z" id="path-1"></path>
        <path d="M48.5268381,0 L48.5268381,6.93240545 L62.391649,6.93240545 L62.391649,20.7972163 L69.3240545,20.7972163 L69.3240545,0 L48.5268381,0 Z M62.391649,20.7972163 L55.4592436,20.7972163 L55.4592436,27.7296218 L62.391649,27.7296218 L62.391649,20.7972163 Z M55.4592436,27.7296218 L48.5268381,27.7296218 L48.5268381,34.6620272 L55.4592436,34.6620272 L55.4592436,27.7296218 Z M48.5268381,34.6620272 L41.5944327,34.6620272 L41.5944327,41.5944327 L48.5268381,41.5944327 L48.5268381,34.6620272 Z M41.5944327,41.5944327 L34.6620272,41.5944327 L34.6620272,48.5268381 L41.5944327,48.5268381 L41.5944327,41.5944327 Z M34.6620272,48.5268381 L20.7972163,48.5268381 L20.7972163,55.4592436 L34.6620272,55.4592436 L34.6620272,48.5268381 Z M34.6620272,55.4592436 L34.6620272,62.391649 L27.7296218,62.391649 L27.7296218,69.3240545 L41.5944327,69.3240545 L41.5944327,55.4592436 L34.6620272,55.4592436 Z M20.7972163,55.4592436 L13.8648109,55.4592436 L13.8648109,62.391649 L20.7972163,62.391649 L20.7972163,55.4592436 Z M13.8648109,62.391649 L6.93240545,62.391649 L6.93240545,55.4592436 L0,55.4592436 L0,69.3240545 L13.8648109,69.3240545 L13.8648109,62.391649 Z M6.93240545,55.4592436 L13.8648109,55.4592436 L13.8648109,48.5268381 L6.93240545,48.5268381 L6.93240545,55.4592436 Z M13.8648109,48.5268381 L20.7972163,48.5268381 L20.7972163,34.6620272 L13.8648109,34.6620272 L13.8648109,48.5268381 Z M13.8648109,34.6620272 L13.8648109,27.7296218 L0,27.7296218 L0,41.5944327 L6.93240545,41.5944327 L6.93240545,34.6620272 L13.8648109,34.6620272 Z M20.7972163,34.6620272 L27.7296218,34.6620272 L27.7296218,27.7296218 L20.7972163,27.7296218 L20.7972163,34.6620272 Z M27.7296218,27.7296218 L34.6620272,27.7296218 L34.6620272,20.7972163 L27.7296218,20.7972163 L27.7296218,27.7296218 Z M34.6620272,20.7972163 L41.5944327,20.7972163 L41.5944327,13.8648109 L34.6620272,13.8648109 L34.6620272,20.7972163 Z M41.5944327,13.8648109 L48.5268381,13.8648109 L48.5268381,6.93240545 L41.5944327,6.93240545 L41.5944327,13.8648109 Z" id="path-3"></path>
        <filter x="-12.3%" y="-9.4%" width="124.5%" height="124.5%" filterUnits="objectBoundingBox" id="filter-4">
            <feOffset dx="0" dy="2" in="SourceAlpha" result="shadowOffsetOuter1"></feOffset>
            <feGaussianBlur stdDeviation="2.5" in="shadowOffsetOuter1" result="shadowBlurOuter1"></feGaussianBlur>
            <feColorMatrix values="0 0 0 0 0   0 0 0 0 0   0 0 0 0 0  0 0 0 0.2 0" type="matrix" in="shadowBlurOuter1"></feColorMatrix>
        </filter>
        <path d="M34.6620272,41.5944327 L34.6620272,48.5268381 L27.7296218,48.5268381 L20.7972163,48.5268381 L20.7972163,41.5944327 L20.7972163,34.6620272 L27.7296218,34.6620272 L27.7296218,27.7296218 L34.6620272,27.7296218 L34.6620272,20.7972163 L41.5944327,20.7972163 L41.5944327,13.8648109 L48.5268381,13.8648109 L48.5268381,6.93240545 L55.4592436,6.93240545 L62.391649,6.93240545 L62.391649,13.8648109 L62.391649,20.7972163 L55.4592436,20.7972163 L55.4592436,27.7296218 L48.5268381,27.7296218 L48.5268381,34.6620272 L41.5944327,34.6620272 L41.5944327,41.5944327 L34.6620272,41.5944327 Z" id="path-5"></path>
        <filter x="-20.4%" y="-15.6%" width="140.9%" height="140.9%" filterUnits="objectBoundingBox" id="filter-6">
            <feOffset dx="0" dy="2" in="SourceAlpha" result="shadowOffsetOuter1"></feOffset>
            <feGaussianBlur stdDeviation="2.5" in="shadowOffsetOuter1" result="shadowBlurOuter1"></feGaussianBlur>
            <feColorMatrix values="0 0 0 0 0   0 0 0 0 0   0 0 0 0 0  0 0 0 0.2 0" type="matrix" in="shadowBlurOuter1"></feColorMatrix>
        </filter>
        <linearGradient x1="-33.0578314%" y1="133.716883%" x2="100%" y2="0%" id="linearGradient-7">
            <stop stop-color="#EF5777" offset="0%"></stop>
            <stop stop-color="#E97C93" offset="100%"></stop>
        </linearGradient>
    </defs>
    <g id="assets/excaliburInvite" stroke="none" stroke-width="1" fill="none" fill-rule="evenodd">
        <g id="Shape-Copy" transform="translate(30.000000, 5.000000)">
            <mask id="mask-2" fill="white">
                <use xlink:href="#path-1"></use>
            </mask>
            <use id="Mask" fill="#474747" xlink:href="#path-1"></use>
            <path d="M30.1035156,25.6875 L28.0234375,25.6875 L28.0234375,31 L25.2792969,31 L25.2792969,16.78125 L30.0449219,16.78125 C30.8326862,16.78125 31.5455697,16.8740225 32.1835938,17.0595703 C32.8216178,17.2451181 33.3668597,17.5169253 33.8193359,17.875 C34.2718122,18.2330747 34.620116,18.6790338 34.8642578,19.2128906 C35.1083997,19.7467475 35.2304688,20.3652309 35.2304688,21.0683594 C35.2304688,21.5761744 35.170248,22.0335266 35.0498047,22.4404297 C34.9293614,22.8473328 34.7568371,23.2119125 34.5322266,23.5341797 C34.3076161,23.8564469 34.0374365,24.1380196 33.7216797,24.3789062 C33.4059229,24.6197929 33.0527363,24.8281241 32.6621094,25.0039062 L35.71875,30.8730469 L35.71875,31 L32.7792969,31 L30.1035156,25.6875 Z M28.0234375,23.4609375 L30.0546875,23.4609375 C30.829431,23.4609375 31.4267557,23.2639994 31.8466797,22.8701172 C32.2666037,22.476235 32.4765625,21.9375034 32.4765625,21.2539062 C32.4765625,20.5442673 32.2714864,19.992515 31.8613281,19.5986328 C31.4511698,19.2047506 30.8457071,19.0078125 30.0449219,19.0078125 L28.0234375,19.0078125 L28.0234375,23.4609375 Z M46.03125,24.7695312 L40.1914062,24.7695312 L40.1914062,28.7832031 L47.0175781,28.7832031 L47.0175781,31 L37.4375,31 L37.4375,16.78125 L46.9882812,16.78125 L46.9882812,19.0175781 L40.1914062,19.0175781 L40.1914062,22.6015625 L46.03125,22.6015625 L46.03125,24.7695312 Z M59.2929688,25.3652344 C59.2864583,26.2376346 59.1350926,27.0595665 58.8388672,27.8310547 C58.5426417,28.6025429 58.1080758,29.261716 57.5351562,29.8085938 L59.8886719,31.9375 L58.1210938,33.5097656 L55.4160156,31.0097656 C55.1881499,31.0683597 54.9554048,31.1139321 54.7177734,31.1464844 C54.480142,31.1790366 54.2343763,31.1953125 53.9804688,31.1953125 C53.1601521,31.1953125 52.4309928,31.0374365 51.7929688,30.7216797 C51.1549447,30.4059229 50.6162131,29.9794949 50.1767578,29.4423828 C49.7373025,28.9052708 49.403647,28.2851598 49.1757812,27.5820312 C48.9479155,26.8789027 48.8339844,26.1399778 48.8339844,25.3652344 L48.8339844,22.9042969 C48.8339844,21.9863235 48.9479155,21.1416054 49.1757812,20.3701172 C49.403647,19.598629 49.7373025,18.9329455 50.1767578,18.3730469 C50.6162131,17.8131482 51.1549447,17.3753271 51.7929688,17.0595703 C52.4309928,16.7438135 53.1601521,16.5859375 53.9804688,16.5859375 C54.8072958,16.5859375 55.5494759,16.7438135 56.2070312,17.0595703 C56.8645866,17.3753271 57.4212217,17.8131482 57.8769531,18.3730469 C58.3326846,18.9329455 58.682616,19.598629 58.9267578,20.3701172 C59.1708997,21.1416054 59.2929688,21.9863235 59.2929688,22.9042969 L59.2929688,25.3652344 Z M56.5097656,22.8847656 C56.5097656,22.2988252 56.4625656,21.7600936 56.3681641,21.2685547 C56.2737625,20.7770158 56.1256521,20.3522153 55.9238281,19.9941406 C55.7220042,19.6360659 55.4615901,19.3577484 55.1425781,19.1591797 C54.8235661,18.960611 54.4362002,18.8613281 53.9804688,18.8613281 C53.5312478,18.8613281 53.155275,18.9622386 52.8525391,19.1640625 C52.5498032,19.3658864 52.3072926,19.644204 52.125,19.9990234 C51.9427074,20.3538429 51.8125004,20.7770158 51.734375,21.2685547 C51.6562496,21.7600936 51.6171875,22.2988252 51.6171875,22.8847656 L51.6171875,25.3652344 C51.6171875,25.8079449 51.6562496,26.2425109 51.734375,26.6689453 C51.8125004,27.0953797 51.9427074,27.4762353 52.125,27.8115234 C52.3072926,28.1468116 52.5498032,28.4186188 52.8525391,28.6269531 C53.155275,28.8352875 53.5312478,28.9394531 53.9804688,28.9394531 C54.4362002,28.9394531 54.8235661,28.8369151 55.1425781,28.6318359 C55.4615901,28.4267568 55.7220042,28.1549496 55.9238281,27.8164062 C56.1256521,27.4778629 56.2737625,27.0953797 56.3681641,26.6689453 C56.4625656,26.2425109 56.5097656,25.8079449 56.5097656,25.3652344 L56.5097656,22.8847656 Z M70.7578125,16.78125 L70.7675781,26.2050781 C70.7675781,26.9993529 70.6585297,27.7057261 70.4404297,28.3242188 C70.2223296,28.9427114 69.9065776,29.4651671 69.4931641,29.8916016 C69.0797505,30.318036 68.5751983,30.641926 67.9794922,30.8632812 C67.3837861,31.0846365 66.7050819,31.1953125 65.9433594,31.1953125 C65.22721,31.1953125 64.5810576,31.0846365 64.0048828,30.8632812 C63.4287081,30.641926 62.9355489,30.3196636 62.5253906,29.8964844 C62.1152323,29.4733052 61.7978527,28.9508495 61.5732422,28.3291016 C61.3486317,27.7073537 61.2363281,26.9993529 61.2363281,26.2050781 L61.2460938,16.78125 L63.9902344,16.78125 L64,26.2050781 C64.0065104,27.1230515 64.174152,27.8164039 64.5029297,28.2851562 C64.8317074,28.7539086 65.3118458,28.9882812 65.9433594,28.9882812 C66.6139356,28.9882812 67.1266258,28.7539086 67.4814453,28.2851562 C67.8362648,27.8164039 68.0169271,27.1230515 68.0234375,26.2050781 L68.0332031,16.78125 L70.7578125,16.78125 Z M82.0371094,24.7695312 L76.1972656,24.7695312 L76.1972656,28.7832031 L83.0234375,28.7832031 L83.0234375,31 L73.4433594,31 L73.4433594,16.78125 L82.9941406,16.78125 L82.9941406,19.0175781 L76.1972656,19.0175781 L76.1972656,22.6015625 L82.0371094,22.6015625 L82.0371094,24.7695312 Z M92.671875,27.2890625 C92.671875,27.035155 92.6279301,26.7975271 92.5400391,26.5761719 C92.452148,26.3548166 92.3024099,26.1481129 92.0908203,25.9560547 C91.8792307,25.7639964 91.6025408,25.5882169 91.2607422,25.4287109 C90.9189436,25.2692049 90.4941432,25.1210944 89.9863281,24.984375 C89.3678354,24.8151033 88.777021,24.6035169 88.2138672,24.3496094 C87.6507133,24.0957019 87.154299,23.7897153 86.7246094,23.4316406 C86.2949197,23.0735659 85.9514987,22.6569034 85.6943359,22.1816406 C85.4371732,21.7063778 85.3085938,21.1595083 85.3085938,20.5410156 C85.3085938,19.9420543 85.4355456,19.3984399 85.6894531,18.9101562 C85.9433606,18.4218726 86.2949196,18.0052101 86.7441406,17.6601562 C87.1933616,17.3151024 87.7239553,17.0498056 88.3359375,16.8642578 C88.9479197,16.67871 89.6119756,16.5859375 90.328125,16.5859375 C91.0703162,16.5859375 91.7490204,16.6933583 92.3642578,16.9082031 C92.9794953,17.1230479 93.5084613,17.4241517 93.9511719,17.8115234 C94.3938824,18.1988952 94.7389311,18.6595025 94.9863281,19.1933594 C95.2337252,19.7272162 95.3574219,20.3131479 95.3574219,20.9511719 L92.6816406,20.9511719 C92.6686197,20.6321599 92.6116542,20.339194 92.5107422,20.0722656 C92.4098302,19.8053372 92.2600921,19.5758473 92.0615234,19.3837891 C91.8629547,19.1917308 91.6155614,19.0419927 91.3193359,18.9345703 C91.0231105,18.8271479 90.6764343,18.7734375 90.2792969,18.7734375 C89.9147117,18.7734375 89.5908217,18.8173824 89.3076172,18.9052734 C89.0244126,18.9931645 88.7851572,19.1168612 88.5898438,19.2763672 C88.3945303,19.4358732 88.2464198,19.6246734 88.1455078,19.8427734 C88.0445958,20.0608735 87.9941406,20.2968737 87.9941406,20.5507812 C87.9941406,20.8177097 88.0608717,21.0585927 88.1943359,21.2734375 C88.3278001,21.4882823 88.5214831,21.6819653 88.7753906,21.8544922 C89.0292981,22.0270191 89.3369123,22.1848951 89.6982422,22.328125 C90.0595721,22.4713549 90.4680967,22.6048171 90.9238281,22.7285156 C91.574873,22.9173187 92.1738254,23.1484361 92.7207031,23.421875 C93.2675809,23.6953139 93.7379538,24.0192039 94.1318359,24.3935547 C94.5257181,24.7679055 94.8317046,25.1943335 95.0498047,25.6728516 C95.2679047,26.1513696 95.3769531,26.6835908 95.3769531,27.2695312 C95.3769531,27.8945344 95.2516289,28.4495418 95.0009766,28.9345703 C94.7503243,29.4195988 94.403648,29.8297509 93.9609375,30.1650391 C93.518227,30.5003272 92.9908885,30.7542309 92.3789062,30.9267578 C91.766924,31.0992847 91.099613,31.1855469 90.3769531,31.1855469 C89.9277321,31.1855469 89.4801455,31.1448572 89.0341797,31.0634766 C88.5882139,30.9820959 88.1617859,30.8567717 87.7548828,30.6875 C87.3479797,30.5182283 86.9687518,30.3066419 86.6171875,30.0527344 C86.2656232,29.7988269 85.9612643,29.5026059 85.7041016,29.1640625 C85.4469388,28.8255191 85.2451179,28.4414084 85.0986328,28.0117188 C84.9521477,27.5820291 84.8789062,27.1067734 84.8789062,26.5859375 L87.5742188,26.5859375 C87.5872396,27.0156271 87.6621087,27.383462 87.7988281,27.6894531 C87.9355476,27.9954442 88.1259753,28.2460928 88.3701172,28.4414062 C88.614259,28.6367197 88.9072249,28.7799475 89.2490234,28.8710938 C89.590822,28.96224 89.9667948,29.0078125 90.3769531,29.0078125 C90.7415383,29.0078125 91.0654283,28.9654952 91.3486328,28.8808594 C91.6318374,28.7962235 91.8710928,28.6790372 92.0664062,28.5292969 C92.2617197,28.3795565 92.4114578,28.1988943 92.515625,27.9873047 C92.6197922,27.7757151 92.671875,27.54297 92.671875,27.2890625 Z M107.740234,19.0175781 L103.355469,19.0175781 L103.355469,31 L100.601562,31 L100.601562,19.0175781 L96.2753906,19.0175781 L96.2753906,16.78125 L107.740234,16.78125 L107.740234,19.0175781 Z M128.287109,28.03125 L124.019531,28.03125 L123.179688,31 L120.289062,31 L124.947266,16.78125 L127.4375,16.78125 L132.007812,31 L129.117188,31 L128.287109,28.03125 Z M124.693359,25.6972656 L127.642578,25.6972656 L126.1875,20.4628906 L124.693359,25.6972656 Z M142.671875,31 L139.9375,31 L135.982422,21.8300781 L135.982422,31 L133.21875,31 L133.21875,16.78125 L135.982422,16.78125 L139.908203,25.9121094 L139.917969,16.78125 L142.671875,16.78125 L142.671875,31 Z M157.90625,16.78125 L166.128906,16.78125 L166.128906,18.9980469 L163.355469,18.9980469 L163.355469,28.7929688 L166.128906,28.7929688 L166.128906,31 L157.90625,31 L157.90625,28.7929688 L160.611328,28.7929688 L160.611328,18.9980469 L157.90625,18.9980469 L157.90625,16.78125 Z M178.677734,31 L175.943359,31 L171.988281,21.8300781 L171.988281,31 L169.224609,31 L169.224609,16.78125 L171.988281,16.78125 L175.914062,25.9121094 L175.923828,16.78125 L178.677734,16.78125 L178.677734,31 Z M186.011719,27.0253906 L188.697266,16.78125 L191.724609,16.78125 L187.417969,31 L184.625,31 L180.328125,16.78125 L183.355469,16.78125 L186.011719,27.0253906 Z M193.912109,16.78125 L202.134766,16.78125 L202.134766,18.9980469 L199.361328,18.9980469 L199.361328,28.7929688 L202.134766,28.7929688 L202.134766,31 L193.912109,31 L193.912109,28.7929688 L196.617188,28.7929688 L196.617188,18.9980469 L193.912109,18.9980469 L193.912109,16.78125 Z M215.757812,19.0175781 L211.373047,19.0175781 L211.373047,31 L208.619141,31 L208.619141,19.0175781 L204.292969,19.0175781 L204.292969,16.78125 L215.757812,16.78125 L215.757812,19.0175781 Z M226.060547,24.7695312 L220.220703,24.7695312 L220.220703,28.7832031 L227.046875,28.7832031 L227.046875,31 L217.466797,31 L217.466797,16.78125 L227.017578,16.78125 L227.017578,19.0175781 L220.220703,19.0175781 L220.220703,22.6015625 L226.060547,22.6015625 L226.060547,24.7695312 Z" id="REQUEST-AN-INVITE" fill="#FFFFFF" mask="url(#mask-2)"></path>
            <g id="Minecraft-Sword-595b40b75ba036ed117d98cb-Copy-2" mask="url(#mask-2)" fill-opacity="1" fill-rule="nonzero">
                <g transform="translate(5.332777, 45.989649) rotate(-45.000000) translate(-5.332777, -45.989649) translate(-29.667223, 10.989649)">
                    <g id="Shape">
                        <use fill="black" filter="url(#filter-4)" xlink:href="#path-3"></use>
                    </g>
                    <g id="Combined-Shape">
                        <use fill="black" filter="url(#filter-6)" xlink:href="#path-5"></use>
                    </g>
                </g>
            </g>
        </g>
        <g id="Minecraft-Sword-595b40b75ba036ed117d98cb-Copy" transform="translate(29.890674, 49.986815) rotate(-45.000000) translate(-29.890674, -49.986815) translate(-5.109326, 14.986815)" fill-rule="nonzero">
            <path d="M48.5268381,0 L48.5268381,6.93240545 L62.391649,6.93240545 L62.391649,20.7972163 L69.3240545,20.7972163 L69.3240545,0 L48.5268381,0 Z M62.391649,20.7972163 L55.4592436,20.7972163 L55.4592436,27.7296218 L62.391649,27.7296218 L62.391649,20.7972163 Z M55.4592436,27.7296218 L48.5268381,27.7296218 L48.5268381,34.6620272 L55.4592436,34.6620272 L55.4592436,27.7296218 Z M48.5268381,34.6620272 L41.5944327,34.6620272 L41.5944327,41.5944327 L48.5268381,41.5944327 L48.5268381,34.6620272 Z M41.5944327,41.5944327 L34.6620272,41.5944327 L34.6620272,48.5268381 L41.5944327,48.5268381 L41.5944327,41.5944327 Z M34.6620272,48.5268381 L20.7972163,48.5268381 L20.7972163,55.4592436 L34.6620272,55.4592436 L34.6620272,48.5268381 Z M34.6620272,55.4592436 L34.6620272,62.391649 L27.7296218,62.391649 L27.7296218,69.3240545 L41.5944327,69.3240545 L41.5944327,55.4592436 L34.6620272,55.4592436 Z M20.7972163,55.4592436 L13.8648109,55.4592436 L13.8648109,62.391649 L20.7972163,62.391649 L20.7972163,55.4592436 Z M13.8648109,62.391649 L6.93240545,62.391649 L6.93240545,55.4592436 L0,55.4592436 L0,69.3240545 L13.8648109,69.3240545 L13.8648109,62.391649 Z M6.93240545,55.4592436 L13.8648109,55.4592436 L13.8648109,48.5268381 L6.93240545,48.5268381 L6.93240545,55.4592436 Z M13.8648109,48.5268381 L20.7972163,48.5268381 L20.7972163,34.6620272 L13.8648109,34.6620272 L13.8648109,48.5268381 Z M13.8648109,34.6620272 L13.8648109,27.7296218 L0,27.7296218 L0,41.5944327 L6.93240545,41.5944327 L6.93240545,34.6620272 L13.8648109,34.6620272 Z M20.7972163,34.6620272 L27.7296218,34.6620272 L27.7296218,27.7296218 L20.7972163,27.7296218 L20.7972163,34.6620272 Z M27.7296218,27.7296218 L34.6620272,27.7296218 L34.6620272,20.7972163 L27.7296218,20.7972163 L27.7296218,27.7296218 Z M34.6620272,20.7972163 L41.5944327,20.7972163 L41.5944327,13.8648109 L34.6620272,13.8648109 L34.6620272,20.7972163 Z M41.5944327,13.8648109 L48.5268381,13.8648109 L48.5268381,6.93240545 L41.5944327,6.93240545 L41.5944327,13.8648109 Z" id="Shape" fill="#121212"></path>
            <path d="M34.6620272,41.5944327 L34.6620272,48.5268381 L27.7296218,48.5268381 L20.7972163,48.5268381 L20.7972163,41.5944327 L20.7972163,34.6620272 L27.7296218,34.6620272 L27.7296218,27.7296218 L34.6620272,27.7296218 L34.6620272,20.7972163 L41.5944327,20.7972163 L41.5944327,13.8648109 L48.5268381,13.8648109 L48.5268381,6.93240545 L55.4592436,6.93240545 L62.391649,6.93240545 L62.391649,13.8648109 L62.391649,20.7972163 L55.4592436,20.7972163 L55.4592436,27.7296218 L48.5268381,27.7296218 L48.5268381,34.6620272 L41.5944327,34.6620272 L41.5944327,41.5944327 L34.6620272,41.5944327 Z" id="Combined-Shape" fill="url(#linearGradient-7)"></path>
        </g>
        <polygon id="Path-3" fill="#FFFFFF" points="265.5 22.5 272.5 29.5 265.5 36.5 265.5 35 271 29.5 265.5 24"></polygon>
        <g id="logo/identity/excaliburOutlines" transform="translate(102.520579, 55.609800)">
            <g id="logo" transform="translate(0.000000, -3.600000)">
                <path d="M10.2222656,18.0972656 L3.56484375,18.0972656 L3.56484375,22.6728516 L11.3466797,22.6728516 L11.3466797,25.2 L0.425390625,25.2 L0.425390625,8.990625 L11.3132812,8.990625 L11.3132812,11.5400391 L3.56484375,11.5400391 L3.56484375,15.6257812 L10.2222656,15.6257812 L10.2222656,18.0972656 Z M19.5515625,16.9171875 L22.2011719,13.1542969 L25.5298828,13.1542969 L21.4886719,19.0658203 L25.6746094,25.2 L22.3347656,25.2 L19.5626953,21.2589844 L16.8128906,25.2 L13.4619141,25.2 L17.6478516,19.0658203 L13.6177734,13.1542969 L16.9464844,13.1542969 L19.5515625,16.9171875 Z M33.0556641,22.9511719 C33.3599625,22.9511719 33.6494127,22.9066411 33.9240234,22.8175781 C34.1986342,22.7285152 34.4398427,22.6023446 34.6476562,22.4390625 C34.8554698,22.2757804 35.016894,22.0791027 35.1319336,21.8490234 C35.2469732,21.6189442 35.2970704,21.362892 35.2822266,21.0808594 L38.1990234,21.0808594 C38.2138673,21.7043 38.0858412,22.2832005 37.8149414,22.8175781 C37.5440416,23.3519558 37.174807,23.8121074 36.7072266,24.1980469 C36.2396461,24.5839863 35.6959992,24.8864247 35.0762695,25.1053711 C34.4565399,25.3243175 33.801566,25.4337891 33.1113281,25.4337891 C32.1761672,25.4337891 31.3560582,25.2760758 30.6509766,24.9606445 C29.9458949,24.6452133 29.3577172,24.2128934 28.8864258,23.6636719 C28.4151344,23.1144504 28.0588879,22.4706092 27.8176758,21.7321289 C27.5764636,20.9936487 27.4558594,20.2013714 27.4558594,19.3552734 L27.4558594,19.0212891 C27.4558594,18.1751911 27.5746082,17.3829138 27.8121094,16.6444336 C28.0496106,15.9059533 28.405857,15.2621121 28.8808594,14.7128906 C29.3558617,14.1636691 29.9440395,13.7294938 30.6454102,13.4103516 C31.3467809,13.0912093 32.1613235,12.9316406 33.0890625,12.9316406 C33.8312537,12.9316406 34.5177703,13.0429676 35.1486328,13.265625 C35.7794953,13.4882824 36.3231422,13.8018534 36.7795898,14.2063477 C37.2360374,14.6108419 37.5904284,15.1006807 37.8427734,15.6758789 C38.0951184,16.2510771 38.2138673,16.8949183 38.1990234,17.6074219 L35.2822266,17.6074219 C35.2970704,17.3105454 35.2525396,17.028517 35.1486328,16.7613281 C35.044726,16.4941393 34.8925791,16.2640635 34.6921875,16.0710937 C34.4917959,15.878124 34.2505873,15.7241217 33.9685547,15.609082 C33.686522,15.4940424 33.3785173,15.4365234 33.0445312,15.4365234 C32.5546851,15.4365234 32.1501969,15.5367177 31.8310547,15.7371094 C31.5119125,15.937501 31.2577158,16.2046858 31.068457,16.5386719 C30.8791983,16.8726579 30.7456059,17.2548807 30.6676758,17.6853516 C30.5897457,18.1158225 30.5507812,18.5611305 30.5507812,19.0212891 L30.5507812,19.3552734 C30.5507812,19.8228539 30.5878903,20.2737283 30.6621094,20.7079102 C30.7363285,21.142092 30.8680655,21.5243148 31.0573242,21.8545898 C31.246583,22.1848649 31.5026351,22.4501943 31.8254883,22.6505859 C32.1483415,22.8509776 32.558396,22.9511719 33.0556641,22.9511719 Z M48.9310547,25.2 C48.8568356,25.0515618 48.7937503,24.8808603 48.7417969,24.6878906 C48.6898435,24.4949209 48.6453127,24.2908214 48.6082031,24.0755859 C48.4374991,24.2611337 48.2408214,24.4355461 48.0181641,24.5988281 C47.7955067,24.7621102 47.5487318,24.9049799 47.277832,25.0274414 C47.0069322,25.149903 46.7082048,25.2463864 46.3816406,25.3168945 C46.0550765,25.3874027 45.702541,25.4226563 45.3240234,25.4226563 C44.7080047,25.4226563 44.1420924,25.3335946 43.6262695,25.1554687 C43.1104466,24.9773429 42.666994,24.7287125 42.2958984,24.4095703 C41.9248028,24.0904281 41.6353526,23.7100608 41.4275391,23.268457 C41.2197255,22.8268533 41.1158203,22.3462917 41.1158203,21.8267578 C41.1158203,20.5576108 41.5889601,19.5760777 42.5352539,18.8821289 C43.4815477,18.1881801 44.8935453,17.8412109 46.7712891,17.8412109 L48.496875,17.8412109 L48.496875,17.1287109 C48.496875,16.5498018 48.3076191,16.0915056 47.9291016,15.7538086 C47.550584,15.4161116 47.0050817,15.2472656 46.2925781,15.2472656 C45.6617156,15.2472656 45.2015639,15.3827135 44.9121094,15.6536133 C44.6226548,15.9245131 44.4779297,16.2863259 44.4779297,16.7390625 L41.3830078,16.7390625 C41.3830078,16.2269506 41.4961903,15.7408226 41.7225586,15.2806641 C41.9489269,14.8205055 42.279197,14.4160174 42.7133789,14.0671875 C43.1475608,13.7183576 43.6782195,13.4418956 44.3053711,13.237793 C44.9325227,13.0336904 45.6505819,12.9316406 46.4595703,12.9316406 C47.1869177,12.9316406 47.864157,13.0207022 48.4913086,13.1988281 C49.1184602,13.376954 49.6621071,13.6404279 50.1222656,13.9892578 C50.5824242,14.3380877 50.9423815,14.7778294 51.2021484,15.3084961 C51.4619154,15.8391628 51.5917969,16.4533168 51.5917969,17.1509766 L51.5917969,22.3166016 C51.5917969,22.9623079 51.6326168,23.4966776 51.7142578,23.9197266 C51.7958988,24.3427756 51.9146477,24.7064438 52.0705078,25.0107422 L52.0705078,25.2 L48.9310547,25.2 Z M45.9808594,23.0291016 C46.2925797,23.0291016 46.5820299,22.9919926 46.8492187,22.9177734 C47.1164076,22.8435543 47.3576161,22.7470709 47.5728516,22.6283203 C47.788087,22.5095697 47.973632,22.3741219 48.1294922,22.2219727 C48.2853523,22.0698235 48.4078121,21.9158211 48.496875,21.7599609 L48.496875,19.6892578 L46.9160156,19.6892578 C46.4335913,19.6892578 46.0216814,19.7356441 45.6802734,19.828418 C45.3388655,19.9211919 45.060548,20.0510734 44.8453125,20.2180664 C44.630077,20.3850594 44.4705083,20.585448 44.3666016,20.8192383 C44.2626948,21.0530285 44.2107422,21.3072252 44.2107422,21.5818359 C44.2107422,21.997463 44.3573228,22.3425768 44.6504883,22.6171875 C44.9436538,22.8917982 45.3871064,23.0291016 45.9808594,23.0291016 Z M55.7332031,8.1 L62.4685547,8.1 L62.4685547,22.6839844 L65.9197266,22.6839844 L65.9197266,25.2 L55.7332031,25.2 L55.7332031,22.6839844 L59.3402344,22.6839844 L59.3402344,10.6271484 L55.7332031,10.6271484 L55.7332031,8.1 Z M69.5935547,13.1542969 L76.1507813,13.1542969 L76.1507813,22.6839844 L79.4126953,22.6839844 L79.4126953,25.2 L69.5935547,25.2 L69.5935547,22.6839844 L73.0224609,22.6839844 L73.0224609,15.6814453 L69.5935547,15.6814453 L69.5935547,13.1542969 Z M72.7998047,10.0705078 C72.7998047,9.83300663 72.84248,9.61220805 72.927832,9.40810547 C73.013184,9.20400289 73.1337883,9.02959057 73.2896484,8.88486328 C73.4455086,8.740136 73.6329091,8.62695353 73.8518555,8.5453125 C74.0708019,8.46367147 74.3138659,8.42285156 74.5810547,8.42285156 C75.1302762,8.42285156 75.566307,8.57685393 75.8891602,8.88486328 C76.2120133,9.19287263 76.3734375,9.58808353 76.3734375,10.0705078 C76.3734375,10.5529321 76.2120133,10.948143 75.8891602,11.2561523 C75.566307,11.5641617 75.1302762,11.7181641 74.5810547,11.7181641 C74.3138659,11.7181641 74.0708019,11.6773442 73.8518555,11.5957031 C73.6329091,11.5140621 73.4455086,11.4008796 73.2896484,11.2561523 C73.1337883,11.1114251 73.013184,10.9370127 72.927832,10.7329102 C72.84248,10.5288076 72.7998047,10.308009 72.7998047,10.0705078 Z M93.3064453,19.2996094 C93.3064453,20.1976607 93.2081065,21.0214806 93.0114258,21.7710937 C92.8147451,22.5207069 92.5197285,23.1664035 92.1263672,23.7082031 C91.7330058,24.2500027 91.243167,24.6711899 90.6568359,24.9717773 C90.0705049,25.2723648 89.3876992,25.4226562 88.6083984,25.4226562 C87.9033168,25.4226562 87.2928737,25.2909193 86.7770508,25.0274414 C86.2612279,24.7639635 85.8177753,24.3947289 85.4466797,23.9197266 L85.3019531,25.2 L82.51875,25.2 L82.51875,8.1 L85.6136719,8.1 L85.6136719,14.2453125 C85.9699237,13.8296854 86.3911109,13.5068371 86.8772461,13.2767578 C87.3633813,13.0466785 87.9330045,12.9316406 88.5861328,12.9316406 C89.3728555,12.9316406 90.0612275,13.0837875 90.6512695,13.3880859 C91.2413115,13.6923843 91.7330058,14.115427 92.1263672,14.6572266 C92.5197285,15.1990261 92.8147451,15.8465783 93.0114258,16.5999023 C93.2081065,17.3532264 93.3064453,18.1751909 93.3064453,19.0658203 L93.3064453,19.2996094 Z M90.2115234,19.0658203 C90.2115234,18.5759741 90.1744144,18.1121116 90.1001953,17.6742188 C90.0259762,17.2363259 89.8979501,16.8522477 89.7161133,16.5219727 C89.5342764,16.1916976 89.2875016,15.9300791 88.9757813,15.7371094 C88.6640609,15.5441397 88.2744164,15.4476563 87.8068359,15.4476563 C87.2427706,15.4476563 86.7844744,15.5664051 86.4319336,15.8039063 C86.0793928,16.0414074 85.8066416,16.3679667 85.6136719,16.7835938 L85.6136719,21.5818359 C85.8066416,21.997463 86.0793928,22.3240222 86.4319336,22.5615234 C86.7844744,22.7990246 87.2501924,22.9177734 87.8291016,22.9177734 C88.296682,22.9177734 88.6826157,22.8268564 88.9869141,22.6450195 C89.2912125,22.4631827 89.5342764,22.2108415 89.7161133,21.8879883 C89.8979501,21.5651351 90.0259762,21.1829124 90.1001953,20.7413086 C90.1744144,20.2997048 90.2115234,19.8191432 90.2115234,19.2996094 L90.2115234,19.0658203 Z M103.81582,23.5078125 C103.407615,24.1089874 102.915921,24.5802717 102.340723,24.9216797 C101.765524,25.2630876 101.136527,25.4337891 100.453711,25.4337891 C99.8302703,25.4337891 99.2587917,25.3373057 98.7392578,25.1443359 C98.219724,24.9513662 97.7744159,24.6452169 97.4033203,24.2258789 C97.0322247,23.8065409 96.7446299,23.2721712 96.5405273,22.6227539 C96.3364248,21.9733366 96.234375,21.1921921 96.234375,20.2792969 L96.234375,13.1542969 L99.3292969,13.1542969 L99.3292969,20.3015625 C99.3292969,20.7914087 99.3645504,21.2033186 99.4350586,21.5373047 C99.5055668,21.8712907 99.6187492,22.140331 99.7746094,22.3444336 C99.9304695,22.5485362 100.134569,22.6951167 100.386914,22.7841797 C100.639259,22.8732426 100.947264,22.9177734 101.310937,22.9177734 C101.926956,22.9177734 102.427928,22.8008801 102.813867,22.5670898 C103.199807,22.3332996 103.492968,22.0123067 103.693359,21.6041016 L103.693359,13.1542969 L106.799414,13.1542969 L106.799414,25.2 L103.993945,25.2 L103.81582,23.5078125 Z M118.466602,12.9316406 C118.934182,12.9316406 119.366502,12.9631833 119.763574,13.0262695 C120.160647,13.0893558 120.481639,13.1580074 120.726563,13.2322266 L120.270117,16.3160156 C119.861912,16.2195308 119.444436,16.1471682 119.017676,16.0989258 C118.590916,16.0506834 118.184572,16.0265625 117.798633,16.0265625 C116.930269,16.0265625 116.234475,16.193553 115.71123,16.5275391 C115.187986,16.8615251 114.796486,17.3402313 114.536719,17.9636719 L114.536719,25.2 L111.441797,25.2 L111.441797,13.1542969 L114.325195,13.1542969 L114.469922,15.1248047 C114.959768,14.4419888 115.54609,13.9057637 116.228906,13.5161133 C116.911722,13.1264629 117.657613,12.9316406 118.466602,12.9316406 Z M133.729687,27.6158203 L123.576562,27.6158203 L123.576562,25.2 L133.729687,25.2 L133.729687,27.6158203 Z" id="Excalibur_" fill="#FFFFFF"></path>
                <path d="M133.751953,11.0625 L130.679297,11.0625 L130.074609,13.2 L127.993359,13.2 L131.347266,2.9625 L133.140234,2.9625 L136.430859,13.2 L134.349609,13.2 L133.751953,11.0625 Z M131.164453,9.38203125 L133.287891,9.38203125 L132.240234,5.61328125 L131.164453,9.38203125 Z M137.837109,2.4 L142.091016,2.4 L142.091016,11.6109375 L144.270703,11.6109375 L144.270703,13.2 L137.837109,13.2 L137.837109,11.6109375 L140.115234,11.6109375 L140.115234,3.99609375 L137.837109,3.99609375 L137.837109,2.4 Z M152.905078,9.46640625 C152.905078,10.019534 152.840626,10.5328101 152.711719,11.00625 C152.582812,11.4796899 152.39297,11.8886702 152.142188,12.2332031 C151.891405,12.5777361 151.580861,12.8484365 151.210547,13.0453125 C150.840233,13.2421885 150.416018,13.340625 149.937891,13.340625 C149.530076,13.340625 149.171486,13.2703132 148.862109,13.1296875 C148.552733,12.9890618 148.283204,12.7921888 148.053516,12.5390625 L148.053516,16.125 L146.098828,16.125 L146.098828,5.5921875 L147.905859,5.5921875 L147.976172,6.3375 C148.210548,6.05624859 148.487108,5.83828202 148.805859,5.68359375 C149.124611,5.52890548 149.497263,5.4515625 149.923828,5.4515625 C150.406643,5.4515625 150.833201,5.5441397 151.203516,5.72929688 C151.57383,5.91445405 151.885546,6.17695143 152.138672,6.51679688 C152.391798,6.85664232 152.582812,7.26445075 152.711719,7.74023438 C152.840626,8.216018 152.905078,8.74218462 152.905078,9.31875 L152.905078,9.46640625 Z M150.950391,9.31875 C150.950391,8.99999841 150.921094,8.70117327 150.8625,8.42226562 C150.803906,8.14335798 150.712501,7.90195414 150.588281,7.69804687 C150.464062,7.49413961 150.304688,7.33359434 150.110156,7.21640625 C149.915624,7.09921816 149.68008,7.040625 149.403516,7.040625 C149.061326,7.040625 148.781251,7.10742121 148.563281,7.24101562 C148.345311,7.37461004 148.175391,7.56328003 148.053516,7.80703125 L148.053516,10.9851563 C148.175391,11.2242199 148.345311,11.4152337 148.563281,11.5582031 C148.781251,11.7011726 149.066014,11.7726562 149.417578,11.7726562 C149.694142,11.7726562 149.929687,11.7117194 150.124219,11.5898438 C150.318751,11.4679681 150.476953,11.3015636 150.598828,11.090625 C150.720704,10.8796864 150.809765,10.634767 150.866016,10.3558594 C150.922266,10.0769517 150.950391,9.78047032 150.950391,9.46640625 L150.950391,9.31875 Z M156.666797,6.63984375 C156.919923,6.2695294 157.228123,5.9789073 157.591406,5.76796875 C157.954689,5.5570302 158.361326,5.4515625 158.811328,5.4515625 C159.209768,5.4515625 159.575389,5.51132753 159.908203,5.63085938 C160.241017,5.75039122 160.526952,5.93671748 160.766016,6.18984375 C161.005079,6.44297002 161.191406,6.76757614 161.325,7.16367188 C161.458594,7.55976761 161.525391,8.03671596 161.525391,8.59453125 L161.525391,13.2 L159.570703,13.2 L159.570703,8.58046875 C159.570703,8.30859239 159.536719,8.07421973 159.46875,7.87734375 C159.400781,7.68046777 159.303516,7.52109436 159.176953,7.39921875 C159.05039,7.27734314 158.898048,7.18710967 158.719922,7.12851562 C158.541796,7.06992158 158.340236,7.040625 158.115234,7.040625 C157.787108,7.040625 157.502345,7.09921816 157.260938,7.21640625 C157.01953,7.33359434 156.821485,7.4976552 156.666797,7.70859375 L156.666797,13.2 L154.712109,13.2 L154.712109,2.4 L156.666797,2.4 L156.666797,6.63984375 Z M168.106641,13.2 C168.059765,13.1062495 168.019922,12.9984381 167.987109,12.8765625 C167.954297,12.7546869 167.926172,12.6257819 167.902734,12.4898438 C167.794921,12.6070318 167.670704,12.717187 167.530078,12.8203125 C167.389452,12.923438 167.233595,13.0136715 167.0625,13.0910156 C166.891405,13.1683598 166.702735,13.2292967 166.496484,13.2738281 C166.290233,13.3183596 166.067579,13.340625 165.828516,13.340625 C165.439451,13.340625 165.082033,13.2843756 164.75625,13.171875 C164.430467,13.0593744 164.150392,12.9023448 163.916016,12.7007813 C163.681639,12.4992177 163.498829,12.2589858 163.367578,11.9800781 C163.236327,11.7011705 163.170703,11.3976579 163.170703,11.0695313 C163.170703,10.2679647 163.469528,9.64804907 164.067187,9.20976562 C164.664847,8.77148218 165.556635,8.55234375 166.742578,8.55234375 L167.832422,8.55234375 L167.832422,8.10234375 C167.832422,7.73671692 167.712892,7.44726669 167.473828,7.23398438 C167.234764,7.02070206 166.890237,6.9140625 166.440234,6.9140625 C166.041795,6.9140625 165.751173,6.99960852 165.568359,7.17070313 C165.385546,7.34179773 165.294141,7.57031107 165.294141,7.85625 L163.339453,7.85625 C163.339453,7.53281088 163.410937,7.2257827 163.553906,6.93515625 C163.696876,6.6445298 163.905467,6.3890636 164.179688,6.16875 C164.453908,5.9484364 164.789061,5.77382877 165.185156,5.64492187 C165.581252,5.51601498 166.034763,5.4515625 166.545703,5.4515625 C167.00508,5.4515625 167.432811,5.50781194 167.828906,5.6203125 C168.225002,5.73281306 168.568358,5.89921765 168.858984,6.11953125 C169.149611,6.33984485 169.376952,6.61757645 169.541016,6.95273438 C169.705079,7.2878923 169.787109,7.67577905 169.787109,8.11640625 L169.787109,11.3789062 C169.787109,11.7867208 169.81289,12.1242174 169.864453,12.3914063 C169.916016,12.6585951 169.991015,12.8882803 170.089453,13.0804687 L170.089453,13.2 L168.106641,13.2 Z M166.243359,11.8289063 C166.440235,11.8289063 166.623046,11.805469 166.791797,11.7585938 C166.960548,11.7117185 167.11289,11.6507816 167.248828,11.5757813 C167.384766,11.5007809 167.501953,11.4152349 167.600391,11.3191406 C167.698829,11.2230464 167.776172,11.1257817 167.832422,11.0273438 L167.832422,9.71953125 L166.833984,9.71953125 C166.529295,9.71953125 166.269142,9.74882783 166.053516,9.80742188 C165.83789,9.86601592 165.66211,9.94804635 165.526172,10.0535156 C165.390234,10.1589849 165.289453,10.2855461 165.223828,10.4332031 C165.158203,10.5808601 165.125391,10.7414054 165.125391,10.9148438 C165.125391,11.1773451 165.217968,11.3953116 165.403125,11.56875 C165.588282,11.7421884 165.868358,11.8289063 166.243359,11.8289063 Z" id="Alpha" fill="#EF5777"></path>
            </g>
        </g>
    </g>
</svg>