<?xml version="1.0" encoding="UTF-8"?>
<svg width="290px" height="100px" viewBox="0 0 290 100" version="1.1" xmlns="http://www.w3.org/2000/svg" xmlns:xlink="http://www.w3.org/1999/xlink">
    <!-- Generator: Sketch 51.2 (57519) - http://www.bohemiancoding.com/sketch -->
    <title>git/XCLBR</title>
    <desc>Created with Sketch.</desc>
    <defs>
        <path d="M0,0 L255,0 C257.761424,-5.07265313e-16 260,2.23857625 260,5 L260,85 C260,87.7614237 257.761424,90 255,90 L0,90 L0,0 Z" id="path-1"></path>
        <path d="M48.5268381,0 L48.5268381,6.93240545 L62.391649,6.93240545 L62.391649,20.7972163 L69.3240545,20.7972163 L69.3240545,0 L48.5268381,0 Z M62.391649,20.7972163 L55.4592436,20.7972163 L55.4592436,27.7296218 L62.391649,27.7296218 L62.391649,20.7972163 Z M55.4592436,27.7296218 L48.5268381,27.7296218 L48.5268381,34.6620272 L55.4592436,34.6620272 L55.4592436,27.7296218 Z M48.5268381,34.6620272 L41.5944327,34.6620272 L41.5944327,41.5944327 L48.5268381,41.5944327 L48.5268381,34.6620272 Z M41.5944327,41.5944327 L34.6620272,41.5944327 L34.6620272,48.5268381 L41.5944327,48.5268381 L41.5944327,41.5944327 Z M34.6620272,48.5268381 L20.7972163,48.5268381 L20.7972163,55.4592436 L34.6620272,55.4592436 L34.6620272,48.5268381 Z M34.6620272,55.4592436 L34.6620272,62.391649 L27.7296218,62.391649 L27.7296218,69.3240545 L41.5944327,69.3240545 L41.5944327,55.4592436 L34.6620272,55.4592436 Z M20.7972163,55.4592436 L13.8648109,55.4592436 L13.8648109,62.391649 L20.7972163,62.391649 L20.7972163,55.4592436 Z M13.8648109,62.391649 L6.93240545,62.391649 L6.93240545,55.4592436 L0,55.4592436 L0,69.3240545 L13.8648109,69.3240545 L13.8648109,62.391649 Z M6.93240545,55.4592436 L13.8648109,55.4592436 L13.8648109,48.5268381 L6.93240545,48.5268381 L6.93240545,55.4592436 Z M13.8648109,48.5268381 L20.7972163,48.5268381 L20.7972163,34.6620272 L13.8648109,34.6620272 L13.8648109,48.5268381 Z M13.8648109,34.6620272 L13.8648109,27.7296218 L0,27.7296218 L0,41.5944327 L6.93240545,41.5944327 L6.93240545,34.6620272 L13.8648109,34.6620272 Z M20.7972163,34.6620272 L27.7296218,34.6620272 L27.7296218,27.7296218 L20.7972163,27.7296218 L20.7972163,34.6620272 Z M27.7296218,27.7296218 L34.6620272,27.7296218 L34.6620272,20.7972163 L27.7296218,20.7972163 L27.7296218,27.7296218 Z M34.6620272,20.7972163 L41.5944327,20.7972163 L41.5944327,13.8648109 L34.6620272,13.8648109 L34.6620272,20.7972163 Z M41.5944327,13.8648109 L48.5268381,13.8648109 L48.5268381,6.93240545 L41.5944327,6.93240545 L41.5944327,13.8648109 Z" id="path-3"></path>
        <filter x="-12.3%" y="-9.4%" width="124.5%" height="124.5%" filterUnits="objectBoundingBox" id="filter-4">
            <feOffset dx="0" dy="2" in="SourceAlpha" result="shadowOffsetOuter1"></feOffset>
            <feGaussianBlur stdDeviation="2.5" in="shadowOffsetOuter1" result="shadowBlurOuter1"></feGaussianBlur>
            <feColorMatrix values="0 0 0 0 0   0 0 0 0 0   0 0 0 0 0  0 0 0 0.2 0" type="matrix" in="shadowBlurOuter1"></feColorMatrix>
        </filter>
        <path d="M34.6620272,41.5944327 L34.6620272,48.5268381 L27.7296218,48.5268381 L20.7972163,48.5268381 L20.7972163,41.5944327 L20.7972163,34.6620272 L27.7296218,34.6620272 L27.7296218,27.7296218 L34.6620272,27.7296218 L34.6620272,20.7972163 L41.5944327,20.7972163 L41.5944327,13.8648109 L48.5268381,13.8648109 L48.5268381,6.93240545 L55.4592436,6.93240545 L62.391649,6.93240545 L62.391649,13.8648109 L62.391649,20.7972163 L55.4592436,20.7972163 L55.4592436,27.7296218 L48.5268381,27.7296218 L48.5268381,34.6620272 L41.5944327,34.6620272 L41.5944327,41.5944327 L34.6620272,41.5944327 Z" id="path-5"></path>
        <filter x="-20.4%" y="-15.6%" width="140.9%" height="140.9%" filterUnits="objectBoundingBox" id="filter-6">
            <feOffset dx="0" dy="2" in="SourceAlpha" result="shadowOffsetOuter1"></feOffset>
            <feGaussianBlur stdDeviation="2.5" in="shadowOffsetOuter1" result="shadowBlurOuter1"></feGaussianBlur>
            <feColorMatrix values="0 0 0 0 0   0 0 0 0 0   0 0 0 0 0  0 0 0 0.2 0" type="matrix" in="shadowBlurOuter1"></feColorMatrix>
        </filter>
        <linearGradient x1="-33.0578314%" y1="133.716883%" x2="100%" y2="0%" id="linearGradient-7">
            <stop stop-color="#EF5777" offset="0%"></stop>
            <stop stop-color="#E97C93" offset="100%"></stop>
        </linearGradient>
    </defs>
    <g id="git/XCLBR" stroke="none" stroke-width="1" fill="none" fill-rule="evenodd">
        <g id="Shape-Copy" transform="translate(30.000000, 5.000000)">
            <mask id="mask-2" fill="white">
                <use xlink:href="#path-1"></use>
            </mask>
            <use id="Mask" fill="#474747" xlink:href="#path-1"></use>
            <path d="M30.1035156,25.6875 L28.0234375,25.6875 L28.0234375,31 L25.2792969,31 L25.2792969,16.78125 L30.0449219,16.78125 C30.8326862,16.78125 31.5455697,16.8740225 32.1835938,17.0595703 C32.8216178,17.2451181 33.3668597,17.5169253 33.8193359,17.875 C34.2718122,18.2330747 34.620116,18.6790338 34.8642578,19.2128906 C35.1083997,19.7467475 35.2304688,20.3652309 35.2304688,21.0683594 C35.2304688,21.5761744 35.170248,22.0335266 35.0498047,22.4404297 C34.9293614,22.8473328 34.7568371,23.2119125 34.5322266,23.5341797 C34.3076161,23.8564469 34.0374365,24.1380196 33.7216797,24.3789062 C33.4059229,24.6197929 33.0527363,24.8281241 32.6621094,25.0039062 L35.71875,30.8730469 L35.71875,31 L32.7792969,31 L30.1035156,25.6875 Z M28.0234375,23.4609375 L30.0546875,23.4609375 C30.829431,23.4609375 31.4267557,23.2639994 31.8466797,22.8701172 C32.2666037,22.476235 32.4765625,21.9375034 32.4765625,21.2539062 C32.4765625,20.5442673 32.2714864,19.992515 31.8613281,19.5986328 C31.4511698,19.2047506 30.8457071,19.0078125 30.0449219,19.0078125 L28.0234375,19.0078125 L28.0234375,23.4609375 Z M46.03125,24.7695312 L40.1914062,24.7695312 L40.1914062,28.7832031 L47.0175781,28.7832031 L47.0175781,31 L37.4375,31 L37.4375,16.78125 L46.9882812,16.78125 L46.9882812,19.0175781 L40.1914062,19.0175781 L40.1914062,22.6015625 L46.03125,22.6015625 L46.03125,24.7695312 Z M59.2929688,25.3652344 C59.2864583,26.2376346 59.1350926,27.0595665 58.8388672,27.8310547 C58.5426417,28.6025429 58.1080758,29.261716 57.5351562,29.8085938 L59.8886719,31.9375 L58.1210938,33.5097656 L55.4160156,31.0097656 C55.1881499,31.0683597 54.9554048,31.1139321 54.7177734,31.1464844 C54.480142,31.1790366 54.2343763,31.1953125 53.9804688,31.1953125 C53.1601521,31.1953125 52.4309928,31.0374365 51.7929688,30.7216797 C51.1549447,30.4059229 50.6162131,29.9794949 50.1767578,29.4423828 C49.7373025,28.9052708 49.403647,28.2851598 49.1757812,27.5820312 C48.9479155,26.8789027 48.8339844,26.1399778 48.8339844,25.3652344 L48.8339844,22.9042969 C48.8339844,21.9863235 48.9479155,21.1416054 49.1757812,20.3701172 C49.403647,19.598629 49.7373025,18.9329455 50.1767578,18.3730469 C50.6162131,17.8131482 51.1549447,17.3753271 51.7929688,17.0595703 C52.4309928,16.7438135 53.1601521,16.5859375 53.9804688,16.5859375 C54.8072958,16.5859375 55.5494759,16.7438135 56.2070312,17.0595703 C56.8645866,17.3753271 57.4212217,17.8131482 57.8769531,18.3730469 C58.3326846,18.9329455 58.682616,19.598629 58.9267578,20.3701172 C59.1708997,21.1416054 59.2929688,21.9863235 59.2929688,22.9042969 L59.2929688,25.3652344 Z M56.5097656,22.8847656 C56.5097656,22.2988252 56.4625656,21.7600936 56.3681641,21.2685547 C56.2737625,20.7770158 56.1256521,20.3522153 55.9238281,19.9941406 C55.7220042,19.6360659 55.4615901,19.3577484 55.1425781,19.1591797 C54.8235661,18.960611 54.4362002,18.8613281 53.9804688,18.8613281 C53.5312478,18.8613281 53.155275,18.9622386 52.8525391,19.1640625 C52.5498032,19.3658864 52.3072926,19.644204 52.125,19.9990234 C51.9427074,20.3538429 51.8125004,20.7770158 51.734375,21.2685547 C51.6562496,21.7600936 51.6171875,22.2988252 51.6171875,22.8847656 L51.6171875,25.3652344 C51.6171875,25.8079449 51.6562496,26.2425109 51.734375,26.6689453 C51.8125004,27.0953797 51.9427074,27.4762353 52.125,27.8115234 C52.3072926,28.1468116 52.5498032,28.4186188 52.8525391,28.6269531 C53.155275,28.8352875 53.5312478,28.9394531 53.9804688,28.9394531 C54.4362002,28.9394531 54.8235661,28.8369151 55.1425781,28.6318359 C55.4615901,28.4267568 55.7220042,28.1549496 55.9238281,27.8164062 C56.1256521,27.4778629 56.2737625,27.0953797 56.3681641,26.6689453 C56.4625656,26.2425109 56.5097656,25.8079449 56.5097656,25.3652344 L56.5097656,22.8847656 Z M70.7578125,16.78125 L70.7675781,26.2050781 C70.7675781,26.9993529 70.6585297,27.7057261 70.4404297,28.3242188 C70.2223296,28.9427114 69.9065776,29.4651671 69.4931641,29.8916016 C69.0797505,30.318036 68.5751983,30.641926 67.9794922,30.8632812 C67.3837861,31.0846365 66.7050819,31.1953125 65.9433594,31.1953125 C65.22721,31.1953125 64.5810576,31.0846365 64.0048828,30.8632812 C63.4287081,30.641926 62.9355489,30.3196636 62.5253906,29.8964844 C62.1152323,29.4733052 61.7978527,28.9508495 61.5732422,28.3291016 C61.3486317,27.7073537 61.2363281,26.9993529 61.2363281,26.2050781 L61.2460938,16.78125 L63.9902344,16.78125 L64,26.2050781 C64.0065104,27.1230515 64.174152,27.8164039 64.5029297,28.2851562 C64.8317074,28.7539086 65.3118458,28.9882812 65.9433594,28.9882812 C66.6139356,28.9882812 67.1266258,28.7539086 67.4814453,28.2851562 C67.8362648,27.8164039 68.0169271,27.1230515 68.0234375,26.2050781 L68.0332031,16.78125 L70.7578125,16.78125 Z M82.0371094,24.7695312 L76.1972656,24.7695312 L76.1972656,28.7832031 L83.0234375,28.7832031 L83.0234375,31 L73.4433594,31 L73.4433594,16.78125 L82.9941406,16.78125 L82.9941406,19.0175781 L76.1972656,19.0175781 L76.1972656,22.6015625 L82.0371094,22.6015625 L82.0371094,24.7695312 Z M92.671875,27.2890625 C92.671875,27.035155 92.6279301,26.7975271 92.5400391,26.5761719 C92.452148,26.3548166 92.3024099,26.1481129 92.0908203,25.9560547 C91.8792307,25.7639964 91.6025408,25.5882169 91.2607422,25.4287109 C90.9189436,25.2692049 90.4941432,25.1210944 89.9863281,24.984375 C89.3678354,24.8151033 88.777021,24.6035169 88.2138672,24.3496094 C87.6507133,24.0957019 87.154299,23.7897153 86.7246094,23.4316406 C86.2949197,23.0735659 85.9514987,22.6569034 85.6943359,22.1816406 C85.4371732,21.7063778 85.3085938,21.1595083 85.3085938,20.5410156 C85.3085938,19.9420543 85.4355456,19.3984399 85.6894531,18.9101562 C85.9433606,18.4218726 86.2949196,18.0052101 86.7441406,17.6601562 C87.1933616,17.3151024 87.7239553,17.0498056 88.3359375,16.8642578 C88.9479197,16.67871 89.6119756,16.5859375 90.328125,16.5859375 C91.0703162,16.5859375 91.7490204,16.6933583 92.3642578,16.9082031 C92.9794953,17.1230479 93.5084613,17.4241517 93.9511719,17.8115234 C94.3938824,18.1988952 94.7389311,18.6595025 94.9863281,19.1933594 C95.2337252,19.7272162 95.3574219,20.3131479 95.3574219,20.9511719 L92.6816406,20.9511719 C92.6686197,20.6321599 92.6116542,20.339194 92.5107422,20.0722656 C92.4098302,19.8053372 92.2600921,19.5758473 92.0615234,19.3837891 C91.8629547,19.1917308 91.6155614,19.0419927 91.3193359,18.9345703 C91.0231105,18.8271479 90.6764343,18.7734375 90.2792969,18.7734375 C89.9147117,18.7734375 89.5908217,18.8173824 89.3076172,18.9052734 C89.0244126,18.9931645 88.7851572,19.1168612 88.5898438,19.2763672 C88.3945303,19.4358732 88.2464198,19.6246734 88.1455078,19.8427734 C88.0445958,20.0608735 87.9941406,20.2968737 87.9941406,20.5507812 C87.9941406,20.8177097 88.0608717,21.0585927 88.1943359,21.2734375 C88.3278001,21.4882823 88.5214831,21.6819653 88.7753906,21.8544922 C89.0292981,22.0270191 89.3369123,22.1848951 89.6982422,22.328125 C90.0595721,22.4713549 90.4680967,22.6048171 90.9238281,22.7285156 C91.574873,22.9173187 92.1738254,23.1484361 92.7207031,23.421875 C93.2675809,23.6953139 93.7379538,24.0192039 94.1318359,24.3935547 C94.5257181,24.7679055 94.8317046,25.1943335 95.0498047,25.6728516 C95.2679047,26.1513696 95.3769531,26.6835908 95.3769531,27.2695312 C95.3769531,27.8945344 95.2516289,28.4495418 95.0009766,28.9345703 C94.7503243,29.4195988 94.403648,29.8297509 93.9609375,30.1650391 C93.518227,30.5003272 92.9908885,30.7542309 92.3789062,30.9267578 C91.766924,31.0992847 91.099613,31.1855469 90.3769531,31.1855469 C89.9277321,31.1855469 89.4801455,31.1448572 89.0341797,31.0634766 C88.5882139,30.9820959 88.1617859,30.8567717 87.7548828,30.6875 C87.3479797,30.5182283 86.9687518,30.3066419 86.6171875,30.0527344 C86.2656232,29.7988269 85.9612643,29.5026059 85.7041016,29.1640625 C85.4469388,28.8255191 85.2451179,28.4414084 85.0986328,28.0117188 C84.9521477,27.5820291 84.8789062,27.1067734 84.8789062,26.5859375 L87.5742188,26.5859375 C87.5872396,27.0156271 87.6621087,27.383462 87.7988281,27.6894531 C87.9355476,27.9954442 88.1259753,28.2460928 88.3701172,28.4414062 C88.614259,28.6367197 88.9072249,28.7799475 89.2490234,28.8710938 C89.590822,28.96224 89.9667948,29.0078125 90.3769531,29.0078125 C90.7415383,29.0078125 91.0654283,28.9654952 91.3486328,28.8808594 C91.6318374,28.7962235 91.8710928,28.6790372 92.0664062,28.5292969 C92.2617197,28.3795565 92.4114578,28.1988943 92.515625,27.9873047 C92.6197922,27.7757151 92.671875,27.54297 92.671875,27.2890625 Z M107.740234,19.0175781 L103.355469,19.0175781 L103.355469,31 L100.601562,31 L100.601562,19.0175781 L96.2753906,19.0175781 L96.2753906,16.78125 L107.740234,16.78125 L107.740234,19.0175781 Z M128.287109,28.03125 L124.019531,28.03125 L123.179688,31 L120.289062,31 L124.947266,16.78125 L127.4375,16.78125 L132.007812,31 L129.117188,31 L128.287109,28.03125 Z M124.693359,25.6972656 L127.642578,25.6972656 L126.1875,20.4628906 L124.693359,25.6972656 Z M142.671875,31 L139.9375,31 L135.982422,21.8300781 L135.982422,31 L133.21875,31 L133.21875,16.78125 L135.982422,16.78125 L139.908203,25.9121094 L139.917969,16.78125 L142.671875,16.78125 L142.671875,31 Z M157.90625,16.78125 L166.128906,16.78125 L166.128906,18.9980469 L163.355469,18.9980469 L163.355469,28.7929688 L166.128906,28.7929688 L166.128906,31 L157.90625,31 L157.90625,28.7929688 L160.611328,28.7929688 L160.611328,18.9980469 L157.90625,18.9980469 L157.90625,16.78125 Z M178.677734,31 L175.943359,31 L171.988281,21.8300781 L171.988281,31 L169.224609,31 L169.224609,16.78125 L171.988281,16.78125 L175.914062,25.9121094 L175.923828,16.78125 L178.677734,16.78125 L178.677734,31 Z M186.011719,27.0253906 L188.697266,16.78125 L191.724609,16.78125 L187.417969,31 L184.625,31 L180.328125,16.78125 L183.355469,16.78125 L186.011719,27.0253906 Z M193.912109,16.78125 L202.134766,16.78125 L202.134766,18.9980469 L199.361328,18.9980469 L199.361328,28.7929688 L202.134766,28.7929688 L202.134766,31 L193.912109,31 L193.912109,28.7929688 L196.617188,28.7929688 L196.617188,18.9980469 L193.912109,18.9980469 L193.912109,16.78125 Z M215.757812,19.0175781 L211.373047,19.0175781 L211.373047,31 L208.619141,31 L208.619141,19.0175781 L204.292969,19.0175781 L204.292969,16.78125 L215.757812,16.78125 L215.757812,19.0175781 Z M226.060547,24.7695312 L220.220703,24.7695312 L220.220703,28.7832031 L227.046875,28.7832031 L227.046875,31 L217.466797,31 L217.466797,16.78125 L227.017578,16.78125 L227.017578,19.0175781 L220.220703,19.0175781 L220.220703,22.6015625 L226.060547,22.6015625 L226.060547,24.7695312 Z" id="REQUEST-AN-INVITE" fill="#FFFFFF" mask="url(#mask-2)"></path>
            <g id="Minecraft-Sword-595b40b75ba036ed117d98cb-Copy-2" mask="url(#mask-2)" fill-opacity="1" fill-rule="nonzero">
                <g transform="translate(5.332777, 45.989649) rotate(-45.000000) translate(-5.332777, -45.989649) translate(-29.667223, 10.989649)">
                    <g id="Shape">
                        <use fill="black" filter="url(#filter-4)" xlink:href="#path-3"></use>
                    </g>
                    <g id="Combined-Shape">
                        <use fill="black" filter="url(#filter-6)" xlink:href="#path-5"></use>
                    </g>
                </g>
            </g>
        </g>
        <g id="Minecraft-Sword-595b40b75ba036ed117d98cb-Copy" transform="translate(29.890674, 49.986815) rotate(-45.000000) translate(-29.890674, -49.986815) translate(-5.109326, 14.986815)" fill-rule="nonzero">
            <path d="M48.5268381,0 L48.5268381,6.93240545 L62.391649,6.93240545 L62.391649,20.7972163 L69.3240545,20.7972163 L69.3240545,0 L48.5268381,0 Z M62.391649,20.7972163 L55.4592436,20.7972163 L55.4592436,27.7296218 L62.391649,27.7296218 L62.391649,20.7972163 Z M55.4592436,27.7296218 L48.5268381,27.7296218 L48.5268381,34.6620272 L55.4592436,34.6620272 L55.4592436,27.7296218 Z M48.5268381,34.6620272 L41.5944327,34.6620272 L41.5944327,41.5944327 L48.5268381,41.5944327 L48.5268381,34.6620272 Z M41.5944327,41.5944327 L34.6620272,41.5944327 L34.6620272,48.5268381 L41.5944327,48.5268381 L41.5944327,41.5944327 Z M34.6620272,48.5268381 L20.7972163,48.5268381 L20.7972163,55.4592436 L34.6620272,55.4592436 L34.6620272,48.5268381 Z M34.6620272,55.4592436 L34.6620272,62.391649 L27.7296218,62.391649 L27.7296218,69.3240545 L41.5944327,69.3240545 L41.5944327,55.4592436 L34.6620272,55.4592436 Z M20.7972163,55.4592436 L13.8648109,55.4592436 L13.8648109,62.391649 L20.7972163,62.391649 L20.7972163,55.4592436 Z M13.8648109,62.391649 L6.93240545,62.391649 L6.93240545,55.4592436 L0,55.4592436 L0,69.3240545 L13.8648109,69.3240545 L13.8648109,62.391649 Z M6.93240545,55.4592436 L13.8648109,55.4592436 L13.8648109,48.5268381 L6.93240545,48.5268381 L6.93240545,55.4592436 Z M13.8648109,48.5268381 L20.7972163,48.5268381 L20.7972163,34.6620272 L13.8648109,34.6620272 L13.8648109,48.5268381 Z M13.8648109,34.6620272 L13.8648109,27.7296218 L0,27.7296218 L0,41.5944327 L6.93240545,41.5944327 L6.93240545,34.6620272 L13.8648109,34.6620272 Z M20.7972163,34.6620272 L27.7296218,34.6620272 L27.7296218,27.7296218 L20.7972163,27.7296218 L20.7972163,34.6620272 Z M27.7296218,27.7296218 L34.6620272,27.7296218 L34.6620272,20.7972163 L27.7296218,20.7972163 L27.7296218,27.7296218 Z M34.6620272,20.7972163 L41.5944327,20.7972163 L41.5944327,13.8648109 L34.6620272,13.8648109 L34.6620272,20.7972163 Z M41.5944327,13.8648109 L48.5268381,13.8648109 L48.5268381,6.93240545 L41.5944327,6.93240545 L41.5944327,13.8648109 Z" id="Shape" fill="#121212"></path>
            <path d="M34.6620272,41.5944327 L34.6620272,48.5268381 L27.7296218,48.5268381 L20.7972163,48.5268381 L20.7972163,41.5944327 L20.7972163,34.6620272 L27.7296218,34.6620272 L27.7296218,27.7296218 L34.6620272,27.7296218 L34.6620272,20.7972163 L41.5944327,20.7972163 L41.5944327,13.8648109 L48.5268381,13.8648109 L48.5268381,6.93240545 L55.4592436,6.93240545 L62.391649,6.93240545 L62.391649,13.8648109 L62.391649,20.7972163 L55.4592436,20.7972163 L55.4592436,27.7296218 L48.5268381,27.7296218 L48.5268381,34.6620272 L41.5944327,34.6620272 L41.5944327,41.5944327 L34.6620272,41.5944327 Z" id="Combined-Shape" fill="url(#linearGradient-7)"></path>
        </g>
        <polygon id="Path-3" fill="#FFFFFF" points="265.5 22.5 272.5 29.5 265.5 36.5 265.5 35 271 29.5 265.5 24"></polygon>
        <g id="logo/identity/excalibur1" transform="translate(102.500000, 55.000000)" font-family="RobotoMono-Bold, Roboto Mono" font-weight="bold">
            <g id="logo" transform="translate(-1.400000, -2.400000)">
                <text id="Excalibur_" font-size="22.8" fill="#FFFFFF">
                    <tspan x="0.188867188" y="24.6">Excalibur_</tspan>
                </text>
                <text id="Alpha" font-size="14.4" fill="#EF5777">
                    <tspan x="128.996484" y="13">Alpha</tspan>
                </text>
            </g>
        </g>
    </g>
</svg>