<?xml version="1.0" encoding="UTF-8"?>
<svg width="142px" height="23px" viewBox="0 0 142 23" version="1.1" xmlns="http://www.w3.org/2000/svg" xmlns:xlink="http://www.w3.org/1999/xlink">
    <!-- Generator: Sketch 51.2 (57519) - http://www.bohemiancoding.com/sketch -->
    <title>logo/identity/excaliburIPFS</title>
    <desc>Created with Sketch.</desc>
    <defs></defs>
    <g id="logo/identity/excaliburIPFS" stroke="none" stroke-width="1" fill="none" fill-rule="evenodd">
        <g id="logo" transform="translate(-2.000000, -2.000000)" fill="#FFFFFF">
            <path d="M10.5185547,15.0810547 L4.97070312,15.0810547 L4.97070312,18.894043 L11.4555664,18.894043 L11.4555664,21 L2.35449219,21 L2.35449219,7.4921875 L11.4277344,7.4921875 L11.4277344,9.61669922 L4.97070312,9.61669922 L4.97070312,13.0214844 L10.5185547,13.0214844 L10.5185547,15.0810547 Z M18.2929688,14.0976562 L20.5009766,10.9619141 L23.2749023,10.9619141 L19.9072266,15.8881836 L23.3955078,21 L20.6123047,21 L18.3022461,17.7158203 L16.0107422,21 L13.2182617,21 L16.706543,15.8881836 L13.3481445,10.9619141 L16.1220703,10.9619141 L18.2929688,14.0976562 Z M29.5463867,19.1259766 C29.7999687,19.1259766 30.0411772,19.0888676 30.2700195,19.0146484 C30.4988618,18.9404293 30.6998689,18.8352871 30.8730469,18.6992188 C31.0462248,18.5631504 31.180745,18.3992523 31.2766113,18.2075195 C31.3724777,18.0157868 31.4142253,17.80241 31.4018555,17.5673828 L33.8325195,17.5673828 C33.8448894,18.0869167 33.738201,18.5693337 33.5124512,19.0146484 C33.2867013,19.4599632 32.9790059,19.8434229 32.5893555,20.1650391 C32.1997051,20.4866553 31.746666,20.7386872 31.2302246,20.9211426 C30.7137832,21.1035979 30.1679716,21.1948242 29.5927734,21.1948242 C28.8134727,21.1948242 28.1300485,21.0633965 27.5424805,20.8005371 C26.9549124,20.5376777 26.4647643,20.1774111 26.0720215,19.7197266 C25.6792786,19.262042 25.3824066,18.7255076 25.1813965,18.1101074 C24.9803864,17.4947072 24.8798828,16.8344762 24.8798828,16.1293945 L24.8798828,15.8510742 C24.8798828,15.1459926 24.9788402,14.4857615 25.1767578,13.8703613 C25.3746755,13.2549611 25.6715475,12.7184268 26.0673828,12.2607422 C26.4632181,11.8030576 26.9533662,11.4412448 27.5378418,11.175293 C28.1223174,10.9093411 28.8011029,10.7763672 29.5742188,10.7763672 C30.1927114,10.7763672 30.7648086,10.8691397 31.2905273,11.0546875 C31.8162461,11.2402353 32.2692852,11.5015445 32.6496582,11.838623 C33.0300312,12.1757016 33.325357,12.5839006 33.5356445,13.0632324 C33.745932,13.5425642 33.8448894,14.0790986 33.8325195,14.6728516 L31.4018555,14.6728516 C31.4142253,14.4254545 31.3771163,14.1904308 31.2905273,13.9677734 C31.2039384,13.7451161 31.0771493,13.5533862 30.9101562,13.3925781 C30.7431632,13.23177 30.5421561,13.1034347 30.3071289,13.0075684 C30.0721017,12.911702 29.8154311,12.8637695 29.5371094,12.8637695 C29.1289042,12.8637695 28.7918308,12.9472648 28.5258789,13.1142578 C28.2599271,13.2812508 28.0480965,13.5039049 27.8903809,13.7822266 C27.7326652,14.0605483 27.6213382,14.3790672 27.5563965,14.737793 C27.4914548,15.0965187 27.4589844,15.4676088 27.4589844,15.8510742 L27.4589844,16.1293945 C27.4589844,16.5190449 27.4899085,16.8947736 27.5517578,17.2565918 C27.6136071,17.61841 27.7233879,17.936929 27.8811035,18.2121582 C28.0388191,18.4873874 28.2521959,18.7084953 28.5212402,18.8754883 C28.7902845,19.0424813 29.1319966,19.1259766 29.5463867,19.1259766 Z M42.7758789,21 C42.7140296,20.8763015 42.6614585,20.7340503 42.6181641,20.5732422 C42.5748696,20.4124341 42.5377606,20.2423512 42.5068359,20.0629883 C42.3645826,20.2176115 42.2006845,20.362955 42.0151367,20.4990234 C41.8295889,20.6350918 41.6239432,20.7541499 41.3981934,20.8562012 C41.1724435,20.9582525 40.923504,21.0386553 40.6513672,21.0974121 C40.3792304,21.1561689 40.0854508,21.1855469 39.7700195,21.1855469 C39.2566706,21.1855469 38.785077,21.1113289 38.3552246,20.9628906 C37.9253722,20.8144524 37.5558284,20.6072604 37.246582,20.3413086 C36.9373357,20.0753567 36.6961272,19.758384 36.5229492,19.3903809 C36.3497713,19.0223777 36.2631836,18.6219097 36.2631836,18.1889648 C36.2631836,17.1313424 36.6574668,16.3133981 37.4460449,15.7351074 C38.2346231,15.1568168 39.4112877,14.8676758 40.9760742,14.8676758 L42.4140625,14.8676758 L42.4140625,14.2739258 C42.4140625,13.7915015 42.2563492,13.409588 41.940918,13.1281738 C41.6254867,12.8467597 41.1709014,12.7060547 40.5771484,12.7060547 C40.0514297,12.7060547 39.66797,12.8189279 39.4267578,13.0446777 C39.1855457,13.2704276 39.0649414,13.5719382 39.0649414,13.9492188 L36.4858398,13.9492188 C36.4858398,13.5224588 36.5801586,13.1173522 36.7687988,12.7338867 C36.9574391,12.3504213 37.2326642,12.0133478 37.5944824,11.7226562 C37.9563006,11.4319647 38.3985163,11.2015796 38.9211426,11.0314941 C39.4437689,10.8614087 40.0421516,10.7763672 40.7163086,10.7763672 C41.3224314,10.7763672 41.8867975,10.8505852 42.4094238,10.9990234 C42.9320501,11.1474617 43.3850892,11.3670233 43.7685547,11.6577148 C44.1520201,11.9484064 44.4519846,12.3148578 44.668457,12.7570801 C44.8849295,13.1993023 44.9931641,13.7110974 44.9931641,14.2924805 L44.9931641,18.597168 C44.9931641,19.1352566 45.0271806,19.5805646 45.0952148,19.9331055 C45.163249,20.2856463 45.2622064,20.5887032 45.3920898,20.8422852 L45.3920898,21 L42.7758789,21 Z M40.3173828,19.190918 C40.5771497,19.190918 40.8183583,19.1599938 41.0410156,19.0981445 C41.263673,19.0362953 41.4646801,18.9558924 41.644043,18.8569336 C41.8234058,18.7579748 41.9780267,18.6451015 42.1079102,18.5183105 C42.2377936,18.3915195 42.3398434,18.2631842 42.4140625,18.1333008 L42.4140625,16.4077148 L41.0966797,16.4077148 C40.6946594,16.4077148 40.3514012,16.4463701 40.0668945,16.5236816 C39.7823879,16.6009932 39.5504566,16.7092278 39.3710938,16.8483887 C39.1917309,16.9875495 39.0587569,17.15454 38.972168,17.3493652 C38.885579,17.5441904 38.8422852,17.756021 38.8422852,17.9848633 C38.8422852,18.3312192 38.9644356,18.618814 39.2087402,18.8476562 C39.4530448,19.0764985 39.8225887,19.190918 40.3173828,19.190918 Z M48.4443359,6.75 L54.0571289,6.75 L54.0571289,18.9033203 L56.9331055,18.9033203 L56.9331055,21 L48.4443359,21 L48.4443359,18.9033203 L51.4501953,18.9033203 L51.4501953,8.85595703 L48.4443359,8.85595703 L48.4443359,6.75 Z M59.9946289,10.9619141 L65.4589844,10.9619141 L65.4589844,18.9033203 L68.1772461,18.9033203 L68.1772461,21 L59.9946289,21 L59.9946289,18.9033203 L62.8520508,18.9033203 L62.8520508,13.0678711 L59.9946289,13.0678711 L59.9946289,10.9619141 Z M62.6665039,8.39208984 C62.6665039,8.19417219 62.7020667,8.01017338 62.7731934,7.84008789 C62.84432,7.6700024 62.9448236,7.52465881 63.074707,7.40405273 C63.2045905,7.28344666 63.3607576,7.18912794 63.5432129,7.12109375 C63.7256682,7.05305956 63.9282215,7.01904297 64.1508789,7.01904297 C64.6085635,7.01904297 64.9719225,7.14737827 65.2409668,7.40405273 C65.5100111,7.66072719 65.6445312,7.9900696 65.6445312,8.39208984 C65.6445312,8.79411008 65.5100111,9.12345249 65.2409668,9.38012695 C64.9719225,9.63680141 64.6085635,9.76513672 64.1508789,9.76513672 C63.9282215,9.76513672 63.7256682,9.73112013 63.5432129,9.66308594 C63.3607576,9.59505174 63.2045905,9.50073302 63.074707,9.38012695 C62.9448236,9.25952088 62.84432,9.11417728 62.7731934,8.9440918 C62.7020667,8.77400631 62.6665039,8.5900075 62.6665039,8.39208984 Z M79.7553711,16.0830078 C79.7553711,16.831384 79.673422,17.5179005 79.5095215,18.1425781 C79.3456209,18.7672557 79.0997738,19.3053363 78.7719727,19.7568359 C78.4441715,20.2083356 78.0359725,20.5593249 77.5473633,20.8098145 C77.0587541,21.060304 76.4897493,21.1855469 75.840332,21.1855469 C75.252764,21.1855469 74.7440614,21.0757661 74.314209,20.8562012 C73.8843566,20.6366363 73.5148127,20.3289408 73.2055664,19.9331055 L73.0849609,21 L70.765625,21 L70.765625,6.75 L73.3447266,6.75 L73.3447266,11.8710938 C73.641603,11.5247379 73.9925924,11.2556976 74.3977051,11.0639648 C74.8028178,10.8722321 75.2775038,10.7763672 75.8217773,10.7763672 C76.4773796,10.7763672 77.0510229,10.9031563 77.5427246,11.1567383 C78.0344263,11.4103203 78.4441715,11.7628558 78.7719727,12.2143555 C79.0997738,12.6658551 79.3456209,13.2054819 79.5095215,13.833252 C79.673422,14.461022 79.7553711,15.1459924 79.7553711,15.8881836 L79.7553711,16.0830078 Z M77.1762695,15.8881836 C77.1762695,15.4799784 77.1453454,15.0934263 77.0834961,14.7285156 C77.0216468,14.3636049 76.9149584,14.0435398 76.7634277,13.7683105 C76.611897,13.4930813 76.4062513,13.2750659 76.1464844,13.1142578 C75.8867175,12.9534497 75.5620137,12.8730469 75.1723633,12.8730469 C74.7023088,12.8730469 74.3203953,12.9720042 74.0266113,13.1699219 C73.7328273,13.3678395 73.5055347,13.6399722 73.3447266,13.9863281 L73.3447266,17.9848633 C73.5055347,18.3312192 73.7328273,18.6033519 74.0266113,18.8012695 C74.3203953,18.9991872 74.7084937,19.0981445 75.190918,19.0981445 C75.5805684,19.0981445 75.9021797,19.0223803 76.1557617,18.8708496 C76.4093437,18.7193189 76.611897,18.5090345 76.7634277,18.2399902 C76.9149584,17.9709459 77.0216468,17.652427 77.0834961,17.2844238 C77.1453454,16.9164207 77.1762695,16.5159527 77.1762695,16.0830078 L77.1762695,15.8881836 Z M88.5131836,19.5898438 C88.1730126,20.0908228 87.7632674,20.4835598 87.2839355,20.7680664 C86.8046037,21.052573 86.280439,21.1948242 85.7114258,21.1948242 C85.1918919,21.1948242 84.7156597,21.1144214 84.2827148,20.9536133 C83.84977,20.7928052 83.4786799,20.5376808 83.1694336,20.1882324 C82.8601873,19.8387841 82.6205249,19.393476 82.4504395,18.8522949 C82.280354,18.3111138 82.1953125,17.6601601 82.1953125,16.8994141 L82.1953125,10.9619141 L84.7744141,10.9619141 L84.7744141,16.9179688 C84.7744141,17.3261739 84.803792,17.6694322 84.8625488,17.9477539 C84.9213056,18.2260756 85.0156244,18.4502758 85.1455078,18.6203613 C85.2753913,18.7904468 85.4454742,18.9125973 85.6557617,18.9868164 C85.8660492,19.0610355 86.1227198,19.0981445 86.4257812,19.0981445 C86.9391302,19.0981445 87.3566065,19.0007334 87.6782227,18.8059082 C87.9998388,18.611083 88.2441398,18.3435889 88.4111328,18.003418 L88.4111328,10.9619141 L90.9995117,10.9619141 L90.9995117,21 L88.6616211,21 L88.5131836,19.5898438 Z M100.722168,10.7763672 C101.111818,10.7763672 101.472085,10.8026527 101.802979,10.8552246 C102.133872,10.9077965 102.401366,10.9650062 102.605469,11.0268555 L102.225098,13.5966797 C101.884927,13.5162756 101.53703,13.4559735 101.181396,13.4157715 C100.825763,13.3755695 100.487144,13.3554688 100.165527,13.3554688 C99.4418909,13.3554688 98.8620627,13.4946275 98.4260254,13.7729492 C97.9899881,14.0512709 97.6637381,14.4501927 97.4472656,14.9697266 L97.4472656,21 L94.8681641,21 L94.8681641,10.9619141 L97.2709961,10.9619141 L97.3916016,12.6040039 C97.7998067,12.0349906 98.2884086,11.5881364 98.8574219,11.2634277 C99.4264351,10.9387191 100.048011,10.7763672 100.722168,10.7763672 Z M113.441406,23.0131836 L104.980469,23.0131836 L104.980469,21 L113.441406,21 L113.441406,23.0131836 Z" id="Excalibur_"></path>
        </g>
        <g id="IPFS" transform="translate(106.634343, -0.020699)">
            <g id="Group-3">
                <g id="ipfs-logo-vector-ice" fill-rule="nonzero">
                    <g id="Group" transform="translate(0.022781, 0.011440)">
                        <polygon id="Shape" fill="#4A9EA1" points="0.00730001144 8.97688716 5.14511759 11.965214 10.2829352 8.97688716 10.2829352 3.00023346 5.14511759 0.0121400778 0.00730001144 3.00046693"></polygon>
                        <path d="M4.61476596,0.731906615 L0.889674411,2.89858366 C0.897119495,2.96522101 0.897119264,3.03247938 0.889674411,3.0991144 L4.61499771,5.26579144 C4.92910678,5.03230506 5.35758268,5.03230506 5.67169175,5.26579144 L9.39701505,3.09909105 C9.38956996,3.0324537 9.38953126,2.96522802 9.39699187,2.898593 L5.67190032,0.731915953 C5.35779126,0.965402335 4.92929217,0.965402335 4.61515993,0.731915953 L4.61476596,0.731906615 Z M9.75466926,3.69758755 L6.02540627,5.88840467 C6.06906729,6.27919844 5.85481543,6.65301946 5.49704767,6.81032685 L5.50123347,11.1195875 C5.56224071,11.1464101 5.62004289,11.1800218 5.67360644,11.2198366 L9.39892974,9.05318288 C9.35526872,8.66238911 9.56952058,8.28854475 9.92728834,8.13123735 L9.92728834,3.79792996 C9.86628111,3.77110739 9.80844648,3.73749572 9.75488293,3.69768093 L9.75466926,3.69758755 Z M0.535565919,3.72166926 C0.482004692,3.76148405 0.424202506,3.7951284 0.36319295,3.82195097 L0.36319295,8.15525837 C0.720963035,8.31256109 0.935212577,8.68638677 0.891551556,9.07718054 L4.61664311,11.2438576 C4.67020434,11.2040428 4.72804129,11.1703984 4.78904852,11.1435759 L4.78904852,6.81026848 C4.43127844,6.65296576 4.2170289,6.27914008 4.26068992,5.8883463 L0.535598363,3.72157588 L0.535565919,3.72166926 Z" id="Shape" fill="#63D3D7"></path>
                    </g>
                    <g id="Group" transform="translate(0.023175, 0.007938)" fill="#000000">
                        <polygon id="Shape" fill-opacity="0.25098" points="5.14476997 11.968716 10.2825875 8.98038911 10.2825875 3.00373541 5.14476997 5.99206226"></polygon>
                        <polygon id="Shape" fill-opacity="0.039216" points="5.14476997 11.968716 5.14476997 5.99206226 0.00695239185 3.00373541 0.00695239185 8.98038911"></polygon>
                        <polygon id="Shape" fill-opacity="0.13018" points="0.00690604257 3.00373541 5.14472362 5.99206226 10.2825412 3.00373541 5.14472362 0.0154085603"></polygon>
                    </g>
                </g>
                <g id="ipfs-text-vector-white" transform="translate(12.166686, 2.894942)" fill="#FFFFFF" fill-rule="nonzero">
                    <polygon id="Shape" points="0.720499542 0.162256809 0.0229428931 0.162256809 0.0229428931 6.12723735 0.720499542 6.12723735"></polygon>
                    <path d="M3.76796464,3.02217899 C3.50029755,3.02217899 2.73785191,3.01400778 2.73785191,3.01400778 L2.73785191,0.791439689 L3.96263161,0.791439689 C4.69263275,0.791439689 5.2198558,1.07743191 5.2198558,1.78015564 C5.2198558,2.3766537 5.11441119,3.02217899 3.76796464,3.02217899 Z M2.73785191,6.12723735 L2.73785191,3.57782101 C3.03796349,3.60233463 3.45974193,3.63501946 3.70307565,3.63501946 C5.45507839,3.63501946 5.9336347,2.87509728 5.9336347,1.76381323 C5.9336347,0.611673152 5.07385557,0.162256809 3.94640936,0.162256809 L2.03218414,0.162256809 L2.03218414,6.12723735 L2.73785191,6.12723735 Z" id="Shape"></path>
                    <polygon id="Shape" points="9.8258154 2.78521401 7.38436713 2.78521401 7.38436713 0.775097276 9.90692664 0.775097276 9.96370451 0.162256809 6.68681048 0.162256809 6.68681048 6.12723735 7.38436713 6.12723735 7.38436713 3.35719844 9.8258154 3.35719844 9.8258154 2.78521401"></polygon>
                    <path d="M10.8037852,5.15486381 C11.3310082,5.41634241 12.0123426,5.61245136 12.7666772,5.61245136 C13.610234,5.61245136 14.0563458,5.23657588 14.0563458,4.42762646 C14.0563458,3.94552529 13.8616789,3.61867704 13.1073444,3.4307393 L11.9393425,3.13657588 C11.120119,2.93229572 10.6091182,2.49105058 10.6091182,1.69844358 C10.6091182,0.538132296 11.4688973,0.039688716 12.7666772,0.039688716 C13.4885672,0.039688716 14.1374571,0.219455253 14.5430133,0.472762646 L14.3402352,1.02840467 C14.0239014,0.856809339 13.3993448,0.652529183 12.758566,0.652529183 C11.8176757,0.652529183 11.3228971,0.971206226 11.3228971,1.65758755 C11.3228971,2.1233463 11.6311198,2.3766537 12.1988985,2.5155642 L13.3101225,2.78521401 C14.194235,2.99766537 14.7620136,3.4307393 14.7620136,4.40311284 C14.7620136,5.64513619 13.934679,6.21712062 12.7261215,6.21712062 C11.6960088,6.21712062 10.9578965,5.94747082 10.6010071,5.72684825 L10.8037852,5.15486381 Z" id="Shape"></path>
                </g>
            </g>
        </g>
    </g>
</svg>