<?xml version="1.0" encoding="UTF-8"?>
<svg width="290px" height="100px" viewBox="0 0 290 100" version="1.1" xmlns="http://www.w3.org/2000/svg" xmlns:xlink="http://www.w3.org/1999/xlink">
    <!-- Generator: Sketch 51.2 (57519) - http://www.bohemiancoding.com/sketch -->
    <title>git/IPFSexplore</title>
    <desc>Created with Sketch.</desc>
    <defs>
        <path d="M0,0 L245,0 C247.761424,-5.07265313e-16 250,2.23857625 250,5 L250,85 C250,87.7614237 247.761424,90 245,90 L0,90 L0,0 Z" id="path-1"></path>
        <polygon id="path-3" points="-34.7681101 71.5282101 4.83896854 96.3064202 44.4460472 71.5282101 44.4460472 21.9717899 4.83896854 -2.80448444 -34.7681101 21.9737257"></polygon>
        <filter x="-10.7%" y="-6.6%" width="121.5%" height="117.2%" filterUnits="objectBoundingBox" id="filter-4">
            <feOffset dx="0" dy="2" in="SourceAlpha" result="shadowOffsetOuter1"></feOffset>
            <feGaussianBlur stdDeviation="2.5" in="shadowOffsetOuter1" result="shadowBlurOuter1"></feGaussianBlur>
            <feColorMatrix values="0 0 0 0 0   0 0 0 0 0   0 0 0 0 0  0 0 0 0.2 0" type="matrix" in="shadowBlurOuter1"></feColorMatrix>
        </filter>
    </defs>
    <g id="git/IPFSexplore" stroke="none" stroke-width="1" fill="none" fill-rule="evenodd">
        <g id="ipfsExplore">
            <g id="Shape-Copy" transform="translate(40.000000, 5.000000)">
                <mask id="mask-2" fill="white">
                    <use xlink:href="#path-1"></use>
                </mask>
                <use id="Mask" fill="#5FCACE" xlink:href="#path-1"></use>
                <g fill-rule="nonzero" mask="url(#mask-2)" fill="black" fill-opacity="1">
                    <use filter="url(#filter-4)" xlink:href="#path-3"></use>
                </g>
            </g>
            <g id="ipfs-logo-vector-ice-text" fill-rule="nonzero">
                <g id="Group">
                    <g transform="translate(0.175615, 0.094854)" id="Shape">
                        <polygon fill="#4A9EA1" points="0.0562752809 74.433356 39.6633539 99.2115661 79.2704326 74.433356 79.2704326 24.8769358 39.6633539 0.100661479 0.0562752809 24.8788716"></polygon>
                        <path d="M35.5749101,6.06872568 L6.8584382,24.0340895 C6.91583184,24.5866242 6.91583006,25.1443082 6.8584382,25.6968235 L35.5766966,43.6621874 C37.9981416,41.7261961 41.3012326,41.7261961 43.7226775,43.6621874 L72.440936,25.69663 C72.3835423,25.1440952 72.383244,24.5866823 72.4407573,24.0341669 L43.7242854,6.06880311 C41.3028404,8.00479436 37.9995708,8.00479436 35.5779472,6.06880311 L35.5749101,6.06872568 Z M75.1980674,30.6591634 L46.4494382,48.8246887 C46.786018,52.0650204 45.1343653,55.1646196 42.3763584,56.4689601 L42.4086265,92.1999134 C42.8789271,92.4223172 43.3245201,92.701014 43.7374377,93.0311449 L72.4556962,75.0659747 C72.1191164,71.825643 73.7707691,68.7258502 76.5287759,67.4215097 L76.5287759,31.4911693 C76.0584754,31.2687655 75.6126322,30.9900687 75.1997146,30.6599377 L75.1980674,30.6591634 Z M4.12864045,30.858841 C3.71574067,31.1889719 3.27014764,31.4679397 2.79982921,31.6903435 L2.79982921,67.6206839 C5.55785393,68.9249857 7.20948876,72.0246236 6.87290899,75.2649554 L35.5893809,93.2303192 C36.0022807,92.9001882 36.4481417,92.6212204 36.9184422,92.3988166 L36.9184422,56.4684762 C34.1604175,55.1641744 32.5087827,52.0645365 32.8453625,48.8242048 L4.12889056,30.8580666 L4.12864045,30.858841 Z" fill="#63D3D7"></path>
                    </g>
                    <g transform="translate(0.178652, 0.065817)" fill="#000000" id="Shape">
                        <polygon fill-opacity="0.25098" points="39.6606742 99.2406031 79.2677528 74.462393 79.2677528 24.9059728 39.6606742 49.6841829"></polygon>
                        <polygon fill-opacity="0.039216" points="39.6606742 99.2406031 39.6606742 49.6841829 0.0535955056 24.9059728 0.0535955056 74.462393"></polygon>
                        <polygon fill-opacity="0.13018" points="0.0532382022 24.9059728 39.6603169 49.6841829 79.2673955 24.9059728 39.6603169 0.127762646"></polygon>
                    </g>
                </g>
                <g id="Group" transform="translate(7.000000, 35.500000)" fill="#FFFFFF">
                    <polygon id="Shape" points="5.38495902 0.77027027 0.159275956 0.77027027 0.159275956 27.9608108 5.38495902 27.9608108"></polygon>
                    <path d="M14.4905328,27.9608108 L14.4905328,17.9858108 C15.7790574,18.1013514 17.067582,18.1013514 18.1413525,18.1013514 C25.5861612,18.1013514 27.7337022,14.1344595 27.7337022,9.24324324 C27.7337022,3.31216216 23.7965437,0.77027027 17.7118443,0.77027027 L9.26484973,0.77027027 L9.26484973,27.9608108 L14.4905328,27.9608108 Z M17.3181284,14.1344595 C16.351735,14.1344595 14.920041,14.1344595 14.4905328,14.0959459 L14.4905328,4.8527027 L17.7476366,4.8527027 C20.8973634,4.8527027 22.6869809,6.47027027 22.6869809,9.43581081 L22.6869809,9.51283784 C22.6869809,11.8236486 21.8995492,14.1344595 17.3181284,14.1344595 Z" id="Shape"></path>
                    <polygon id="Shape" points="45.6262978 0.77027027 29.7702869 0.77027027 29.7702869 27.9608108 34.9959699 27.9608108 34.9959699 15.9831081 44.9104508 15.9831081 44.9104508 11.9006757 34.9601776 11.9006757 34.9601776 4.89121622 45.2683743 4.89121622"></polygon>
                    <path d="M62.7278825,6.08513514 L64.0879918,2.31081081 C62.0478279,0.731756757 59.2918169,0.154054054 55.819959,0.154054054 C50.7732377,0.154054054 46.6213251,2.69594595 46.6213251,7.89527027 C46.6213251,12.5554054 49.8068443,14.4040541 52.9923634,15.5209459 L56.1778825,16.6763514 C58.3612158,17.4851351 60.1508333,18.2554054 60.1508333,20.7972973 C60.1508333,23.1081081 58.2896311,24.0324324 55.4620355,24.0324324 C52.5986475,24.0324324 49.5205055,23.1081081 47.7666803,21.9141892 L46.406571,25.9966216 C48.6972814,27.5756757 51.5964617,28.3459459 55.4978279,28.3459459 C61.0456421,28.3459459 65.340724,25.727027 65.340724,20.1425676 C65.340724,14.9432432 61.654112,13.2871622 57.9317077,11.9391892 L54.4598497,10.7067568 C52.956571,10.1675676 51.8112158,9.43581081 51.8112158,7.35608108 C51.8112158,5.23783784 53.4218716,4.39054054 55.819959,4.39054054 C58.7549317,4.39054054 61.0456421,4.96824324 62.7278825,6.08513514 Z" id="Shape"></path>
                </g>
            </g>
            <path d="M184.015625,29.7695312 L178.175781,29.7695312 L178.175781,33.7832031 L185.001953,33.7832031 L185.001953,36 L175.421875,36 L175.421875,21.78125 L184.972656,21.78125 L184.972656,24.0175781 L178.175781,24.0175781 L178.175781,27.6015625 L184.015625,27.6015625 L184.015625,29.7695312 Z M192.082031,26.8789062 L194.611328,21.78125 L197.833984,21.78125 L193.830078,28.8320312 L197.931641,36 L194.728516,36 L192.121094,30.8242188 L189.523438,36 L186.28125,36 L190.382812,28.8320312 L186.388672,21.78125 L189.591797,21.78125 L192.082031,26.8789062 Z M202.189453,30.7851562 L202.189453,36 L199.445312,36 L199.445312,21.78125 L204.308594,21.78125 C205.083337,21.78125 205.7832,21.8935536 206.408203,22.1181641 C207.033206,22.3427746 207.565427,22.6552714 208.004883,23.0556641 C208.444338,23.4560567 208.782876,23.9361951 209.020508,24.4960938 C209.258139,25.0559924 209.376953,25.677731 209.376953,26.3613281 C209.376953,26.9993521 209.258139,27.588539 209.020508,28.1289062 C208.782876,28.6692735 208.444338,29.1363913 208.004883,29.5302734 C207.565427,29.9241556 207.033206,30.2317697 206.408203,30.453125 C205.7832,30.6744803 205.083337,30.7851562 204.308594,30.7851562 L202.189453,30.7851562 Z M202.189453,28.5585938 L204.308594,28.5585938 C204.699221,28.5585938 205.037759,28.5000006 205.324219,28.3828125 C205.610679,28.2656244 205.849934,28.1061208 206.041992,27.9042969 C206.23405,27.7024729 206.377278,27.4697279 206.47168,27.2060547 C206.566081,26.9423815 206.613281,26.6673191 206.613281,26.3808594 C206.613281,26.0488265 206.566081,25.7395848 206.47168,25.453125 C206.377278,25.1666652 206.23405,24.9160167 206.041992,24.7011719 C205.849934,24.4863271 205.610679,24.3170579 205.324219,24.1933594 C205.037759,24.0696608 204.699221,24.0078125 204.308594,24.0078125 L202.189453,24.0078125 L202.189453,28.5585938 Z M214.210938,33.7832031 L220.871094,33.7832031 L220.871094,36 L211.457031,36 L211.457031,21.78125 L214.210938,21.78125 L214.210938,33.7832031 Z M233.195312,29.9355469 C233.195312,30.8470098 233.074871,31.6868451 232.833984,32.4550781 C232.593098,33.2233111 232.244794,33.8841118 231.789062,34.4375 C231.333331,34.9908882 230.778324,35.422199 230.124023,35.7314453 C229.469723,36.0406917 228.732426,36.1953125 227.912109,36.1953125 C227.091793,36.1953125 226.362633,36.0406917 225.724609,35.7314453 C225.086585,35.422199 224.549481,34.9892606 224.113281,34.4326172 C223.677081,33.8759738 223.345053,33.2151731 223.117188,32.4501953 C222.889322,31.6852175 222.775391,30.8470098 222.775391,29.9355469 L222.775391,27.8652344 C222.775391,26.9537715 222.889322,26.1139361 223.117188,25.3457031 C223.345053,24.5774701 223.677081,23.9150418 224.113281,23.3583984 C224.549481,22.801755 225.084958,22.3671891 225.719727,22.0546875 C226.354495,21.7421859 227.082027,21.5859375 227.902344,21.5859375 C228.729171,21.5859375 229.469723,21.7421859 230.124023,22.0546875 C230.778324,22.3671891 231.333331,22.801755 231.789062,23.3583984 C232.244794,23.9150418 232.593098,24.5774701 232.833984,25.3457031 C233.074871,26.1139361 233.195312,26.9537715 233.195312,27.8652344 L233.195312,29.9355469 Z M230.412109,27.8457031 C230.412109,27.2662731 230.364909,26.7324243 230.270508,26.2441406 C230.176106,25.7558569 230.027996,25.3359393 229.826172,24.984375 C229.624348,24.6328107 229.365561,24.3577484 229.049805,24.1591797 C228.734048,23.960611 228.351565,23.8613281 227.902344,23.8613281 C227.459633,23.8613281 227.088543,23.960611 226.789062,24.1591797 C226.489582,24.3577484 226.248699,24.6328107 226.066406,24.984375 C225.884114,25.3359393 225.753907,25.7558569 225.675781,26.2441406 C225.597656,26.7324243 225.558594,27.2662731 225.558594,27.8457031 L225.558594,29.9355469 C225.558594,30.5084664 225.597656,31.0390601 225.675781,31.5273438 C225.753907,32.0156274 225.884114,32.4388003 226.066406,32.796875 C226.248699,33.1549497 226.489582,33.4348948 226.789062,33.6367188 C227.088543,33.8385427 227.462888,33.9394531 227.912109,33.9394531 C228.35482,33.9394531 228.734048,33.8385427 229.049805,33.6367188 C229.365561,33.4348948 229.62272,33.1565773 229.821289,32.8017578 C230.019858,32.4469383 230.167968,32.0253931 230.265625,31.5371094 C230.363282,31.0488257 230.412109,30.5149769 230.412109,29.9355469 L230.412109,27.8457031 Z M240.099609,30.6875 L238.019531,30.6875 L238.019531,36 L235.275391,36 L235.275391,21.78125 L240.041016,21.78125 C240.82878,21.78125 241.541663,21.8740225 242.179688,22.0595703 C242.817712,22.2451181 243.362953,22.5169253 243.81543,22.875 C244.267906,23.2330747 244.61621,23.6790338 244.860352,24.2128906 C245.104493,24.7467475 245.226562,25.3652309 245.226562,26.0683594 C245.226562,26.5761744 245.166342,27.0335266 245.045898,27.4404297 C244.925455,27.8473328 244.752931,28.2119125 244.52832,28.5341797 C244.30371,28.8564469 244.03353,29.1380196 243.717773,29.3789062 C243.402017,29.6197929 243.04883,29.8281241 242.658203,30.0039062 L245.714844,35.8730469 L245.714844,36 L242.775391,36 L240.099609,30.6875 Z M238.019531,28.4609375 L240.050781,28.4609375 C240.825525,28.4609375 241.422849,28.2639994 241.842773,27.8701172 C242.262697,27.476235 242.472656,26.9375034 242.472656,26.2539062 C242.472656,25.5442673 242.26758,24.992515 241.857422,24.5986328 C241.447264,24.2047506 240.841801,24.0078125 240.041016,24.0078125 L238.019531,24.0078125 L238.019531,28.4609375 Z M256.027344,29.7695312 L250.1875,29.7695312 L250.1875,33.7832031 L257.013672,33.7832031 L257.013672,36 L247.433594,36 L247.433594,21.78125 L256.984375,21.78125 L256.984375,24.0175781 L250.1875,24.0175781 L250.1875,27.6015625 L256.027344,27.6015625 L256.027344,29.7695312 Z" id="EXPLORE" fill="#FFFFFF"></path>
            <polygon id="Path-3" fill="#FFFFFF" points="265.5 22.5 272.5 29.5 265.5 36.5 265.5 35 271 29.5 265.5 24"></polygon>
            <g id="logo/identity/excalibur1" transform="translate(102.000000, 55.000000)" font-family="RobotoMono-Bold, Roboto Mono" font-weight="bold">
                <g id="logo" transform="translate(-1.400000, -2.400000)">
                    <text id="Excalibur_" font-size="22.8" fill="#FFFFFF">
                        <tspan x="0.188867188" y="24.6">Excalibur_</tspan>
                    </text>
                    <text id="Alpha" font-size="14.4" fill="#EF5777">
                        <tspan x="128.996484" y="13">Alpha</tspan>
                    </text>
                </g>
            </g>
        </g>
    </g>
</svg>