<?xml version="1.0" encoding="UTF-8"?>
<svg width="290px" height="100px" viewBox="0 0 290 100" version="1.1" xmlns="http://www.w3.org/2000/svg" xmlns:xlink="http://www.w3.org/1999/xlink">
    <!-- Generator: Sketch 51.2 (57519) - http://www.bohemiancoding.com/sketch -->
    <title>IPFSdownload</title>
    <desc>Created with Sketch.</desc>
    <defs>
        <path d="M0,0 L245,0 C247.761424,-5.07265313e-16 250,2.23857625 250,5 L250,85 C250,87.7614237 247.761424,90 245,90 L0,90 L0,0 Z" id="path-1"></path>
        <polygon id="path-3" points="-34.7681101 71.5282101 4.83896854 96.3064202 44.4460472 71.5282101 44.4460472 21.9717899 4.83896854 -2.80448444 -34.7681101 21.9737257"></polygon>
        <filter x="-10.7%" y="-6.6%" width="121.5%" height="117.2%" filterUnits="objectBoundingBox" id="filter-4">
            <feOffset dx="0" dy="2" in="SourceAlpha" result="shadowOffsetOuter1"></feOffset>
            <feGaussianBlur stdDeviation="2.5" in="shadowOffsetOuter1" result="shadowBlurOuter1"></feGaussianBlur>
            <feColorMatrix values="0 0 0 0 0   0 0 0 0 0   0 0 0 0 0  0 0 0 0.2 0" type="matrix" in="shadowBlurOuter1"></feColorMatrix>
        </filter>
    </defs>
    <g id="IPFSdownload" stroke="none" stroke-width="1" fill="none" fill-rule="evenodd">
        <g id="ipfsExplore">
            <g id="Shape-Copy" transform="translate(40.000000, 5.000000)">
                <mask id="mask-2" fill="white">
                    <use xlink:href="#path-1"></use>
                </mask>
                <use id="Mask" fill="#6C81D3" xlink:href="#path-1"></use>
                <g fill-rule="nonzero" mask="url(#mask-2)" fill="black" fill-opacity="1">
                    <use filter="url(#filter-4)" xlink:href="#path-3"></use>
                </g>
            </g>
            <g id="ipfs-logo-vector-ice-text" fill-rule="nonzero">
                <g id="Group">
                    <g transform="translate(0.175615, 0.094854)" id="Shape">
                        <polygon fill="#5B6DB5" points="0.0562752809 74.433356 39.6633539 99.2115661 79.2704326 74.433356 79.2704326 24.8769358 39.6633539 0.100661479 0.0562752809 24.8788716"></polygon>
                        <path d="M35.5749101,6.06872568 L6.8584382,24.0340895 C6.91583184,24.5866242 6.91583006,25.1443082 6.8584382,25.6968235 L35.5766966,43.6621874 C37.9981416,41.7261961 41.3012326,41.7261961 43.7226775,43.6621874 L72.440936,25.69663 C72.3835423,25.1440952 72.383244,24.5866823 72.4407573,24.0341669 L43.7242854,6.06880311 C41.3028404,8.00479436 37.9995708,8.00479436 35.5779472,6.06880311 L35.5749101,6.06872568 Z M75.1980674,30.6591634 L46.4494382,48.8246887 C46.786018,52.0650204 45.1343653,55.1646196 42.3763584,56.4689601 L42.4086265,92.1999134 C42.8789271,92.4223172 43.3245201,92.701014 43.7374377,93.0311449 L72.4556962,75.0659747 C72.1191164,71.825643 73.7707691,68.7258502 76.5287759,67.4215097 L76.5287759,31.4911693 C76.0584754,31.2687655 75.6126322,30.9900687 75.1997146,30.6599377 L75.1980674,30.6591634 Z M4.12864045,30.858841 C3.71574067,31.1889719 3.27014764,31.4679397 2.79982921,31.6903435 L2.79982921,67.6206839 C5.55785393,68.9249857 7.20948876,72.0246236 6.87290899,75.2649554 L35.5893809,93.2303192 C36.0022807,92.9001882 36.4481417,92.6212204 36.9184422,92.3988166 L36.9184422,56.4684762 C34.1604175,55.1641744 32.5087827,52.0645365 32.8453625,48.8242048 L4.12889056,30.8580666 L4.12864045,30.858841 Z" fill="#6C81D3"></path>
                    </g>
                    <g transform="translate(0.178652, 0.065817)" fill="#000000" id="Shape">
                        <polygon fill-opacity="0.25098" points="39.6606742 99.2406031 79.2677528 74.462393 79.2677528 24.9059728 39.6606742 49.6841829"></polygon>
                        <polygon fill-opacity="0.039216" points="39.6606742 99.2406031 39.6606742 49.6841829 0.0535955056 24.9059728 0.0535955056 74.462393"></polygon>
                        <polygon fill-opacity="0.13018" points="0.0532382022 24.9059728 39.6603169 49.6841829 79.2673955 24.9059728 39.6603169 0.127762646"></polygon>
                    </g>
                </g>
                <g id="Group" transform="translate(7.000000, 35.500000)" fill="#FFFFFF">
                    <polygon id="Shape" points="5.38495902 0.77027027 0.159275956 0.77027027 0.159275956 27.9608108 5.38495902 27.9608108"></polygon>
                    <path d="M14.4905328,27.9608108 L14.4905328,17.9858108 C15.7790574,18.1013514 17.067582,18.1013514 18.1413525,18.1013514 C25.5861612,18.1013514 27.7337022,14.1344595 27.7337022,9.24324324 C27.7337022,3.31216216 23.7965437,0.77027027 17.7118443,0.77027027 L9.26484973,0.77027027 L9.26484973,27.9608108 L14.4905328,27.9608108 Z M17.3181284,14.1344595 C16.351735,14.1344595 14.920041,14.1344595 14.4905328,14.0959459 L14.4905328,4.8527027 L17.7476366,4.8527027 C20.8973634,4.8527027 22.6869809,6.47027027 22.6869809,9.43581081 L22.6869809,9.51283784 C22.6869809,11.8236486 21.8995492,14.1344595 17.3181284,14.1344595 Z" id="Shape"></path>
                    <polygon id="Shape" points="45.6262978 0.77027027 29.7702869 0.77027027 29.7702869 27.9608108 34.9959699 27.9608108 34.9959699 15.9831081 44.9104508 15.9831081 44.9104508 11.9006757 34.9601776 11.9006757 34.9601776 4.89121622 45.2683743 4.89121622"></polygon>
                    <path d="M62.7278825,6.08513514 L64.0879918,2.31081081 C62.0478279,0.731756757 59.2918169,0.154054054 55.819959,0.154054054 C50.7732377,0.154054054 46.6213251,2.69594595 46.6213251,7.89527027 C46.6213251,12.5554054 49.8068443,14.4040541 52.9923634,15.5209459 L56.1778825,16.6763514 C58.3612158,17.4851351 60.1508333,18.2554054 60.1508333,20.7972973 C60.1508333,23.1081081 58.2896311,24.0324324 55.4620355,24.0324324 C52.5986475,24.0324324 49.5205055,23.1081081 47.7666803,21.9141892 L46.406571,25.9966216 C48.6972814,27.5756757 51.5964617,28.3459459 55.4978279,28.3459459 C61.0456421,28.3459459 65.340724,25.727027 65.340724,20.1425676 C65.340724,14.9432432 61.654112,13.2871622 57.9317077,11.9391892 L54.4598497,10.7067568 C52.956571,10.1675676 51.8112158,9.43581081 51.8112158,7.35608108 C51.8112158,5.23783784 53.4218716,4.39054054 55.819959,4.39054054 C58.7549317,4.39054054 61.0456421,4.96824324 62.7278825,6.08513514 Z" id="Shape"></path>
                </g>
            </g>
            <text id="DOWNLOAD" font-family="RobotoMono-Bold, Roboto Mono" font-size="20" font-weight="bold" fill="#FFFFFF">
                <tspan x="161.984375" y="36">DOWNLOAD</tspan>
            </text>
            <g id="Group-2" transform="translate(262.000000, 24.000000)" fill="#FFFFFF">
                <rect id="Rectangle" x="0" y="10" width="14" height="1"></rect>
                <polygon id="Path-2" points="0 0 7 7 14 0 12.5 0 7 5.5 1.5 0"></polygon>
            </g>
            <g id="logo/excalibur1" transform="translate(102.000000, 55.000000)" font-family="RobotoMono-Bold, Roboto Mono" font-weight="bold">
                <g id="logo" transform="translate(-1.400000, -2.400000)">
                    <text id="Excalibur_" font-size="22.8" fill="#FFFFFF">
                        <tspan x="0.188867188" y="24.6">Excalibur_</tspan>
                    </text>
                    <text id="Alpha" font-size="14.4" fill="#EF5777">
                        <tspan x="128.996484" y="13">Alpha</tspan>
                    </text>
                </g>
            </g>
        </g>
    </g>
</svg>