<?xml version="1.0" encoding="UTF-8"?>
<svg width="290px" height="100px" viewBox="0 0 290 100" version="1.1" xmlns="http://www.w3.org/2000/svg" xmlns:xlink="http://www.w3.org/1999/xlink">
    <!-- Generator: Sketch 51.2 (57519) - http://www.bohemiancoding.com/sketch -->
    <title>git/IPFSdownload</title>
    <desc>Created with Sketch.</desc>
    <defs>
        <path d="M0,0 L245,0 C247.761424,-5.07265313e-16 250,2.23857625 250,5 L250,85 C250,87.7614237 247.761424,90 245,90 L0,90 L0,0 Z" id="path-1"></path>
        <polygon id="path-3" points="-34.7681101 71.5282101 4.83896854 96.3064202 44.4460472 71.5282101 44.4460472 21.9717899 4.83896854 -2.80448444 -34.7681101 21.9737257"></polygon>
        <filter x="-10.7%" y="-6.6%" width="121.5%" height="117.2%" filterUnits="objectBoundingBox" id="filter-4">
            <feOffset dx="0" dy="2" in="SourceAlpha" result="shadowOffsetOuter1"></feOffset>
            <feGaussianBlur stdDeviation="2.5" in="shadowOffsetOuter1" result="shadowBlurOuter1"></feGaussianBlur>
            <feColorMatrix values="0 0 0 0 0   0 0 0 0 0   0 0 0 0 0  0 0 0 0.2 0" type="matrix" in="shadowBlurOuter1"></feColorMatrix>
        </filter>
    </defs>
    <g id="git/IPFSdownload" stroke="none" stroke-width="1" fill="none" fill-rule="evenodd">
        <g id="ipfsExplore">
            <g id="Shape-Copy" transform="translate(40.000000, 5.000000)">
                <mask id="mask-2" fill="white">
                    <use xlink:href="#path-1"></use>
                </mask>
                <use id="Mask" fill="#6C81D3" xlink:href="#path-1"></use>
                <g fill-rule="nonzero" mask="url(#mask-2)" fill="black" fill-opacity="1">
                    <use filter="url(#filter-4)" xlink:href="#path-3"></use>
                </g>
            </g>
            <g id="ipfs-logo-vector-ice-text" fill-rule="nonzero">
                <g id="Group">
                    <g transform="translate(0.175615, 0.094854)" id="Shape">
                        <polygon fill="#5B6DB5" points="0.0562752809 74.433356 39.6633539 99.2115661 79.2704326 74.433356 79.2704326 24.8769358 39.6633539 0.100661479 0.0562752809 24.8788716"></polygon>
                        <path d="M35.5749101,6.06872568 L6.8584382,24.0340895 C6.91583184,24.5866242 6.91583006,25.1443082 6.8584382,25.6968235 L35.5766966,43.6621874 C37.9981416,41.7261961 41.3012326,41.7261961 43.7226775,43.6621874 L72.440936,25.69663 C72.3835423,25.1440952 72.383244,24.5866823 72.4407573,24.0341669 L43.7242854,6.06880311 C41.3028404,8.00479436 37.9995708,8.00479436 35.5779472,6.06880311 L35.5749101,6.06872568 Z M75.1980674,30.6591634 L46.4494382,48.8246887 C46.786018,52.0650204 45.1343653,55.1646196 42.3763584,56.4689601 L42.4086265,92.1999134 C42.8789271,92.4223172 43.3245201,92.701014 43.7374377,93.0311449 L72.4556962,75.0659747 C72.1191164,71.825643 73.7707691,68.7258502 76.5287759,67.4215097 L76.5287759,31.4911693 C76.0584754,31.2687655 75.6126322,30.9900687 75.1997146,30.6599377 L75.1980674,30.6591634 Z M4.12864045,30.858841 C3.71574067,31.1889719 3.27014764,31.4679397 2.79982921,31.6903435 L2.79982921,67.6206839 C5.55785393,68.9249857 7.20948876,72.0246236 6.87290899,75.2649554 L35.5893809,93.2303192 C36.0022807,92.9001882 36.4481417,92.6212204 36.9184422,92.3988166 L36.9184422,56.4684762 C34.1604175,55.1641744 32.5087827,52.0645365 32.8453625,48.8242048 L4.12889056,30.8580666 L4.12864045,30.858841 Z" fill="#6C81D3"></path>
                    </g>
                    <g transform="translate(0.178652, 0.065817)" fill="#000000" id="Shape">
                        <polygon fill-opacity="0.25098" points="39.6606742 99.2406031 79.2677528 74.462393 79.2677528 24.9059728 39.6606742 49.6841829"></polygon>
                        <polygon fill-opacity="0.039216" points="39.6606742 99.2406031 39.6606742 49.6841829 0.0535955056 24.9059728 0.0535955056 74.462393"></polygon>
                        <polygon fill-opacity="0.13018" points="0.0532382022 24.9059728 39.6603169 49.6841829 79.2673955 24.9059728 39.6603169 0.127762646"></polygon>
                    </g>
                </g>
                <g id="Group" transform="translate(7.000000, 35.500000)" fill="#FFFFFF">
                    <polygon id="Shape" points="5.38495902 0.77027027 0.159275956 0.77027027 0.159275956 27.9608108 5.38495902 27.9608108"></polygon>
                    <path d="M14.4905328,27.9608108 L14.4905328,17.9858108 C15.7790574,18.1013514 17.067582,18.1013514 18.1413525,18.1013514 C25.5861612,18.1013514 27.7337022,14.1344595 27.7337022,9.24324324 C27.7337022,3.31216216 23.7965437,0.77027027 17.7118443,0.77027027 L9.26484973,0.77027027 L9.26484973,27.9608108 L14.4905328,27.9608108 Z M17.3181284,14.1344595 C16.351735,14.1344595 14.920041,14.1344595 14.4905328,14.0959459 L14.4905328,4.8527027 L17.7476366,4.8527027 C20.8973634,4.8527027 22.6869809,6.47027027 22.6869809,9.43581081 L22.6869809,9.51283784 C22.6869809,11.8236486 21.8995492,14.1344595 17.3181284,14.1344595 Z" id="Shape"></path>
                    <polygon id="Shape" points="45.6262978 0.77027027 29.7702869 0.77027027 29.7702869 27.9608108 34.9959699 27.9608108 34.9959699 15.9831081 44.9104508 15.9831081 44.9104508 11.9006757 34.9601776 11.9006757 34.9601776 4.89121622 45.2683743 4.89121622"></polygon>
                    <path d="M62.7278825,6.08513514 L64.0879918,2.31081081 C62.0478279,0.731756757 59.2918169,0.154054054 55.819959,0.154054054 C50.7732377,0.154054054 46.6213251,2.69594595 46.6213251,7.89527027 C46.6213251,12.5554054 49.8068443,14.4040541 52.9923634,15.5209459 L56.1778825,16.6763514 C58.3612158,17.4851351 60.1508333,18.2554054 60.1508333,20.7972973 C60.1508333,23.1081081 58.2896311,24.0324324 55.4620355,24.0324324 C52.5986475,24.0324324 49.5205055,23.1081081 47.7666803,21.9141892 L46.406571,25.9966216 C48.6972814,27.5756757 51.5964617,28.3459459 55.4978279,28.3459459 C61.0456421,28.3459459 65.340724,25.727027 65.340724,20.1425676 C65.340724,14.9432432 61.654112,13.2871622 57.9317077,11.9391892 L54.4598497,10.7067568 C52.956571,10.1675676 51.8112158,9.43581081 51.8112158,7.35608108 C51.8112158,5.23783784 53.4218716,4.39054054 55.819959,4.39054054 C58.7549317,4.39054054 61.0456421,4.96824324 62.7278825,6.08513514 Z" id="Shape"></path>
                </g>
            </g>
            <path d="M163.205078,36 L163.205078,21.78125 L166.886719,21.78125 C167.830734,21.78125 168.685218,21.9423812 169.450195,22.2646484 C170.215173,22.5869157 170.869463,23.0361299 171.413086,23.6123047 C171.956708,24.1884794 172.376626,24.8769491 172.672852,25.6777344 C172.969077,26.4785196 173.117188,27.3574171 173.117188,28.3144531 L173.117188,29.4863281 C173.117188,30.4433642 172.969077,31.320634 172.672852,32.1181641 C172.376626,32.9156941 171.961591,33.6025362 171.427734,34.1787109 C170.893878,34.7548857 170.252608,35.2024724 169.503906,35.5214844 C168.755205,35.8404964 167.92839,36 167.023438,36 L163.205078,36 Z M165.96875,24.0078125 L165.96875,33.7929688 L167.023438,33.7929688 C167.537763,33.7929688 167.99837,33.6953135 168.405273,33.5 C168.812177,33.3046865 169.157225,33.0214862 169.44043,32.6503906 C169.723634,32.279295 169.940103,31.8284532 170.089844,31.2978516 C170.239584,30.76725 170.314453,30.1634148 170.314453,29.4863281 L170.314453,28.2949219 C170.314453,27.6568979 170.241212,27.075849 170.094727,26.5517578 C169.948241,26.0276667 169.730145,25.5768248 169.44043,25.1992188 C169.150715,24.8216127 168.792645,24.5286469 168.366211,24.3203125 C167.939777,24.1119781 167.446617,24.0078125 166.886719,24.0078125 L165.96875,24.0078125 Z M185.1875,29.9355469 C185.1875,30.8470098 185.067058,31.6868451 184.826172,32.4550781 C184.585285,33.2233111 184.236981,33.8841118 183.78125,34.4375 C183.325519,34.9908882 182.770511,35.422199 182.116211,35.7314453 C181.461911,36.0406917 180.724613,36.1953125 179.904297,36.1953125 C179.08398,36.1953125 178.354821,36.0406917 177.716797,35.7314453 C177.078773,35.422199 176.541669,34.9892606 176.105469,34.4326172 C175.669269,33.8759738 175.337241,33.2151731 175.109375,32.4501953 C174.881509,31.6852175 174.767578,30.8470098 174.767578,29.9355469 L174.767578,27.8652344 C174.767578,26.9537715 174.881509,26.1139361 175.109375,25.3457031 C175.337241,24.5774701 175.669269,23.9150418 176.105469,23.3583984 C176.541669,22.801755 177.077145,22.3671891 177.711914,22.0546875 C178.346683,21.7421859 179.074215,21.5859375 179.894531,21.5859375 C180.721358,21.5859375 181.461911,21.7421859 182.116211,22.0546875 C182.770511,22.3671891 183.325519,22.801755 183.78125,23.3583984 C184.236981,23.9150418 184.585285,24.5774701 184.826172,25.3457031 C185.067058,26.1139361 185.1875,26.9537715 185.1875,27.8652344 L185.1875,29.9355469 Z M182.404297,27.8457031 C182.404297,27.2662731 182.357097,26.7324243 182.262695,26.2441406 C182.168294,25.7558569 182.020183,25.3359393 181.818359,24.984375 C181.616535,24.6328107 181.357749,24.3577484 181.041992,24.1591797 C180.726235,23.960611 180.343752,23.8613281 179.894531,23.8613281 C179.451821,23.8613281 179.080731,23.960611 178.78125,24.1591797 C178.481769,24.3577484 178.240886,24.6328107 178.058594,24.984375 C177.876301,25.3359393 177.746094,25.7558569 177.667969,26.2441406 C177.589843,26.7324243 177.550781,27.2662731 177.550781,27.8457031 L177.550781,29.9355469 C177.550781,30.5084664 177.589843,31.0390601 177.667969,31.5273438 C177.746094,32.0156274 177.876301,32.4388003 178.058594,32.796875 C178.240886,33.1549497 178.481769,33.4348948 178.78125,33.6367188 C179.080731,33.8385427 179.455076,33.9394531 179.904297,33.9394531 C180.347007,33.9394531 180.726235,33.8385427 181.041992,33.6367188 C181.357749,33.4348948 181.614908,33.1565773 181.813477,32.8017578 C182.012045,32.4469383 182.160156,32.0253931 182.257812,31.5371094 C182.355469,31.0488257 182.404297,30.5149769 182.404297,29.9355469 L182.404297,27.8457031 Z M194.220703,30.3457031 L195.255859,21.78125 L197.775391,21.78125 L195.802734,36 L193.322266,36 L191.974609,27.6015625 L190.675781,36 L188.195312,36 L186.242188,21.78125 L188.751953,21.78125 L189.767578,30.2871094 L190.978516,21.78125 L192.941406,21.78125 L194.220703,30.3457031 Z M208.644531,36 L205.910156,36 L201.955078,26.8300781 L201.955078,36 L199.191406,36 L199.191406,21.78125 L201.955078,21.78125 L205.880859,30.9121094 L205.890625,21.78125 L208.644531,21.78125 L208.644531,36 Z M214.210938,33.7832031 L220.871094,33.7832031 L220.871094,36 L211.457031,36 L211.457031,21.78125 L214.210938,21.78125 L214.210938,33.7832031 Z M233.195312,29.9355469 C233.195312,30.8470098 233.074871,31.6868451 232.833984,32.4550781 C232.593098,33.2233111 232.244794,33.8841118 231.789062,34.4375 C231.333331,34.9908882 230.778324,35.422199 230.124023,35.7314453 C229.469723,36.0406917 228.732426,36.1953125 227.912109,36.1953125 C227.091793,36.1953125 226.362633,36.0406917 225.724609,35.7314453 C225.086585,35.422199 224.549481,34.9892606 224.113281,34.4326172 C223.677081,33.8759738 223.345053,33.2151731 223.117188,32.4501953 C222.889322,31.6852175 222.775391,30.8470098 222.775391,29.9355469 L222.775391,27.8652344 C222.775391,26.9537715 222.889322,26.1139361 223.117188,25.3457031 C223.345053,24.5774701 223.677081,23.9150418 224.113281,23.3583984 C224.549481,22.801755 225.084958,22.3671891 225.719727,22.0546875 C226.354495,21.7421859 227.082027,21.5859375 227.902344,21.5859375 C228.729171,21.5859375 229.469723,21.7421859 230.124023,22.0546875 C230.778324,22.3671891 231.333331,22.801755 231.789062,23.3583984 C232.244794,23.9150418 232.593098,24.5774701 232.833984,25.3457031 C233.074871,26.1139361 233.195312,26.9537715 233.195312,27.8652344 L233.195312,29.9355469 Z M230.412109,27.8457031 C230.412109,27.2662731 230.364909,26.7324243 230.270508,26.2441406 C230.176106,25.7558569 230.027996,25.3359393 229.826172,24.984375 C229.624348,24.6328107 229.365561,24.3577484 229.049805,24.1591797 C228.734048,23.960611 228.351565,23.8613281 227.902344,23.8613281 C227.459633,23.8613281 227.088543,23.960611 226.789062,24.1591797 C226.489582,24.3577484 226.248699,24.6328107 226.066406,24.984375 C225.884114,25.3359393 225.753907,25.7558569 225.675781,26.2441406 C225.597656,26.7324243 225.558594,27.2662731 225.558594,27.8457031 L225.558594,29.9355469 C225.558594,30.5084664 225.597656,31.0390601 225.675781,31.5273438 C225.753907,32.0156274 225.884114,32.4388003 226.066406,32.796875 C226.248699,33.1549497 226.489582,33.4348948 226.789062,33.6367188 C227.088543,33.8385427 227.462888,33.9394531 227.912109,33.9394531 C228.35482,33.9394531 228.734048,33.8385427 229.049805,33.6367188 C229.365561,33.4348948 229.62272,33.1565773 229.821289,32.8017578 C230.019858,32.4469383 230.167968,32.0253931 230.265625,31.5371094 C230.363282,31.0488257 230.412109,30.5149769 230.412109,29.9355469 L230.412109,27.8457031 Z M242.267578,33.03125 L238,33.03125 L237.160156,36 L234.269531,36 L238.927734,21.78125 L241.417969,21.78125 L245.988281,36 L243.097656,36 L242.267578,33.03125 Z M238.673828,30.6972656 L241.623047,30.6972656 L240.167969,25.4628906 L238.673828,30.6972656 Z M247.21875,36 L247.21875,21.78125 L250.900391,21.78125 C251.844406,21.78125 252.698889,21.9423812 253.463867,22.2646484 C254.228845,22.5869157 254.883135,23.0361299 255.426758,23.6123047 C255.97038,24.1884794 256.390298,24.8769491 256.686523,25.6777344 C256.982749,26.4785196 257.130859,27.3574171 257.130859,28.3144531 L257.130859,29.4863281 C257.130859,30.4433642 256.982749,31.320634 256.686523,32.1181641 C256.390298,32.9156941 255.975263,33.6025362 255.441406,34.1787109 C254.907549,34.7548857 254.26628,35.2024724 253.517578,35.5214844 C252.768876,35.8404964 251.942062,36 251.037109,36 L247.21875,36 Z M249.982422,24.0078125 L249.982422,33.7929688 L251.037109,33.7929688 C251.551435,33.7929688 252.012042,33.6953135 252.418945,33.5 C252.825848,33.3046865 253.170897,33.0214862 253.454102,32.6503906 C253.737306,32.279295 253.953775,31.8284532 254.103516,31.2978516 C254.253256,30.76725 254.328125,30.1634148 254.328125,29.4863281 L254.328125,28.2949219 C254.328125,27.6568979 254.254884,27.075849 254.108398,26.5517578 C253.961913,26.0276667 253.743817,25.5768248 253.454102,25.1992188 C253.164387,24.8216127 252.806317,24.5286469 252.379883,24.3203125 C251.953448,24.1119781 251.460289,24.0078125 250.900391,24.0078125 L249.982422,24.0078125 Z" id="DOWNLOAD" fill="#FFFFFF"></path>
            <g id="Group-2" transform="translate(262.000000, 24.000000)" fill="#FFFFFF">
                <rect id="Rectangle" x="0" y="10" width="14" height="1"></rect>
                <polygon id="Path-2" points="0 0 7 7 14 0 12.5 0 7 5.5 1.5 0"></polygon>
            </g>
            <g id="logo/identity/excalibur1" transform="translate(102.000000, 55.000000)" font-family="RobotoMono-Bold, Roboto Mono" font-weight="bold">
                <g id="logo" transform="translate(-1.400000, -2.400000)">
                    <text id="Excalibur_" font-size="22.8" fill="#FFFFFF">
                        <tspan x="0.188867188" y="24.6">Excalibur_</tspan>
                    </text>
                    <text id="Alpha" font-size="14.4" fill="#EF5777">
                        <tspan x="128.996484" y="13">Alpha</tspan>
                    </text>
                </g>
            </g>
        </g>
    </g>
</svg>