<?xml version="1.0" encoding="UTF-8"?>
<svg width="297px" height="47px" viewBox="0 0 297 47" version="1.1" xmlns="http://www.w3.org/2000/svg" xmlns:xlink="http://www.w3.org/1999/xlink">
    <!-- Generator: Sketch 49 (51002) - http://www.bohemiancoding.com/sketch -->
    <title>IPFSexcalibur</title>
    <desc>Created with Sketch.</desc>
    <defs></defs>
    <g id="Symbols" stroke="none" stroke-width="1" fill="none" fill-rule="evenodd">
        <g id="Artboard-2" fill-rule="nonzero">
            <g id="IPFSexcalibur" transform="translate(0.000000, -2.000000)">
                <g id="logo" transform="translate(0.000000, 11.086957)" fill="#121212">
                    <path d="M18.9301216,20.1362517 L6.60156249,20.1362517 L6.60156249,28.5911388 L21.0123698,28.5911388 L21.0123698,33.2608696 L0.787760422,33.2608696 L0.787760422,3.30876359 L20.9505209,3.30876359 L20.9505209,8.0196374 L6.60156249,8.0196374 L6.60156249,15.5693785 L18.9301216,15.5693785 L18.9301216,20.1362517 Z M36.2065973,17.9556724 L41.1132813,11.0025052 L47.2775607,11.0025052 L39.7938369,21.9259723 L47.5455729,33.2608696 L41.3606771,33.2608696 L36.2272136,25.9785581 L31.1349827,33.2608696 L24.9294704,33.2608696 L32.6812067,21.9259723 L25.2180989,11.0025052 L31.3823784,11.0025052 L36.2065973,17.9556724 Z M61.2141927,29.1054264 C61.7777082,29.1054264 62.3137271,29.0231412 62.8222656,28.8585682 C63.330804,28.6939954 63.7774864,28.460854 64.1623264,28.1591373 C64.5471662,27.8574205 64.8461,27.4939942 65.0591362,27.0688476 C65.2721727,26.6437012 65.3649451,26.1705613 65.3374567,25.649414 L70.7389322,25.649414 C70.7664209,26.801424 70.5293356,27.8711312 70.0276693,28.8585682 C69.5260029,29.8460054 68.8422353,30.6962856 67.9763456,31.4094345 C67.1104558,32.1225835 66.1037022,32.6814368 64.9560547,33.0860119 C63.8084071,33.4905866 62.5954924,33.6928711 61.3172742,33.6928711 C59.5854949,33.6928711 58.0667744,33.4014444 56.7610678,32.8185823 C55.4553609,32.2357201 54.3661429,31.4368681 53.4933811,30.4220025 C52.6206191,29.4071366 51.9609036,28.2174299 51.5142144,26.8528468 C51.0675253,25.4882638 50.844184,24.0242733 50.844184,22.4608313 L50.844184,21.8436863 C50.844184,20.2802445 51.0640893,18.8162538 51.5039062,17.4516707 C51.9437233,16.0870877 52.6034389,14.8973812 53.4830729,13.8825153 C54.3627069,12.8676495 55.4519249,12.0653689 56.7507596,11.4756497 C58.0495942,10.8859303 59.5580064,10.5910751 61.2760418,10.5910751 C62.6504698,10.5910751 63.9217969,10.796788 65.0900607,11.2082201 C66.2583247,11.6196522 67.2650782,12.1990769 68.1103516,12.9465119 C68.9556249,13.693947 69.6119044,14.5990839 70.07921,15.6619501 C70.5465156,16.7248163 70.7664209,17.914523 70.7389322,19.2311057 L65.3374567,19.2311057 C65.3649451,18.6825295 65.2824807,18.16139 65.0900607,17.6676715 C64.8976409,17.1739531 64.6158873,16.7488129 64.2447916,16.3922384 C63.873696,16.0356639 63.4270136,15.7510943 62.9047309,15.5385212 C62.3824482,15.3259479 61.8120691,15.2196628 61.1935764,15.2196628 C60.2864538,15.2196628 59.5374018,15.4048046 58.9463976,15.7750934 C58.3553936,16.1453822 57.8846589,16.6390935 57.5341798,17.2562416 C57.1837004,17.8733897 56.9363071,18.5796707 56.7919922,19.3751062 C56.6476773,20.1705415 56.5755209,20.9933934 56.5755209,21.8436863 L56.5755209,22.4608313 C56.5755209,23.3248387 56.6442411,24.1579762 56.781684,24.9602688 C56.9191269,25.7625613 57.1630842,26.4688426 57.5135633,27.0791334 C57.8640424,27.6894242 58.3382131,28.179707 58.9360893,28.5499958 C59.5339656,28.9202846 60.2933258,29.1054264 61.2141927,29.1054264 Z M90.6130642,33.2608696 C90.4756213,32.9865816 90.3587967,32.671155 90.2625869,32.3145805 C90.1663769,31.958006 90.0839124,31.5808657 90.0151909,31.183148 C89.6990724,31.5260081 89.3348544,31.8482915 88.922526,32.1500084 C88.5101976,32.4517253 88.0532071,32.7157237 87.5515409,32.9420114 C87.0498744,33.168299 86.4966756,33.3465835 85.8919271,33.4768703 C85.2871787,33.6071571 84.6343351,33.6722996 83.9333767,33.6722996 C82.7926013,33.6722996 81.7446156,33.5077293 80.789388,33.1785835 C79.8341604,32.8494379 79.012952,32.3900122 78.3257378,31.800293 C77.6385238,31.2105736 77.1025049,30.507721 76.7176649,29.6917142 C76.3328251,28.8757071 76.140408,27.9877128 76.140408,27.0277046 C76.140408,24.6825418 77.0165929,22.8688393 78.7689887,21.5865425 C80.5213847,20.3042459 83.1361949,19.6631072 86.6134982,19.6631072 L89.8090278,19.6631072 L89.8090278,18.3465311 C89.8090278,17.2768077 89.4585538,16.429956 88.7575956,15.8059506 C88.0566371,15.1819454 87.0464476,14.8699474 85.7269964,14.8699474 C84.5587327,14.8699474 83.7066,15.1202314 83.1705729,15.6208071 C82.634546,16.1213829 82.3665364,16.7899499 82.3665364,17.6265286 L76.6351996,17.6265286 C76.6351996,16.6802347 76.8447969,15.7819549 77.2639973,14.9316618 C77.683198,14.081369 78.2948093,13.3339451 79.0988498,12.6893681 C79.9028902,12.0447913 80.8855918,11.5339374 82.0469836,11.1567913 C83.2083753,10.7796454 84.5381147,10.5910751 86.0362413,10.5910751 C87.3831809,10.5910751 88.6373278,10.7556454 89.7987196,11.084791 C90.9601113,11.4139368 91.9668649,11.9007908 92.8190104,12.5453676 C93.6711558,13.1899446 94.3377436,14.0025108 94.8187933,14.9830907 C95.2998433,15.9636703 95.5403647,17.0985203 95.5403647,18.3876742 L95.5403647,27.9328508 C95.5403647,29.1260038 95.6159569,30.1134259 95.767144,30.895147 C95.9183311,31.6768679 96.1382364,32.3488636 96.4268662,32.9111541 L96.4268662,33.2608696 L90.6130642,33.2608696 Z M85.1497396,29.2494269 C85.7269993,29.2494269 86.2630184,29.1808558 86.7578124,29.0437117 C87.2526067,28.9065678 87.6992891,28.7282831 88.0978733,28.5088528 C88.4964573,28.2894224 88.8400593,28.0391381 89.1286893,27.7579928 C89.4173191,27.4768476 89.6440964,27.192278 89.8090278,26.9042757 L89.8090278,23.0779763 L86.8815104,23.0779763 C85.988132,23.0779763 85.225336,23.1636902 84.5930989,23.3351201 C83.960862,23.5065501 83.4454591,23.7465486 83.0468751,24.0551228 C82.6482909,24.3636967 82.3527931,24.73398 82.1603733,25.1659837 C81.9679533,25.5979874 81.8717449,26.0676987 81.8717449,26.5751317 C81.8717449,27.3431382 82.1431902,27.9808484 82.6860893,28.4882811 C83.2289884,28.9957141 84.0501971,29.2494269 85.1497396,29.2494269 Z M103.209635,1.66304348 L115.682509,1.66304348 L115.682509,28.6117102 L122.073568,28.6117102 L122.073568,33.2608696 L103.209635,33.2608696 L103.209635,28.6117102 L109.889323,28.6117102 L109.889323,6.33277428 L103.209635,6.33277428 L103.209635,1.66304348 Z M128.876953,11.0025052 L141.019965,11.0025052 L141.019965,28.6117102 L147.060547,28.6117102 L147.060547,33.2608696 L128.876953,33.2608696 L128.876953,28.6117102 L135.22678,28.6117102 L135.22678,15.6722359 L128.876953,15.6722359 L128.876953,11.0025052 Z M134.814453,5.30419921 C134.814453,4.86533833 134.893482,4.45734097 135.051541,4.08019489 C135.2096,3.7030488 135.432941,3.38076519 135.721571,3.11333431 C136.010201,2.84590346 136.357239,2.63676195 136.762695,2.48590353 C137.168152,2.33504511 137.61827,2.25961702 138.113064,2.25961702 C139.130141,2.25961702 139.937606,2.5441866 140.535482,3.11333431 C141.133358,3.68248203 141.432292,4.41276303 141.432292,5.30419921 C141.432292,6.19563539 141.133358,6.92591639 140.535482,7.49506411 C139.937606,8.06421182 139.130141,8.34878142 138.113064,8.34878142 C137.61827,8.34878142 137.168152,8.27335333 136.762695,8.12249491 C136.357239,7.97163647 136.010201,7.76249496 135.721571,7.49506411 C135.432941,7.22763326 135.2096,6.90534962 135.051541,6.52820356 C134.893482,6.15105747 134.814453,5.74306011 134.814453,5.30419921 Z M172.789714,22.3579738 C172.789714,24.0174167 172.607604,25.5396924 172.243381,26.9248471 C171.879158,28.3100018 171.332831,29.503137 170.604384,30.5042883 C169.875937,31.5054398 168.968828,32.2837204 167.88303,32.8391539 C166.797231,33.3945871 165.532776,33.6722996 164.089627,33.6722996 C162.78392,33.6722996 161.65347,33.4288727 160.698242,32.9420114 C159.743015,32.4551501 158.921806,31.7728687 158.234592,30.895147 L157.96658,33.2608696 L152.8125,33.2608696 L152.8125,1.66304348 L158.543837,1.66304348 L158.543837,13.0185123 C159.203562,12.2505058 159.983539,11.6539382 160.883789,11.2287915 C161.78404,10.8036451 162.838897,10.5910751 164.048394,10.5910751 C165.505288,10.5910751 166.780051,10.8722161 167.872721,11.4345067 C168.965392,11.9967972 169.875937,12.7785063 170.604384,13.7796578 C171.332831,14.7808091 171.879158,15.9773729 172.243381,17.3693849 C172.607604,18.7613966 172.789714,20.280244 172.789714,21.9259723 L172.789714,22.3579738 Z M167.058377,21.9259723 C167.058377,21.0208217 166.989656,20.1636844 166.852214,19.3545346 C166.714771,18.5453848 166.477685,17.8356752 166.14095,17.2253842 C165.804216,16.6150933 165.347225,16.1316679 164.769965,15.7750934 C164.192706,15.4185189 163.471142,15.2402344 162.605252,15.2402344 C161.560686,15.2402344 160.71199,15.4596615 160.059136,15.8985225 C159.406283,16.3373832 158.901188,16.9408079 158.543837,17.7088145 L158.543837,26.5751317 C158.901188,27.3431382 159.406283,27.9465629 160.059136,28.3854237 C160.71199,28.8242847 161.57443,29.0437117 162.646484,29.0437117 C163.512374,29.0437117 164.227066,28.8757128 164.790582,28.53971 C165.354097,28.2037071 165.804216,27.7374243 166.14095,27.1408478 C166.477685,26.5442713 166.714771,25.8379903 166.852214,25.0219832 C166.989656,24.2059763 167.058377,23.3179821 167.058377,22.3579738 L167.058377,21.9259723 Z M192.251519,30.1340015 C191.495584,31.2448679 190.585039,32.1157196 189.519857,32.746582 C188.454675,33.3774445 187.289864,33.6928711 186.025391,33.6928711 C184.870871,33.6928711 183.812577,33.5145866 182.850477,33.1580121 C181.888378,32.8014376 181.063733,32.235727 180.376519,31.4608631 C179.689305,30.6859995 179.156722,29.6985772 178.778754,28.498567 C178.400787,27.2985567 178.211806,25.8551376 178.211806,24.168266 L178.211806,11.0025052 L183.943142,11.0025052 L183.943142,24.2094091 C183.943142,25.1145595 184.008427,25.8756975 184.138997,26.4928456 C184.269568,27.1099937 184.479165,27.6071333 184.767795,27.9842794 C185.056425,28.3614255 185.434387,28.632281 185.901693,28.7968538 C186.368998,28.9614265 186.939377,29.0437117 187.612847,29.0437117 C188.753623,29.0437117 189.681348,28.8277132 190.39605,28.3957095 C191.110753,27.9637058 191.653644,27.3705667 192.02474,26.6162747 L192.02474,11.0025052 L197.776693,11.0025052 L197.776693,33.2608696 L192.58138,33.2608696 L192.251519,30.1340015 Z M219.382596,10.5910751 C220.248484,10.5910751 221.049078,10.6493603 221.784398,10.7659328 C222.519716,10.8825053 223.114147,11.0093616 223.567709,11.1465057 L222.72244,16.8448115 C221.966504,16.6665242 221.1934,16.5328108 220.403102,16.4436672 C219.612807,16.3545237 218.86032,16.3099526 218.145616,16.3099526 C216.537535,16.3099526 215.249028,16.6185218 214.280056,17.23567 C213.311085,17.8528181 212.586085,18.7373838 212.105035,19.8893938 L212.105035,33.2608696 L206.373698,33.2608696 L206.373698,11.0025052 L211.713325,11.0025052 L211.981337,14.6436608 C212.888459,13.3819357 213.974241,12.3910851 215.238715,11.6710788 C216.503189,10.9510728 217.884469,10.5910751 219.382596,10.5910751 Z M247.647569,37.7248854 L228.845487,37.7248854 L228.845487,33.2608696 L247.647569,33.2608696 L247.647569,37.7248854 Z" id="Excalibur_"></path>
                </g>
                <g id="IPFS" transform="translate(236.965207, 2.171494)">
                    <g id="Group-3">
                        <g id="ipfs-logo-vector-ice">
                            <g id="Group" transform="translate(0.050624, 0.025367)">
                                <polygon id="Shape" fill="#4A9EA1" points="0.0162222476 19.9052715 11.4335946 26.5315615 22.8509671 19.9052715 22.8509671 6.65269159 11.4335946 0.0269193029 0.0162222476 6.65320928"></polygon>
                                <path d="M10.2550355,1.62292336 L1.97705425,6.4272942 C1.99359888,6.57505528 1.99359836,6.72419341 1.97705425,6.87194932 L10.2555505,11.6763201 C10.9535706,11.1585895 11.9057393,11.1585895 12.6037594,11.6763201 L20.8822557,6.87189755 C20.865711,6.72413647 20.865625,6.57507083 20.8822042,6.42731491 L12.6042229,1.62294407 C11.9062028,2.14067474 10.9539826,2.14067474 10.255911,1.62294407 L10.2550355,1.62292336 Z M21.6770428,8.19899848 L13.3897917,13.0568973 C13.4868162,13.92344 13.010701,14.7523475 12.2156615,15.1011595 L12.2249633,24.6564766 C12.3605349,24.7159528 12.4889842,24.7904831 12.6080143,24.8787681 L20.8865105,20.074449 C20.789486,19.2079063 21.2656013,18.3789471 22.0606408,18.030135 L22.0606408,8.42149687 C21.9250691,8.36202073 21.7965477,8.28749051 21.6775176,8.19920554 L21.6770428,8.19899848 Z M1.19014649,8.25239705 C1.07112154,8.34068202 0.942672236,8.41528471 0.807095444,8.47476085 L0.807095444,18.083399 C1.60214008,18.4322007 2.07825017,19.2611185 1.98122568,20.1276612 L10.2592069,24.9320321 C10.3782319,24.8437471 10.5067584,24.7691443 10.64233,24.7096683 L10.64233,15.1010301 C9.84728542,14.7522284 9.37117533,13.9233106 9.46819982,13.0567679 L1.19021858,8.25218999 L1.19014649,8.25239705 Z" id="Shape" fill="#63D3D7"></path>
                            </g>
                            <g id="Group" transform="translate(0.051500, 0.017602)" fill="#000000">
                                <polygon id="Shape" fill-opacity="0.25098" points="11.4328222 26.5393268 22.8501944 19.9130367 22.8501944 6.66045678 11.4328222 13.2867468"></polygon>
                                <polygon id="Shape" fill-opacity="0.039216" points="11.4328222 26.5393268 11.4328222 13.2867468 0.0154497597 6.66045678 0.0154497597 19.9130367"></polygon>
                                <polygon id="Shape" fill-opacity="0.13018" points="0.0153467613 6.66045678 11.4327192 13.2867468 22.8500916 6.66045678 11.4327192 0.0341668076"></polygon>
                            </g>
                        </g>
                        <g id="ipfs-text-vector-white" transform="translate(27.037080, 6.419219)" fill="#121212">
                            <polygon id="Shape" points="1.60111009 0.359786837 0.0509842069 0.359786837 0.0509842069 13.5864828 1.60111009 13.5864828"></polygon>
                            <path d="M8.37325476,6.70135341 C7.778439,6.70135341 6.08411536,6.68323464 6.08411536,6.68323464 L6.08411536,1.75493148 L8.80584802,1.75493148 C10.4280728,1.75493148 11.5996796,2.38908815 11.5996796,3.94730164 C11.5996796,5.26997125 11.3653582,6.70135341 8.37325476,6.70135341 Z M6.08411536,13.5864828 L6.08411536,7.9334292 C6.75102998,7.98778548 7.6883154,8.06026054 8.229057,8.06026054 C12.1223964,8.06026054 13.1858549,6.37521571 13.1858549,3.91106412 C13.1858549,1.35631873 11.2752346,0.359786837 8.76979858,0.359786837 L4.51596476,0.359786837 L4.51596476,13.5864828 L6.08411536,13.5864828 Z" id="Shape"></path>
                            <polygon id="Shape" points="21.8351453 6.17590933 16.4097047 6.17590933 16.4097047 1.71869396 22.0153925 1.71869396 22.1415656 0.359786837 14.8595788 0.359786837 14.8595788 13.5864828 16.4097047 13.5864828 16.4097047 7.44422263 21.8351453 7.44422263"></polygon>
                            <path d="M24.0084116,11.4303502 C25.1800182,12.0101506 26.6940947,12.4450008 28.3703938,12.4450008 C30.2449644,12.4450008 31.236324,11.6115378 31.236324,9.81778041 C31.236324,8.74877347 30.8037309,8.024023 29.127432,7.60729149 L26.5318722,6.95501608 C24.7113756,6.50204703 23.5758182,5.52363389 23.5758182,3.76611403 C23.5758182,1.19324987 25.4864384,0.0880054137 28.3703938,0.0880054137 C29.9745938,0.0880054137 31.4165713,0.48661817 32.3178073,1.04829978 L31.8671893,2.28037557 C31.1642253,1.89988158 29.7763218,1.44691254 28.3523689,1.44691254 C26.2615016,1.44691254 25.1619936,2.15354424 25.1619936,3.67552022 C25.1619936,4.70828962 25.8469329,5.26997125 27.1086633,5.57799018 L29.57805,6.17590933 C31.5427444,6.64699712 32.8044747,7.60729149 32.8044747,9.76342412 C32.8044747,12.5174759 30.9659533,13.7857892 28.28027,13.7857892 C25.9911307,13.7857892 24.3508811,13.1878701 23.5577936,12.6986635 L24.0084116,11.4303502 Z" id="Shape"></path>
                        </g>
                    </g>
                </g>
            </g>
        </g>
    </g>
</svg>