<?xml version="1.0" encoding="UTF-8"?>
<svg width="290px" height="100px" viewBox="0 0 290 100" version="1.1" xmlns="http://www.w3.org/2000/svg" xmlns:xlink="http://www.w3.org/1999/xlink">
    <!-- Generator: Sketch 51.2 (57519) - http://www.bohemiancoding.com/sketch -->
    <title>IPFSexplore</title>
    <desc>Created with Sketch.</desc>
    <defs>
        <path d="M0,0 L245,0 C247.761424,-5.07265313e-16 250,2.23857625 250,5 L250,85 C250,87.7614237 247.761424,90 245,90 L0,90 L0,0 Z" id="path-1"></path>
        <polygon id="path-3" points="-34.7681101 71.5282101 4.83896854 96.3064202 44.4460472 71.5282101 44.4460472 21.9717899 4.83896854 -2.80448444 -34.7681101 21.9737257"></polygon>
        <filter x="-10.7%" y="-6.6%" width="121.5%" height="117.2%" filterUnits="objectBoundingBox" id="filter-4">
            <feOffset dx="0" dy="2" in="SourceAlpha" result="shadowOffsetOuter1"></feOffset>
            <feGaussianBlur stdDeviation="2.5" in="shadowOffsetOuter1" result="shadowBlurOuter1"></feGaussianBlur>
            <feColorMatrix values="0 0 0 0 0   0 0 0 0 0   0 0 0 0 0  0 0 0 0.2 0" type="matrix" in="shadowBlurOuter1"></feColorMatrix>
        </filter>
    </defs>
    <g id="IPFSexplore" stroke="none" stroke-width="1" fill="none" fill-rule="evenodd">
        <g id="ipfsExplore">
            <g id="Shape-Copy" transform="translate(40.000000, 5.000000)">
                <mask id="mask-2" fill="white">
                    <use xlink:href="#path-1"></use>
                </mask>
                <use id="Mask" fill="#5FCACE" xlink:href="#path-1"></use>
                <g fill-rule="nonzero" mask="url(#mask-2)" fill="black" fill-opacity="1">
                    <use filter="url(#filter-4)" xlink:href="#path-3"></use>
                </g>
            </g>
            <g id="ipfs-logo-vector-ice-text" fill-rule="nonzero">
                <g id="Group">
                    <g transform="translate(0.175615, 0.094854)" id="Shape">
                        <polygon fill="#4A9EA1" points="0.0562752809 74.433356 39.6633539 99.2115661 79.2704326 74.433356 79.2704326 24.8769358 39.6633539 0.100661479 0.0562752809 24.8788716"></polygon>
                        <path d="M35.5749101,6.06872568 L6.8584382,24.0340895 C6.91583184,24.5866242 6.91583006,25.1443082 6.8584382,25.6968235 L35.5766966,43.6621874 C37.9981416,41.7261961 41.3012326,41.7261961 43.7226775,43.6621874 L72.440936,25.69663 C72.3835423,25.1440952 72.383244,24.5866823 72.4407573,24.0341669 L43.7242854,6.06880311 C41.3028404,8.00479436 37.9995708,8.00479436 35.5779472,6.06880311 L35.5749101,6.06872568 Z M75.1980674,30.6591634 L46.4494382,48.8246887 C46.786018,52.0650204 45.1343653,55.1646196 42.3763584,56.4689601 L42.4086265,92.1999134 C42.8789271,92.4223172 43.3245201,92.701014 43.7374377,93.0311449 L72.4556962,75.0659747 C72.1191164,71.825643 73.7707691,68.7258502 76.5287759,67.4215097 L76.5287759,31.4911693 C76.0584754,31.2687655 75.6126322,30.9900687 75.1997146,30.6599377 L75.1980674,30.6591634 Z M4.12864045,30.858841 C3.71574067,31.1889719 3.27014764,31.4679397 2.79982921,31.6903435 L2.79982921,67.6206839 C5.55785393,68.9249857 7.20948876,72.0246236 6.87290899,75.2649554 L35.5893809,93.2303192 C36.0022807,92.9001882 36.4481417,92.6212204 36.9184422,92.3988166 L36.9184422,56.4684762 C34.1604175,55.1641744 32.5087827,52.0645365 32.8453625,48.8242048 L4.12889056,30.8580666 L4.12864045,30.858841 Z" fill="#63D3D7"></path>
                    </g>
                    <g transform="translate(0.178652, 0.065817)" fill="#000000" id="Shape">
                        <polygon fill-opacity="0.25098" points="39.6606742 99.2406031 79.2677528 74.462393 79.2677528 24.9059728 39.6606742 49.6841829"></polygon>
                        <polygon fill-opacity="0.039216" points="39.6606742 99.2406031 39.6606742 49.6841829 0.0535955056 24.9059728 0.0535955056 74.462393"></polygon>
                        <polygon fill-opacity="0.13018" points="0.0532382022 24.9059728 39.6603169 49.6841829 79.2673955 24.9059728 39.6603169 0.127762646"></polygon>
                    </g>
                </g>
                <g id="Group" transform="translate(7.000000, 35.500000)" fill="#FFFFFF">
                    <polygon id="Shape" points="5.38495902 0.77027027 0.159275956 0.77027027 0.159275956 27.9608108 5.38495902 27.9608108"></polygon>
                    <path d="M14.4905328,27.9608108 L14.4905328,17.9858108 C15.7790574,18.1013514 17.067582,18.1013514 18.1413525,18.1013514 C25.5861612,18.1013514 27.7337022,14.1344595 27.7337022,9.24324324 C27.7337022,3.31216216 23.7965437,0.77027027 17.7118443,0.77027027 L9.26484973,0.77027027 L9.26484973,27.9608108 L14.4905328,27.9608108 Z M17.3181284,14.1344595 C16.351735,14.1344595 14.920041,14.1344595 14.4905328,14.0959459 L14.4905328,4.8527027 L17.7476366,4.8527027 C20.8973634,4.8527027 22.6869809,6.47027027 22.6869809,9.43581081 L22.6869809,9.51283784 C22.6869809,11.8236486 21.8995492,14.1344595 17.3181284,14.1344595 Z" id="Shape"></path>
                    <polygon id="Shape" points="45.6262978 0.77027027 29.7702869 0.77027027 29.7702869 27.9608108 34.9959699 27.9608108 34.9959699 15.9831081 44.9104508 15.9831081 44.9104508 11.9006757 34.9601776 11.9006757 34.9601776 4.89121622 45.2683743 4.89121622"></polygon>
                    <path d="M62.7278825,6.08513514 L64.0879918,2.31081081 C62.0478279,0.731756757 59.2918169,0.154054054 55.819959,0.154054054 C50.7732377,0.154054054 46.6213251,2.69594595 46.6213251,7.89527027 C46.6213251,12.5554054 49.8068443,14.4040541 52.9923634,15.5209459 L56.1778825,16.6763514 C58.3612158,17.4851351 60.1508333,18.2554054 60.1508333,20.7972973 C60.1508333,23.1081081 58.2896311,24.0324324 55.4620355,24.0324324 C52.5986475,24.0324324 49.5205055,23.1081081 47.7666803,21.9141892 L46.406571,25.9966216 C48.6972814,27.5756757 51.5964617,28.3459459 55.4978279,28.3459459 C61.0456421,28.3459459 65.340724,25.727027 65.340724,20.1425676 C65.340724,14.9432432 61.654112,13.2871622 57.9317077,11.9391892 L54.4598497,10.7067568 C52.956571,10.1675676 51.8112158,9.43581081 51.8112158,7.35608108 C51.8112158,5.23783784 53.4218716,4.39054054 55.819959,4.39054054 C58.7549317,4.39054054 61.0456421,4.96824324 62.7278825,6.08513514 Z" id="Shape"></path>
                </g>
            </g>
            <text id="EXPLORE" font-family="RobotoMono-Bold, Roboto Mono" font-size="20" font-weight="bold" fill="#FFFFFF">
                <tspan x="173.986328" y="36">EXPLORE</tspan>
            </text>
            <polygon id="Path-3" fill="#FFFFFF" points="265.5 22.5 272.5 29.5 265.5 36.5 265.5 35 271 29.5 265.5 24"></polygon>
            <g id="logo/excalibur1" transform="translate(102.000000, 55.000000)" font-family="RobotoMono-Bold, Roboto Mono" font-weight="bold">
                <g id="logo" transform="translate(-1.400000, -2.400000)">
                    <text id="Excalibur_" font-size="22.8" fill="#FFFFFF">
                        <tspan x="0.188867188" y="24.6">Excalibur_</tspan>
                    </text>
                    <text id="Alpha" font-size="14.4" fill="#EF5777">
                        <tspan x="128.996484" y="13">Alpha</tspan>
                    </text>
                </g>
            </g>
            <g id="cloudflare-1" transform="translate(110.000000, 22.000000)" fill-rule="nonzero">
                <path d="M40.6398942,11.3875598 C40.4468254,11.3875598 40.2928042,11.2290271 40.2928042,11.030303 C40.2928042,10.8360447 40.4468254,10.6730463 40.6398942,10.6730463 C40.8286243,10.6730463 40.9869841,10.8315789 40.9869841,11.030303 C40.9869841,11.2245614 40.8286243,11.3875598 40.6398942,11.3875598 Z M40.6398942,10.7422648 C40.485873,10.7422648 40.3600529,10.8717703 40.3600529,11.030303 C40.3600529,11.1888357 40.485873,11.3183413 40.6398942,11.3183413 C40.7939153,11.3183413 40.9197354,11.1888357 40.9197354,11.030303 C40.9197354,10.8717703 40.7939153,10.7422648 40.6398942,10.7422648 Z M40.8156085,11.2178628 L40.7353439,11.2178628 L40.6659259,11.0838915 L40.5748148,11.0838915 L40.5748148,11.2178628 L40.5010582,11.2178628 L40.5010582,10.8248804 L40.6832804,10.8248804 C40.763545,10.8248804 40.8134392,10.8784689 40.8134392,10.954386 C40.8134392,11.0124402 40.7787302,11.0548644 40.7331746,11.0727273 L40.8156085,11.2178628 Z M40.6789418,11.0124402 C40.7071429,11.0124402 40.7353439,10.9945774 40.7353439,10.954386 C40.7353439,10.907496 40.7114815,10.8963317 40.6789418,10.8963317 L40.5639683,10.8963317 L40.5639683,11.014673 L40.6789418,11.014673 L40.6789418,11.0124402 Z M4.39719577,10.6373206 L5.28661376,10.6373206 L5.28661376,13.1314195 L6.83116402,13.1314195 L6.83116402,13.9307815 L4.39719577,13.9307815 L4.39719577,10.6373206 Z M7.75095238,12.291866 L7.75095238,12.2807018 C7.75095238,11.3362041 8.49285714,10.5658692 9.47989418,10.5658692 C10.4669312,10.5658692 11.1958201,11.322807 11.1958201,12.2673046 L11.1958201,12.2784689 C11.1958201,13.2229665 10.4539153,13.9933014 9.46687831,13.9933014 C8.47984127,13.9933014 7.75095238,13.2363636 7.75095238,12.291866 Z M10.2933862,12.291866 L10.2933862,12.2807018 C10.2933862,11.8051037 9.96365079,11.3942584 9.47121693,11.3942584 C8.98746032,11.3942584 8.66206349,11.7984051 8.66206349,12.2740032 L8.66206349,12.2851675 C8.66206349,12.7607656 8.99179894,13.1716108 9.47772487,13.1716108 C9.96798942,13.1716108 10.2933862,12.7674641 10.2933862,12.291866 Z M12.2848148,12.4861244 L12.2848148,10.6373206 L13.1850794,10.6373206 L13.1850794,12.4682616 C13.1850794,12.9438596 13.4193651,13.1671451 13.772963,13.1671451 C14.1265608,13.1671451 14.3608466,12.9505582 14.3608466,12.492823 L14.3608466,10.6373206 L15.2611111,10.6373206 L15.2611111,12.4637959 C15.2611111,13.5266348 14.6732275,13.9910686 13.7621164,13.9910686 C12.8553439,13.9888357 12.2848148,13.5177033 12.2848148,12.4861244 Z M16.6191005,10.6373206 L17.8512698,10.6373206 C18.992328,10.6373206 19.6583069,11.3116427 19.6583069,12.2628389 L19.6583069,12.2740032 C19.6583069,13.2251994 18.9858201,13.9285486 17.8339153,13.9285486 L16.6191005,13.9285486 L16.6191005,10.6373206 Z M17.866455,13.1202552 C18.3957672,13.1202552 18.7493651,12.8210526 18.7493651,12.2874003 L18.7493651,12.276236 C18.7493651,11.7470494 18.3957672,11.4433812 17.866455,11.4433812 L17.5063492,11.4433812 L17.5063492,13.1157895 L17.866455,13.1157895 L17.866455,13.1202552 Z M20.9468783,10.6373206 L23.5066667,10.6373206 L23.5066667,11.4366826 L21.8297884,11.4366826 L21.8297884,11.999362 L23.3461376,11.999362 L23.3461376,12.7562998 L21.8297884,12.7562998 L21.8297884,13.9307815 L20.9468783,13.9307815 L20.9468783,10.6373206 Z M24.738836,10.6373206 L25.621746,10.6373206 L25.621746,13.1314195 L27.1728042,13.1314195 L27.1728042,13.9307815 L24.7366667,13.9307815 L24.7366667,10.6373206 L24.738836,10.6373206 Z M29.4896296,10.6127592 L30.3443386,10.6127592 L31.7066667,13.9285486 L30.7543386,13.9285486 L30.5200529,13.3413078 L29.2878836,13.3413078 L29.0601058,13.9285486 L28.1294709,13.9285486 L29.4896296,10.6127592 Z M30.270582,12.63126 L29.9169841,11.6979266 L29.5568783,12.63126 L30.270582,12.63126 Z M32.8498942,10.6373206 L34.3619048,10.6373206 C34.8521693,10.6373206 35.1884127,10.7668262 35.4053439,10.9945774 C35.5940741,11.1821372 35.6895238,11.4344498 35.6895238,11.7626794 L35.6895238,11.7738437 C35.6895238,12.2784689 35.427037,12.6133971 35.0343915,12.7830941 L35.7979894,13.9330144 L34.7719048,13.9330144 L34.127619,12.9349282 L33.7393122,12.9349282 L33.7393122,13.9330144 L32.8498942,13.9330144 L32.8498942,10.6373206 Z M34.3206878,12.215949 C34.6222222,12.215949 34.7935979,12.0641148 34.7935979,11.8274322 L34.7935979,11.8162679 C34.7935979,11.5572568 34.6113757,11.4277512 34.3141799,11.4277512 L33.7328042,11.4277512 L33.7328042,12.2137161 L34.3206878,12.215949 Z M36.9672487,10.6373206 L39.5400529,10.6373206 L39.5400529,11.4121212 L37.8458201,11.4121212 L37.8458201,11.9100478 L39.3795238,11.9100478 L39.3795238,12.63126 L37.8458201,12.63126 L37.8458201,13.153748 L39.561746,13.153748 L39.561746,13.9285486 L36.9672487,13.9285486 L36.9672487,10.6373206 Z M2.45783069,12.6781499 C2.33201058,12.9661882 2.06952381,13.1716108 1.72677249,13.1716108 C1.24301587,13.1716108 0.911111111,12.754067 0.911111111,12.2851675 L0.911111111,12.2740032 C0.911111111,11.7984051 1.23650794,11.3942584 1.72026455,11.3942584 C2.08470899,11.3942584 2.36455026,11.6242424 2.47952381,11.939075 L3.41449735,11.939075 C3.26698413,11.15311 2.59232804,10.5703349 1.72677249,10.5703349 C0.741904762,10.5725678 0,11.3406699 0,12.2851675 L0,12.2963317 C0,13.2430622 0.731058201,14 1.71592593,14 C2.55978836,14 3.22142857,13.4373206 3.39280423,12.6848485 L2.45783069,12.6781499 Z" id="Shape" fill="#404041"></path>
                <polygon id="Shape" fill="#FFFFFF" points="38.4901058 5.38341308 36.0431217 3.93875598 35.6201058 3.75119617 25.6108995 3.82264753 25.6108995 9.05199362 38.4879365 9.05199362"></polygon>
                <path d="M34.0343386,8.56969697 C34.1536508,8.1476874 34.1080952,7.75917065 33.9085185,7.47113238 C33.7262963,7.2076555 33.418254,7.05358852 33.0473016,7.03572568 L26.0274074,6.94194577 C25.9818519,6.94194577 25.9428042,6.91738437 25.9189418,6.88389155 C25.8950794,6.84816587 25.8907407,6.80127592 25.9015873,6.75438596 C25.9254497,6.68293461 25.9926984,6.63157895 26.066455,6.62488038 L33.1492593,6.53110048 C33.9866138,6.49090909 34.8998942,5.79202552 35.2187831,4.93460925 L35.6244444,3.84944179 C35.6417989,3.80255183 35.6483069,3.75566188 35.635291,3.70877193 C35.1819048,1.58532695 33.3401587,0 31.1383069,0 C29.1078307,0 27.3853968,1.35087719 26.7693122,3.22200957 C26.3701587,2.91610845 25.8625397,2.75311005 25.315873,2.80446571 C24.3396825,2.90494418 23.5587302,3.70877193 23.4632804,4.71132376 C23.439418,4.97033493 23.4567725,5.22264753 23.5153439,5.45709729 C21.9252381,5.50398724 20.6518519,6.8414673 20.6518519,8.49154705 C20.6518519,8.63891547 20.6626984,8.78405104 20.6800529,8.93141946 C20.6908995,9.00287081 20.7494709,9.05422648 20.8167196,9.05422648 L33.7740212,9.05422648 C33.8477778,9.05422648 33.9171958,9.00063796 33.9388889,8.92472089 L34.0343386,8.56969697 Z" id="Shape" fill="#F38020"></path>
                <path d="M36.2708995,3.92759171 C36.2079894,3.92759171 36.1407407,3.92759171 36.0778307,3.93429027 C36.0322751,3.93429027 35.9932275,3.97001595 35.975873,4.0169059 L35.7025397,4.99712919 C35.5832275,5.41913876 35.6287831,5.8076555 35.8283598,6.09569378 C36.010582,6.35917065 36.3186243,6.51323764 36.6895767,6.53110048 L38.1842328,6.62488038 C38.2297884,6.62488038 38.268836,6.64944179 38.2926984,6.68293461 C38.3165608,6.71866029 38.3208995,6.77001595 38.3100529,6.81244019 C38.2861905,6.88389155 38.2189418,6.93524721 38.1451852,6.94194577 L36.587619,7.03572568 C35.7437566,7.07591707 34.8369841,7.77480064 34.5180952,8.63221691 L34.4031217,8.93141946 C34.3792593,8.98947368 34.4204762,9.04976077 34.4833862,9.04976077 L39.8285714,9.04976077 C39.8914815,9.04976077 39.9478836,9.00956938 39.9652381,8.94481659 C40.0563492,8.60542265 40.1084127,8.24593301 40.1084127,7.87751196 C40.1084127,5.70047847 38.3859788,3.92759171 36.2708995,3.92759171" id="Shape" fill="#FAAE40"></path>
            </g>
        </g>
    </g>
</svg>