<?xml version="1.0" encoding="UTF-8"?>
<svg width="406px" height="209px" viewBox="0 0 406 209" version="1.1" xmlns="http://www.w3.org/2000/svg" xmlns:xlink="http://www.w3.org/1999/xlink">
    <!-- Generator: Sketch 51.3 (57544) - http://www.bohemiancoding.com/sketch -->
    <title>translatedOrders</title>
    <desc>Created with Sketch.</desc>
    <defs></defs>
    <g id="translatedOrders" stroke="none" stroke-width="1" fill="none" fill-rule="evenodd">
        <g id="Group-3" transform="translate(288.000000, 146.000000)">
            <rect id="Rectangle-14" stroke="#121212" stroke-width="3" fill-opacity="0.15" fill="#FFFFFF" x="1.5" y="1.5" width="97" height="47" rx="8"></rect>
            <text id="Blockchain" font-family="RobotoMono-Bold, Roboto Mono" font-size="12" font-weight="bold" fill="#121212">
                <tspan x="14.4941406" y="29">Blockchain</tspan>
            </text>
        </g>
        <g id="Group-19-Copy" transform="translate(84.000000, 92.000000)"></g>
        <g id="Group-9" transform="translate(168.000000, 13.000000)">
            <rect id="Rectangle-15" stroke="#000000" stroke-width="3" fill-opacity="0.15" fill="#FFFFFF" x="1.5" y="1.5" width="67" height="97" rx="8"></rect>
            <text id="DEX" font-family="RobotoMono-Bold, Roboto Mono" font-size="12" font-weight="bold" fill="#121212">
                <tspan x="24.1982422" y="54">DEX</tspan>
            </text>
        </g>
        <g id="Group-4" transform="translate(18.000000, 28.000000)">
            <rect id="Rectangle-18" stroke="#121212" stroke-width="3" fill-opacity="0.15" fill="#FFFFFF" x="1.5" y="1.5" width="97" height="67"></rect>
            <text id="Maker_" font-family="RobotoMono-Regular, Roboto Mono" font-size="12" font-weight="normal" fill="#121212">
                <tspan x="28.3964844" y="40">Maker_</tspan>
            </text>
        </g>
        <g id="Group-5" transform="translate(288.000000, 28.000000)">
            <rect id="Rectangle-18-Copy" stroke="#121212" stroke-width="3" fill-opacity="0.15" fill="#FFFFFF" x="1.5" y="1.5" width="97" height="67"></rect>
            <text id="Taker_" font-family="RobotoMono-Regular, Roboto Mono" font-size="12" font-weight="normal" fill="#121212">
                <tspan x="28.3964844" y="40">Taker_</tspan>
            </text>
        </g>
        <path d="M339,141.72 C339.666667,141.64 340.333333,141.4 341,141 L338.5,146 L336,141 C336.666667,141.4 337.333333,141.64 338,141.72 L338,98 L339,98 L339,141.72 Z" id="Combined-Shape-Copy-2" fill="#121212" transform="translate(338.500000, 122.000000) rotate(-360.000000) translate(-338.500000, -122.000000) "></path>
        <path d="M283.72,63 C283.64,62.3333333 283.4,61.6666667 283,61 L288,63.5 L283,66 C283.4,65.3333333 283.64,64.6666667 283.72,64 L238,64 L238,63 L283.72,63 Z" id="Combined-Shape-Copy-3" fill="#121212"></path>
        <path d="M163.72,63 C163.64,62.3333333 163.4,61.6666667 163,61 L168,63.5 L163,66 C163.4,65.3333333 163.64,64.6666667 163.72,64 L118,64 L118,63 L163.72,63 Z" id="Combined-Shape-Copy-4" fill="#121212"></path>
    </g>
</svg>